<svg id="Layer_1" data-name="Layer 1" xmlns="http://www.w3.org/2000/svg" viewBox="0 0 230 120"><defs><style>.cls-1{fill:#f8961d;}.cls-2{fill:#44bb92;}.cls-3{fill:#891820;}.cls-4{fill:#f7f7f7;}.cls-5{fill:#cea72c;}.cls-6{fill:#ccc;}.cls-7{fill:#dcdbdb;}.cls-8{fill:#efc81e;}.cls-9{fill:#d7a029;}.cls-10{fill:#4c4c4d;}.cls-11{fill:#895d5c;}.cls-12{fill:#ed5e52;}.cls-13{fill:#e5e5e5;}.cls-14{fill:#6d4645;}</style></defs><title>application-stats</title><rect class="cls-1" width="230" height="120"/><circle class="cls-2" cx="72" cy="41.34" r="27.56"/><path class="cls-3" d="M89.89,35.94v0c0-.05,0-.09,0-.14h0a1.53,1.53,0,0,0-1.2-1.17h0l-.11,0H86.44V29.8l-7-7H59.59a1.54,1.54,0,0,0-1.53,1.53V34.57H55.47l-.1,0h0a1.56,1.56,0,0,0-1.2,1.16v0a.59.59,0,0,0,0,.13v0c0,.05,0,.11,0,.16V57.66c0,.06,0,.12,0,.17v0s0,.1,0,.14v0a1.53,1.53,0,0,0,1.19,1.15h0l.12,0H88.52l.13,0h0a1.55,1.55,0,0,0,1.24-1.51V36.1A.92.92,0,0,0,89.89,35.94Z"/><path class="cls-4" d="M89.25,57a1.54,1.54,0,0,1-1.53,1.53H55A1.54,1.54,0,0,1,53.44,57V35.45A1.54,1.54,0,0,1,55,33.92H87.72a1.54,1.54,0,0,1,1.53,1.53Z"/><path class="cls-5" d="M71.35,47,88.74,34.32a1.5,1.5,0,0,0-1-.4H55a1.5,1.5,0,0,0-1,.4Z"/><path class="cls-6" d="M78.82,27.61a1.54,1.54,0,0,0,1.53,1.53h5.44l-7-7Z"/><path class="cls-4" d="M78.82,27.61V22.15H58.94a1.54,1.54,0,0,0-1.53,1.54V56.53a1.54,1.54,0,0,0,1.53,1.53H84.26a1.54,1.54,0,0,0,1.53-1.53V29.14H80.35A1.54,1.54,0,0,1,78.82,27.61Z"/><rect class="cls-7" x="63.14" y="33.09" width="16.42" height="1.68"/><rect class="cls-7" x="63.14" y="37.47" width="16.42" height="1.68"/><rect class="cls-7" x="63.14" y="41.86" width="16.42" height="1.69"/><path class="cls-8" d="M54,58.14a1.5,1.5,0,0,0,1,.4H87.72A1.54,1.54,0,0,0,89.25,57V35.45a1.52,1.52,0,0,0-.51-1.13L71.35,47Z"/><path class="cls-9" d="M54,58.14a1.5,1.5,0,0,0,1,.4H87.72a1.5,1.5,0,0,0,1-.4L71.35,47Z"/><path class="cls-8" d="M54,58.18,71.35,47,54,34.31a1.51,1.51,0,0,0-.53,1.14V57A1.52,1.52,0,0,0,54,58.18Z"/><rect class="cls-4" x="93.78" y="36.41" width="54.01" height="42.84"/><path class="cls-10" d="M148.55,83.9H93a2.33,2.33,0,1,1,0-4.65h55.52a2.33,2.33,0,0,1,0,4.65Z"/><path class="cls-11" d="M108.56,83.9l-9,13.6a3,3,0,0,0,5,3.35L115.83,83.9Z"/><path class="cls-11" d="M133,83.9h-7.27L137,100.85A3,3,0,0,0,142,97.5Z"/><polygon class="cls-12" points="142.95 47.34 130.18 50.76 133.52 54.1 121.82 65.8 110.29 54.27 97.97 66.6 100.64 69.28 110.29 59.63 121.82 71.16 136.2 56.77 139.53 60.11 142.95 47.34"/><path class="cls-10" d="M148.55,36.41H93a2.33,2.33,0,0,1,0-4.66h55.52a2.33,2.33,0,0,1,0,4.66Z"/><rect class="cls-13" x="93.78" y="36.41" width="54.01" height="3.95"/><polygon class="cls-14" points="112.66 88.68 115.97 83.69 108.7 83.69 105.4 88.68 112.66 88.68"/><polygon class="cls-14" points="128.91 88.68 136.18 88.68 132.88 83.69 125.61 83.69 128.91 88.68"/></svg>