<svg id="Layer_1" data-name="Layer 1" xmlns="http://www.w3.org/2000/svg" viewBox="0 0 230 120"><defs><style>.cls-1{fill:#44bb92;}.cls-2{fill:#fff;}.cls-3{fill:#2e2929;}.cls-4{fill:#ccc;}.cls-5{fill:#030202;}</style></defs><title>invoices</title><rect class="cls-1" width="230" height="120"/><path class="cls-2" d="M143.24,16v.2a2.47,2.47,0,1,1-4.94,0V16h-3.14v.2a2.48,2.48,0,0,1-2.47,2.47h0a2.47,2.47,0,0,1-2.46-2.47V16h-3.14v.2a2.47,2.47,0,0,1-4.94,0V16H119v.2a2.47,2.47,0,1,1-4.94,0V16h-3.14v.2a2.48,2.48,0,0,1-2.47,2.47h0A2.48,2.48,0,0,1,106,16.19V16h-3.14v.2a2.47,2.47,0,1,1-4.93,0V16H94.78v.2a2.47,2.47,0,0,1-4.94,0V16H85.46v86.28h62.16V16Z"/><rect class="cls-3" x="91.11" y="23.87" width="2.45" height="10.22"/><rect class="cls-3" x="95.8" y="23.87" width="2.44" height="10.22"/><rect class="cls-3" x="100.56" y="23.87" width="1.22" height="10.22"/><rect class="cls-3" x="104.03" y="23.87" width="1.22" height="10.22"/><rect class="cls-3" x="121" y="23.87" width="1.22" height="10.22"/><rect class="cls-3" x="124.47" y="23.87" width="1.22" height="10.22"/><rect class="cls-3" x="112.18" y="23.87" width="1.22" height="10.22"/><rect class="cls-3" x="107.5" y="23.87" width="2.45" height="10.22"/><rect class="cls-3" x="115.65" y="23.87" width="3.11" height="10.22"/><rect class="cls-3" x="140.74" y="23.87" width="1.22" height="10.22"/><rect class="cls-3" x="132.59" y="23.87" width="1.22" height="10.22"/><rect class="cls-3" x="136.05" y="23.87" width="2.45" height="10.22"/><rect class="cls-3" x="127.23" y="23.87" width="3.11" height="10.22"/><path class="cls-3" d="M106.44,98.25V94.68h-.73v-.4h1.91v.4h-.74v3.57Z"/><path class="cls-3" d="M108.54,96.46v1.79h-.45v-4h.45v1.79h1V94.28H110v4h-.45V96.46Z"/><path class="cls-3" d="M111,97.45l-.15.8h-.41l.76-4h.64l.76,4h-.44l-.15-.8Zm.06-.38H112l-.45-2.29Z"/><path class="cls-3" d="M113.54,98.25h-.4v-4h.57l.92,2.87V94.28H115v4h-.46l-1-3.21Z"/><path class="cls-3" d="M116.32,96.53l-.23.39v1.33h-.45v-4h.45V96.2l1-1.92h.45l-1,1.81,1,2.16h-.45Z"/><path class="cls-3" d="M119.89,96.83l-.84-2.55h.46l.62,2,.62-2h.42l-.84,2.55v1.42h-.44Z"/><path class="cls-3" d="M121.54,95.24c0-.61.3-1,.91-1s.92.39.92,1v2.05a.88.88,0,0,1-.92,1c-.61,0-.91-.4-.91-1Zm.44,2.08c0,.36.15.57.47.57s.47-.21.47-.57V95.21c0-.35-.14-.57-.47-.57s-.47.22-.47.57Z"/><path class="cls-3" d="M124.38,97.32c0,.35.14.57.46.57s.46-.22.46-.57v-3h.42v3c0,.6-.28,1-.89,1s-.89-.41-.89-1v-3h.44Z"/><path class="cls-3" d="M126.93,96.15V94.28h.44v1.87l-.06,1.22H127Zm.43,1.55v.55h-.43V97.7Z"/><path class="cls-3" d="M92.15,89.5V84.44h-1v-.57h2.71v.57h-1V89.5Z"/><path class="cls-3" d="M94.32,85.23c0-.86.43-1.42,1.29-1.42s1.3.56,1.3,1.42v2.91a1.24,1.24,0,0,1-1.3,1.42c-.86,0-1.29-.57-1.29-1.42Zm.62,2.94c0,.52.22.82.67.82s.67-.3.67-.82v-3c0-.51-.21-.82-.67-.82s-.67.31-.67.82Z"/><path class="cls-3" d="M98.44,89.5V84.44h-1v-.57h2.7v.57h-1V89.5Z"/><path class="cls-3" d="M101,88.37l-.21,1.13h-.58l1.08-5.63h.91l1.07,5.63h-.62l-.22-1.13Zm.09-.54h1.25l-.64-3.25Z"/><path class="cls-3" d="M103.88,89.5V83.87h.62v5.06h1.61v.57Z"/><rect class="cls-3" x="91.11" y="48.08" width="50.85" height="1.17"/><rect class="cls-4" x="131.88" y="53.46" width="10.08" height="1.17"/><rect class="cls-4" x="103.22" y="53.46" width="24.82" height="1.17"/><rect class="cls-4" x="131.88" y="57.7" width="10.08" height="1.17"/><rect class="cls-4" x="103.22" y="57.7" width="24.82" height="1.17"/><rect class="cls-4" x="131.88" y="61.95" width="10.08" height="1.17"/><rect class="cls-4" x="103.22" y="61.95" width="24.82" height="1.17"/><rect class="cls-4" x="131.88" y="66.2" width="10.08" height="1.17"/><rect class="cls-4" x="103.22" y="66.2" width="24.82" height="1.17"/><rect class="cls-4" x="131.88" y="70.44" width="10.08" height="1.17"/><rect class="cls-4" x="103.22" y="70.44" width="24.82" height="1.17"/><rect class="cls-4" x="131.88" y="74.69" width="10.08" height="1.17"/><rect class="cls-4" x="114.52" y="74.69" width="13.52" height="1.17"/><rect class="cls-3" x="91.11" y="79.8" width="50.85" height="1.17"/><rect class="cls-3" x="109.09" y="88.33" width="32.88" height="1.17"/><path class="cls-5" d="M99.38,44.09V37.67h1.06v6.42Z"/><path class="cls-5" d="M101.47,44.09V37.67h1L104.66,42V37.67h1v6.42h-1.07l-2.12-4.19v4.19Z"/><path class="cls-5" d="M108.11,44.09l-1.88-6.42h1.15l1.33,4.75L110,37.67h1.13l-1.89,6.42Z"/><path class="cls-5" d="M111.45,40.92a4.47,4.47,0,0,1,.34-1.89,2.63,2.63,0,0,1,.88-1.11,2.38,2.38,0,0,1,1.33-.36,2.28,2.28,0,0,1,1.84.86,3.81,3.81,0,0,1,.71,2.46,3.86,3.86,0,0,1-.75,2.52,2.43,2.43,0,0,1-3.6,0A3.77,3.77,0,0,1,111.45,40.92Zm1.09-.05a2.76,2.76,0,0,0,.42,1.67,1.29,1.29,0,0,0,1.05.55,1.26,1.26,0,0,0,1-.55,2.86,2.86,0,0,0,.41-1.69,2.82,2.82,0,0,0-.4-1.65,1.31,1.31,0,0,0-2.11,0A2.76,2.76,0,0,0,112.54,40.87Z"/><path class="cls-5" d="M117.35,44.09V37.67h1.06v6.42Z"/><path class="cls-5" d="M122.8,41.73l1,.4a2.92,2.92,0,0,1-.8,1.57,2.15,2.15,0,0,1-3-.3,3.82,3.82,0,0,1-.74-2.46,4,4,0,0,1,.74-2.57,2.1,2.1,0,0,1,1.73-.81,2,2,0,0,1,1.49.61,2.61,2.61,0,0,1,.62,1.27l-1,.31a1.41,1.41,0,0,0-.4-.8,1,1,0,0,0-.71-.28,1.12,1.12,0,0,0-1,.51,2.84,2.84,0,0,0-.37,1.67,3.12,3.12,0,0,0,.36,1.73,1.09,1.09,0,0,0,.93.51,1,1,0,0,0,.73-.33A2.06,2.06,0,0,0,122.8,41.73Z"/><path class="cls-5" d="M124.74,44.09V37.67h3.9v1.09H125.8v1.42h2.64v1.08H125.8V43h2.94v1.09Z"/><path class="cls-5" d="M129.37,42l1-.12c.12.82.5,1.23,1.15,1.23a1.09,1.09,0,0,0,.76-.25.81.81,0,0,0,.27-.62.64.64,0,0,0-.39-.63c-.13-.06-.44-.17-.95-.33a3.09,3.09,0,0,1-1-.44,1.65,1.65,0,0,1-.5-.63,1.89,1.89,0,0,1-.19-.85,1.85,1.85,0,0,1,.24-.94,1.54,1.54,0,0,1,.66-.63,2.15,2.15,0,0,1,1-.22,1.82,1.82,0,0,1,2,1.94l-1.06.06a1.21,1.21,0,0,0-.3-.72,1,1,0,0,0-.66-.21,1,1,0,0,0-.66.18.53.53,0,0,0-.23.45.56.56,0,0,0,.21.44,2.9,2.9,0,0,0,1,.39,4.11,4.11,0,0,1,1.16.49,1.68,1.68,0,0,1,.55.66,2.42,2.42,0,0,1,.18,1,2,2,0,0,1-.51,1.41,2.06,2.06,0,0,1-1.61.57C130.23,44.2,129.51,43.46,129.37,42Z"/></svg>