<svg id="Layer_1" data-name="Layer 1" xmlns="http://www.w3.org/2000/svg" viewBox="0 0 230 120"><defs><style>.cls-1{fill:#ed5e52;}.cls-2{fill:#efc81e;}.cls-3{fill:#c4c4c3;}.cls-4{fill:#d8d8d8;}.cls-5{fill:#f7ca94;}.cls-6{fill:#f9d19b;}.cls-7{fill:#fff;}.cls-8{fill:#eaba86;}.cls-9{fill:#ffe1ab;}.cls-10{fill:#4a494a;}.cls-11{fill:#353535;}.cls-12{fill:#aa2223;}.cls-13{fill:#1b1b1b;}.cls-14{fill:#efb678;}.cls-15{fill:#f7f7f7;}.cls-16{fill:#4c4c4d;}.cls-17{fill:#895d5c;}.cls-18{fill:#e5e5e5;}.cls-19{fill:#6d4645;}</style></defs><title>job-stats</title><rect class="cls-1" width="230" height="120"/><circle class="cls-2" cx="65.56" cy="41.34" r="27.56"/><rect class="cls-3" x="57.31" y="50.45" width="16.56" height="4.49"/><path class="cls-4" d="M59.6,62.2l1.21,6.14a27.84,27.84,0,0,0,9.52,0l1.21-6.17-6-5.59Z"/><rect class="cls-5" x="58.08" y="43.41" width="14.98" height="16.14"/><path class="cls-6" d="M55.73,36.34c.42,2,.07,3.7-.78,3.88S53.07,39,52.65,37s-.07-3.7.79-3.88S55.31,34.38,55.73,36.34Z"/><path class="cls-6" d="M75.42,36.34c-.41,2-.06,3.7.79,3.88S78.09,39,78.51,37s.07-3.7-.79-3.88S75.84,34.38,75.42,36.34Z"/><polygon class="cls-7" points="57.3 50.45 65.58 56.58 59.56 62.24 57.3 50.45"/><polygon class="cls-7" points="73.87 50.45 65.58 56.58 71.61 62.24 73.87 50.45"/><path class="cls-8" d="M73.06,43.41h-15v4.81c3.41,4.6,7.5,5.23,7.5,5.23s4.07-.63,7.48-5.18Z"/><path class="cls-9" d="M65.58,18.08c-14,0-11.95,13.49-11.95,13.49.85,18.31,11.95,20,11.95,20s11.11-1.7,12-20C77.54,31.57,79.61,18.08,65.58,18.08Z"/><path class="cls-10" d="M75.05,26.94c.7,1.17,1.43,3.71.16,8.83l1.91-.25s2.15-6.55.64-10.4A15.49,15.49,0,0,1,75.05,26.94Z"/><path class="cls-11" d="M44.43,59.12a27,27,0,0,0,13.78,8.66L52.82,53.59l-7.63,3Z"/><path class="cls-12" d="M63.42,68.66c.71,0,1.42.09,2.14.09s1.44,0,2.15-.09L67.32,59h-3.5Z"/><path class="cls-11" d="M72.91,67.79A27.14,27.14,0,0,0,86.7,59.12l-.77-2.54-7.62-3Z"/><path class="cls-13" d="M57.31,50.45l-4.49,3.14v8.65l3.09-.35L53.2,65,54,66.31a27.31,27.31,0,0,0,6.78,2Z"/><path class="cls-13" d="M70.33,68.34a28.32,28.32,0,0,0,6.78-2L77.94,65l-2.71-3.09,3.09.35V53.59l-4.49-3.14Z"/><polygon class="cls-1" points="61.79 60.14 65.57 63.92 69.38 60.14 65.58 56.58 61.79 60.14"/><path class="cls-11" d="M55.64,21.45h-.1c-1-.56-1.23-3-1.23-3a3.62,3.62,0,0,0,.17,4.49c-.72-.1-1.61-1.9-1.61-1.9a3.67,3.67,0,0,0,.87,3.32C51.52,28,54,35.52,54,35.52l1.91.25c-2-8,.94-9.72.94-9.72,14,7.25,21.91-1.87,21.91-1.87C68.35,10.48,57.12,20.1,55.64,21.45Z"/><path class="cls-13" d="M76.45,32.25c-5.2-.84-7.29-.31-7.29-.31a10.92,10.92,0,0,1-7.14,0s-2.08-.53-7.22.29h0l-1.56.21.21,1,1.28.29s.59.13.66.58a6,6,0,0,0,1,3.74c1.31,1.58,4.33,1.42,5.95.56A5.56,5.56,0,0,0,64.71,35s.15-.9.88-.9.87.9.87.9a5.56,5.56,0,0,0,2.42,3.62c1.62.86,4.64,1,6-.56a6,6,0,0,0,1-3.74c.07-.45.67-.58.67-.58l1.19-.18.26-1.21Zm-13.58,5.1a3.81,3.81,0,0,1-2.72,1.37s-2.41.41-3.33-1.2a5.56,5.56,0,0,1-.2-4.24s.18-.88,3.53-.93c0,0,3.39.07,3.66,1.54A4.91,4.91,0,0,1,62.87,37.35Zm11.48.17c-.92,1.61-3.33,1.2-3.33,1.2a3.81,3.81,0,0,1-2.72-1.37,4.91,4.91,0,0,1-.94-3.46c.27-1.47,3.66-1.54,3.66-1.54,3.35,0,3.53.93,3.53.93A5.56,5.56,0,0,1,74.35,37.52Z"/><path class="cls-14" d="M67.67,45.61H63.46a.6.6,0,0,1-.6-.6.59.59,0,0,1,.6-.59h4.21a.59.59,0,0,1,.6.59A.6.6,0,0,1,67.67,45.61Z"/><path class="cls-8" d="M65.6,51.61s-4.1-.63-7.5-5.23v1.84c3.4,4.6,7.5,5.23,7.5,5.23s4.07-.63,7.47-5.18V46.42C69.67,51,65.6,51.61,65.6,51.61Z"/><rect class="cls-15" x="87.34" y="36.41" width="54.01" height="42.84"/><path class="cls-16" d="M142.11,83.9H86.59a2.33,2.33,0,1,1,0-4.65h55.52a2.33,2.33,0,0,1,0,4.65Z"/><path class="cls-17" d="M102.12,83.9l-9,13.6a3,3,0,0,0,5,3.35L109.39,83.9Z"/><path class="cls-17" d="M126.58,83.9h-7.27l11.21,16.95a3,3,0,0,0,2.53,1.35,3,3,0,0,0,1.67-.5,3,3,0,0,0,.86-4.2Z"/><polygon class="cls-1" points="136.51 47.34 123.74 50.76 127.08 54.1 115.38 65.8 103.85 54.27 91.53 66.6 94.2 69.28 103.85 59.63 115.38 71.16 129.76 56.77 133.09 60.11 136.51 47.34"/><path class="cls-16" d="M142.11,36.41H86.59a2.33,2.33,0,0,1,0-4.66h55.52a2.33,2.33,0,0,1,0,4.66Z"/><rect class="cls-18" x="87.34" y="36.41" width="54.01" height="3.95"/><polygon class="cls-19" points="106.22 88.68 109.53 83.69 102.26 83.69 98.95 88.68 106.22 88.68"/><polygon class="cls-19" points="122.47 88.68 129.74 88.68 126.44 83.69 119.17 83.69 122.47 88.68"/></svg>