<svg xmlns="http://www.w3.org/2000/svg" viewBox="0 0 230 120"><defs><style>.cls-1{fill:#59b0e1;}.cls-2{fill:#ed5e52;}.cls-3{fill:#d3d3d3;}.cls-4{fill:#f8961d;}.cls-5{fill:#ffd835;}.cls-6{fill:#1e3d6b;}</style></defs><title>Tiles</title><g id="Tiles"><g id="Background"><rect class="cls-1" width="230" height="120"/></g><g id="Tiles-2" data-name="Tiles"><polygon class="cls-2" points="78.5 25 51 25 51 57 78.5 57 112 57 112 25 78.5 25"/><rect class="cls-3" x="57.06" y="41" width="18.44" height="3.13"/><rect class="cls-3" x="57.06" y="48.34" width="28.44" height="3.13"/><path class="cls-3" d="M103.08,46.13a1.67,1.67,0,1,1,0,3.34H97.17a1.67,1.67,0,1,1,0-3.34h5.91m0-2H97.17a3.67,3.67,0,0,0,0,7.34h5.91a3.67,3.67,0,1,0,0-7.34Z"/><polygon class="cls-4" points="78.5 63 76.5 63 51 63 51 95 76.5 95 78.5 95 112 95 112 63 78.5 63"/><rect class="cls-3" x="57.06" y="86.34" width="18.44" height="3.13"/><rect class="cls-5" x="118" y="63" width="27.5" height="32"/><rect class="cls-3" x="124.06" y="86.34" width="16.27" height="3.13"/><rect class="cls-6" x="151.5" y="63" width="27.5" height="32"/><rect class="cls-3" x="157.56" y="86.34" width="16.27" height="3.13"/><rect class="cls-5" x="151.5" y="25" width="27.5" height="32"/><rect class="cls-3" x="157.56" y="48.34" width="16.27" height="3.13"/><rect class="cls-5" x="118" y="25" width="27.5" height="32"/><rect class="cls-3" x="124.06" y="48.34" width="16.27" height="3.13"/></g></g></svg>