<svg xmlns="http://www.w3.org/2000/svg" viewBox="0 0 230 120"><defs><style>.cls-1{isolation:isolate;}.cls-2{fill:#1e3d6b;}.cls-3{fill:#035968;mix-blend-mode:color-burn;}.cls-4{fill:#fdd327;}.cls-5{fill:#4c4c4d;}.cls-6{mix-blend-mode:multiply;}.cls-7{fill:#e6ac23;}.cls-8{fill:#f7f7f7;}.cls-9{fill:#69cce8;}.cls-10{fill:#ed5e52;}.cls-11{fill:#e2e2e2;}</style></defs><title>transactions</title><g class="cls-1"><g id="Layer_1" data-name="Layer 1"><rect class="cls-2" width="230" height="120"/><path class="cls-3" d="M152.35,41.88a3.57,3.57,0,0,0-1.18-2.49,3.54,3.54,0,0,0-2.41-1h-8L134.38,20l-.06-.17v0a3.62,3.62,0,0,0-4.51-2.08h0L62.63,40.93h0a3.62,3.62,0,0,0-1.93,1.63h0s0,0,0,0h0a3.66,3.66,0,0,0-.45,1.4v.11a4.42,4.42,0,0,0,0,.63,3,3,0,0,0,.14.59.86.86,0,0,0,0,.17L74,85a3.53,3.53,0,0,0,2,2.11v0l.11,0a.05.05,0,0,0,0,0h0a3.65,3.65,0,0,0,1.43.24h71.15a3.11,3.11,0,0,0,.69-.07,3.47,3.47,0,0,0,.46-.13.85.85,0,0,0,.17-.06,3.66,3.66,0,0,0,.56-.28h0a3.61,3.61,0,0,0,1.71-3v-42Z"/><path class="cls-4" d="M151,40.51A3.57,3.57,0,0,0,149.8,38a3.54,3.54,0,0,0-2.41-1H76.33A3.58,3.58,0,0,0,74,38h0l0,0,0,0h0a3.77,3.77,0,0,0-.87,1.18.36.36,0,0,0,0,.11,4.14,4.14,0,0,0-.21.59,4.07,4.07,0,0,0-.06.61h0a1,1,0,0,0,0,.17V82.46a3.58,3.58,0,0,0,1.21,2.65h0l.09.08,0,0h0a3.59,3.59,0,0,0,2.29.85h71.06a3.11,3.11,0,0,0,.69-.07,3.47,3.47,0,0,0,.46-.13.85.85,0,0,0,.17-.06,3.66,3.66,0,0,0,.56-.28h0A3.61,3.61,0,0,0,151,82.46v-42Z"/><rect class="cls-5" x="72.72" y="67.26" width="78.28" height="10.15"/><g class="cls-6"><path class="cls-7" d="M150.06,56.92l-6.85-19.85H76.33A3.58,3.58,0,0,0,74,38h0l0,0,0,0h0a3.77,3.77,0,0,0-.87,1.18.36.36,0,0,0,0,.11,4.14,4.14,0,0,0-.21.59,4.07,4.07,0,0,0-.06.61,1,1,0,0,0,0,.17V82.46a3.58,3.58,0,0,0,1.21,2.65h0l.09.08,0,0h0a3.59,3.59,0,0,0,2.29.85H87.76l57.85-20a7.67,7.67,0,0,0,1.26-.58,6.38,6.38,0,0,0,.68-.47l.24-.18.44-.39.11-.06.6-.74A7.17,7.17,0,0,0,150.06,56.92Z"/></g><path class="cls-8" d="M132.94,18.45a3.57,3.57,0,0,0-1.92-2,3.63,3.63,0,0,0-2.6-.11h0L61.26,39.56h0a3.62,3.62,0,0,0-1.93,1.63h0s0,0,0,0h0a3.66,3.66,0,0,0-.45,1.4v.11a4.42,4.42,0,0,0,0,.63A3.16,3.16,0,0,0,59,44h0a.86.86,0,0,0,0,.17L72.66,83.64a3.53,3.53,0,0,0,2,2.11v0l.11,0,0,0h0a3.52,3.52,0,0,0,2.44.07l67.17-23.2a3.6,3.6,0,0,0,.63-.29,3.48,3.48,0,0,0,.39-.28l.15-.11a3.64,3.64,0,0,0,.43-.45h0a3.61,3.61,0,0,0,.62-3.45L133,18.6l-.06-.17Z"/><path class="cls-4" d="M131,33a1.79,1.79,0,0,1-1.11,2.29l-11.37,3.93a1.81,1.81,0,0,1-2.29-1.12l-2.75-8a1.81,1.81,0,0,1,1.12-2.29L126,24a1.79,1.79,0,0,1,2.29,1.11Z"/><path class="cls-9" d="M94.85,43.17a8,8,0,1,1-10.18-5A8,8,0,0,1,94.85,43.17Z"/><path class="cls-10" d="M77,49.33a10,10,0,0,1,.44-7.6,7.87,7.87,0,0,0-3.86.31,8,8,0,0,0,5.23,15.13A7.83,7.83,0,0,0,82,55,9.92,9.92,0,0,1,77,49.33Z"/><rect class="cls-11" x="76.37" y="70.88" width="11.87" height="5.52" transform="translate(-19.52 30.88) rotate(-19.04)"/><rect class="cls-11" x="93.18" y="65.08" width="11.87" height="5.51" transform="translate(-16.71 36.07) rotate(-19.05)"/><rect class="cls-11" x="109.98" y="59.27" width="11.87" height="5.51" transform="translate(-13.9 41.25) rotate(-19.06)"/><rect class="cls-11" x="126.79" y="53.47" width="11.87" height="5.51" transform="translate(-11.08 46.42) rotate(-19.06)"/></g></g></svg>