<?xml version="1.0" encoding="UTF-8" standalone="no"?>
<svg
   xmlns:dc="http://purl.org/dc/elements/1.1/"
   xmlns:cc="http://creativecommons.org/ns#"
   xmlns:rdf="http://www.w3.org/1999/02/22-rdf-syntax-ns#"
   xmlns:svg="http://www.w3.org/2000/svg"
   xmlns="http://www.w3.org/2000/svg"
   version="1.1"
   id="svg2"
   xml:space="preserve"
   width="280"
   height="85.801407"
   viewBox="0 0 280 85.801408"><metadata
     id="metadata8"><rdf:RDF><cc:Work
         rdf:about=""><dc:format>image/svg+xml</dc:format><dc:type
           rdf:resource="http://purl.org/dc/dcmitype/StillImage" /><dc:title></dc:title></cc:Work></rdf:RDF></metadata><defs
     id="defs6"><clipPath
       clipPathUnits="userSpaceOnUse"
       id="clipPath18"><path
         d="M 0,792 H 612 V 0 H 0 Z"
         id="path16" /></clipPath></defs><g
     id="g10"
     transform="matrix(0.77777843,0,0,-0.77777843,-93.872723,366.49876)"><g
       id="g12"><g
         id="g14"
         clip-path="url(#clipPath18)"><g
           id="g20"
           transform="translate(310.2773,452.1206)"><path
             d="M 0,0 C -0.962,0.108 -2.821,0.238 -6.324,0.279 -9.773,0.238 -11.621,0.108 -12.58,0 c -0.664,-0.554 -1.445,-1.526 -2.204,-2.471 -0.513,-0.638 -1.053,-1.303 -1.631,-1.949 H 3.834 C 3.256,-3.773 2.715,-3.107 2.201,-2.468 1.444,-1.524 0.664,-0.554 0,0"
             style="fill:#edad09;fill-opacity:1;fill-rule:nonzero;stroke:none"
             id="path22" /></g><g
           id="g24"
           transform="translate(219.9624,429.6167)"><path
             d="m 0,0 c -16.778,0 -21.025,0.719 -22.367,3.328 -2.053,3.668 2.534,11.96 4.251,13.543 1.538,1.421 3.818,1.85 6.232,2.303 1.52,0.286 3.092,0.581 4.266,1.097 1.193,0.525 2.419,2.052 3.607,3.529 1.223,1.522 2.488,3.096 4.087,4.058 0.306,0.183 0.644,0.308 0.996,0.366 3.311,0.549 11.298,0.443 12.198,0.43 L 13.183,22.993 C 11.051,23.027 5.333,23.033 2.604,22.721 1.939,22.167 1.16,21.196 0.402,20.253 c -1.538,-1.913 -3.281,-4.082 -5.74,-5.165 -1.768,-0.777 -3.751,-1.15 -5.5,-1.479 -1.199,-0.225 -3.01,-0.566 -3.451,-0.909 C -15.096,11.924 -16.736,8.364 -17.16,6.434 -13.172,5.542 -0.249,5.64 6.251,5.688 8.092,5.703 9.793,5.716 11.255,5.716 V 0.053 C 9.806,0.053 8.118,0.041 6.294,0.026 4.021,0.01 1.927,0 0,0"
             style="fill:#154280;fill-opacity:1;fill-rule:nonzero;stroke:none"
             id="path26" /></g><g
           id="g28"
           transform="translate(257.5298,429.6167)"><path
             d="m 0,0 c -16.779,0 -21.026,0.718 -22.367,3.327 -2.053,3.668 2.534,11.961 4.25,13.544 1.54,1.421 3.82,1.85 6.233,2.303 1.52,0.286 3.092,0.581 4.267,1.098 1.191,0.523 2.417,2.05 3.603,3.526 1.224,1.523 2.491,3.098 4.092,4.06 0.305,0.183 0.642,0.308 0.993,0.366 3.308,0.549 11.299,0.444 12.197,0.43 L 13.181,22.993 C 11.051,23.026 5.331,23.032 2.603,22.721 1.939,22.167 1.158,21.195 0.399,20.251 -1.138,18.338 -2.88,16.17 -5.337,15.089 c -1.77,-0.778 -3.752,-1.151 -5.501,-1.48 -1.2,-0.225 -3.011,-0.566 -3.453,-0.91 -0.805,-0.775 -2.446,-4.335 -2.87,-6.265 3.988,-0.892 16.914,-0.794 23.412,-0.746 1.84,0.015 3.542,0.028 5.003,0.028 V 0.053 C 9.805,0.053 8.118,0.041 6.294,0.026 4.021,0.01 1.927,0 0,0"
             style="fill:#154280;fill-opacity:1;fill-rule:nonzero;stroke:none"
             id="path30" /></g><g
           id="g32"
           transform="translate(295.4932,449.6499)"><path
             d="m 0,0 c 0.759,0.945 1.54,1.917 2.204,2.471 0.96,0.108 2.807,0.238 6.256,0.279 3.503,-0.041 5.362,-0.171 6.324,-0.279 0.664,-0.554 1.445,-1.525 2.201,-2.468 0.514,-0.639 1.055,-1.306 1.633,-1.952 H -1.631 C -1.053,-1.304 -0.513,-0.639 0,0 m 35.503,-3.379 c -1.54,1.421 -3.818,1.85 -6.232,2.304 -1.522,0.285 -3.094,0.581 -4.268,1.098 -1.191,0.523 -2.417,2.05 -3.604,3.526 -1.224,1.524 -2.491,3.1 -4.092,4.06 C 17.002,7.793 16.666,7.916 16.314,7.975 14.812,8.225 12.265,8.368 8.46,8.411 4.723,8.368 2.176,8.225 0.674,7.975 0.323,7.916 -0.013,7.793 -0.317,7.61 -1.92,6.649 -3.188,5.072 -4.413,3.547 -5.6,2.072 -6.825,0.545 -8.014,0.023 c -1.175,-0.517 -2.747,-0.813 -4.268,-1.098 -2.413,-0.453 -4.692,-0.882 -6.234,-2.304 -1.726,-1.592 -6.356,-9.976 -4.212,-13.608 1.962,-3.488 10.312,-2.994 10.401,-2.989 l -0.404,5.648 c -2.016,-0.147 -3.831,0.159 -4.842,0.443 0.399,1.908 2.058,5.525 2.875,6.324 v -0.051 h 46.416 v 0.006 c 0.852,-0.9 2.483,-4.475 2.854,-6.335 -0.915,-0.26 -2.616,-0.522 -4.885,-0.385 l -0.343,-5.652 c 0.292,-0.018 0.814,-0.042 1.482,-0.042 2.627,0 7.461,0.381 8.907,3.066 2.099,3.651 -2.509,11.988 -4.23,13.575"
             style="fill:#154280;fill-opacity:1;fill-rule:nonzero;stroke:none"
             id="path34" /></g><g
           id="g36"
           transform="translate(398.7744,446.272)"><path
             d="M 0,0 C -1.541,1.42 -3.819,1.85 -6.233,2.303 -7.754,2.588 -9.325,2.884 -10.5,3.4 c -1.19,0.524 -2.418,2.05 -3.604,3.526 -1.225,1.525 -2.492,3.101 -4.093,4.061 l -0.461,0.277 -0.531,0.089 c -1.502,0.25 -4.05,0.393 -7.854,0.436 -3.736,-0.043 -6.283,-0.186 -7.786,-0.436 l -0.531,-0.089 -0.461,-0.277 C -37.423,10.027 -38.689,8.451 -39.914,6.926 -41.101,5.45 -42.327,3.924 -43.519,3.4 -44.692,2.884 -46.264,2.588 -47.785,2.303 -50.198,1.85 -52.477,1.42 -54.02,-0.001 c -1.725,-1.595 -6.363,-9.993 -4.204,-13.62 1.126,-1.976 4.551,-2.98 10.193,-2.984 l 15.505,0.003 h 16.845 l -5.655,5.663 h -15.919 v -10e-4 l -10.774,-0.003 c -2.346,0.002 -4.068,0.255 -5.036,0.488 0.418,1.927 2.066,5.506 2.874,6.283 0.441,0.344 2.253,0.685 3.451,0.91 1.751,0.329 3.732,0.701 5.503,1.48 2.457,1.081 4.199,3.249 5.736,5.162 0.759,0.944 1.539,1.914 2.202,2.469 0.96,0.108 2.808,0.238 6.256,0.279 3.503,-0.041 5.361,-0.171 6.324,-0.279 0.663,-0.555 1.444,-1.525 2.202,-2.469 1.537,-1.913 3.28,-4.081 5.736,-5.162 1.77,-0.779 3.752,-1.151 5.503,-1.48 1.198,-0.225 3.009,-0.566 3.435,-0.896 0.845,-0.812 2.567,-4.577 2.922,-6.458 -0.704,-0.147 -2.156,-0.325 -5.063,-0.327 l -9.608,0.01 0.007,-0.006 h -0.099 l 1.023,-1.024 v 0.099 l 11.395,-11.395 4.003,4.004 -2.782,2.781 c 3.289,0.273 5.356,1.042 6.305,2.949 C 6.286,-9.851 1.712,-1.582 0,0"
             style="fill:#154280;fill-opacity:1;fill-rule:nonzero;stroke:none"
             id="path38" /></g><g
           id="g40"
           transform="translate(403.0342,432.7466)"><path
             d="M 0,0 C -0.949,-1.906 -3.016,-2.675 -6.305,-2.948 L -3.522,-5.73 -7.525,-9.733 -18.921,1.662 v -0.1 l -1.022,1.024 h 0.098 l -0.007,0.007 9.608,-0.01 c 2.907,10e-4 4.359,0.179 5.063,0.326 -0.355,1.882 -2.077,5.647 -2.922,6.458 -0.425,0.331 -2.237,0.672 -3.435,0.897 -1.751,0.328 -3.733,0.701 -5.503,1.48 -2.456,1.08 -4.199,3.248 -5.735,5.162 -0.759,0.944 -1.539,1.914 -2.203,2.468 -0.962,0.108 -2.821,0.238 -6.324,0.279 -3.448,-0.041 -5.296,-0.171 -6.256,-0.279 -0.663,-0.554 -1.443,-1.524 -2.202,-2.468 -1.537,-1.914 -3.279,-4.082 -5.736,-5.162 -1.771,-0.779 -3.752,-1.152 -5.503,-1.48 -1.198,-0.225 -3.01,-0.566 -3.451,-0.91 -0.808,-0.778 -2.456,-4.357 -2.874,-6.284 0.969,-0.233 2.69,-0.486 5.036,-0.487 l 10.774,0.002 v 10e-4 h 15.919 l 5.656,-5.663 H -36.786 L -52.291,-3.08 c -5.642,0.005 -9.066,1.009 -10.192,2.985 -2.16,3.626 2.478,12.025 4.204,13.619 1.543,1.422 3.821,1.851 6.234,2.304 1.522,0.286 3.093,0.581 4.267,1.097 1.191,0.524 2.418,2.051 3.604,3.527 1.225,1.525 2.491,3.1 4.093,4.061 l 0.461,0.277 0.531,0.088 c 1.503,0.25 4.05,0.393 7.786,0.436 3.804,-0.043 6.352,-0.186 7.854,-0.436 l 0.531,-0.088 0.461,-0.277 c 1.602,-0.961 2.868,-2.536 4.093,-4.061 1.186,-1.476 2.414,-3.003 3.604,-3.527 1.175,-0.516 2.746,-0.811 4.267,-1.097 2.414,-0.453 4.692,-0.882 6.233,-2.303 C -2.548,11.943 2.026,3.675 0,0 m -67.808,-0.051 c -1.446,-2.684 -6.28,-3.065 -8.907,-3.065 -0.668,0 -1.19,0.024 -1.482,0.041 l 0.343,5.652 c 2.269,-0.137 3.97,0.126 4.885,0.385 -0.371,1.86 -2.002,5.435 -2.854,6.335 V 9.292 h -46.416 v 0.05 c -0.817,-0.799 -2.476,-4.415 -2.875,-6.323 1.01,-0.285 2.826,-0.591 4.842,-0.444 l 0.404,-5.647 c -0.089,-0.006 -8.439,-0.5 -10.401,2.989 -2.144,3.631 2.486,12.015 4.212,13.607 1.542,1.423 3.821,1.851 6.234,2.304 1.521,0.286 3.093,0.581 4.268,1.098 1.189,0.523 2.414,2.049 3.601,3.524 1.225,1.525 2.493,3.102 4.096,4.064 0.304,0.182 0.64,0.305 0.991,0.364 1.502,0.25 4.049,0.393 7.786,0.436 3.805,-0.043 6.352,-0.186 7.854,-0.436 0.352,-0.059 0.688,-0.182 0.993,-0.365 1.601,-0.961 2.868,-2.536 4.092,-4.06 1.187,-1.476 2.413,-3.004 3.604,-3.527 1.174,-0.517 2.746,-0.813 4.267,-1.098 2.415,-0.454 4.693,-0.882 6.233,-2.304 1.721,-1.586 6.329,-9.924 4.23,-13.575 m -64.516,19.914 c -2.13,0.033 -7.849,0.039 -10.577,-0.272 -0.664,-0.554 -1.445,-1.526 -2.204,-2.47 -1.537,-1.913 -3.279,-4.081 -5.736,-5.162 -1.771,-0.778 -3.753,-1.151 -5.502,-1.48 -1.199,-0.225 -3.011,-0.565 -3.452,-0.91 -0.806,-0.775 -2.446,-4.335 -2.871,-6.265 3.988,-0.892 16.915,-0.794 23.413,-0.745 1.839,0.014 3.542,0.027 5.003,0.027 v -5.663 c -1.45,0 -3.136,-0.012 -4.96,-0.027 -2.273,-0.016 -4.367,-0.026 -6.294,-0.026 -16.779,0 -21.026,0.718 -22.368,3.327 -2.052,3.668 2.534,11.961 4.25,13.544 1.54,1.421 3.82,1.85 6.233,2.303 1.521,0.286 3.093,0.581 4.267,1.098 1.191,0.524 2.417,2.05 3.604,3.526 1.224,1.523 2.49,3.098 4.091,4.06 0.306,0.183 0.643,0.308 0.994,0.366 3.308,0.549 11.299,0.445 12.196,0.43 z m -37.565,0 c -2.132,0.034 -7.85,0.04 -10.579,-0.272 -0.664,-0.554 -1.444,-1.525 -2.202,-2.468 -1.538,-1.913 -3.281,-4.082 -5.74,-5.165 -1.768,-0.777 -3.751,-1.15 -5.5,-1.479 -1.198,-0.225 -3.009,-0.565 -3.45,-0.909 -0.807,-0.776 -2.448,-4.336 -2.872,-6.266 3.988,-0.892 16.912,-0.794 23.412,-0.745 1.84,0.014 3.541,0.027 5.004,0.027 v -5.663 c -1.45,0 -3.138,-0.012 -4.962,-0.027 -2.272,-0.016 -4.367,-0.026 -6.294,-0.026 -16.778,0 -21.025,0.719 -22.366,3.328 -2.054,3.668 2.534,11.96 4.25,13.543 1.539,1.421 3.818,1.85 6.232,2.303 1.52,0.286 3.092,0.581 4.267,1.098 1.192,0.524 2.418,2.051 3.606,3.528 1.224,1.522 2.488,3.096 4.087,4.058 0.306,0.183 0.644,0.308 0.996,0.366 3.311,0.549 11.298,0.443 12.198,0.43 z M 6.763,32.803 h -219.107 c -3.187,0 -5.779,-2.592 -5.779,-5.778 V -5.986 c 0,-3.187 2.592,-5.78 5.779,-5.78 H 6.763 c 3.187,0 5.781,2.593 5.781,5.78 v 33.011 c 0,3.186 -2.594,5.778 -5.781,5.778"
             style="fill:#edad09;fill-opacity:1;fill-rule:nonzero;stroke:none"
             id="path42" /></g><g
           id="g44"
           transform="translate(190.6899,465.5493)"><path
             d="m 0,0 c -3.187,0 -5.779,-2.592 -5.779,-5.777 v -33.012 c 0,-3.187 2.592,-5.78 5.779,-5.78 h 219.107 c 3.187,0 5.781,2.593 5.781,5.78 v 33.012 c 0,3.185 -2.594,5.777 -5.781,5.777 z M 219.107,-50.231 H 0 c -6.309,0 -11.441,5.133 -11.441,11.442 v 33.012 c 0,6.307 5.132,11.44 11.441,11.44 h 219.107 c 6.309,0 11.441,-5.133 11.441,-11.44 v -33.012 c 0,-6.309 -5.132,-11.442 -11.441,-11.442"
             style="fill:#154280;fill-opacity:1;fill-rule:nonzero;stroke:none"
             id="path46" /></g><g
           id="g48"
           transform="translate(120.6934,400.8823)"><path
             d="m 0,0 h 2.768 v -11.903 h 4.034 v -2.639 H 0 Z"
             style="fill:#154280;fill-opacity:1;fill-rule:nonzero;stroke:none"
             id="path50" /></g><g
           id="g52"
           transform="translate(134.4058,394.8809)"><path
             d="m 0,0 c -0.834,0 -1.527,-0.295 -2.079,-0.885 -0.552,-0.589 -0.828,-1.345 -0.828,-2.268 0,-0.929 0.281,-1.694 0.843,-2.294 0.561,-0.6 1.252,-0.9 2.074,-0.9 0.847,0 1.551,0.295 2.109,0.886 0.558,0.589 0.837,1.361 0.837,2.317 0,0.937 -0.279,1.694 -0.837,2.275 C 1.561,-0.289 0.854,0 0,0 M 2.837,2.215 H 5.536 V -8.541 H 2.837 v 1.137 C 2.311,-7.905 1.783,-8.266 1.252,-8.486 0.722,-8.708 0.148,-8.818 -0.471,-8.818 c -1.388,0 -2.59,0.539 -3.604,1.617 -1.014,1.076 -1.521,2.417 -1.521,4.018 0,1.661 0.491,3.022 1.472,4.083 0.981,1.061 2.172,1.592 3.574,1.592 0.646,0 1.251,-0.122 1.817,-0.366 0.566,-0.244 1.089,-0.61 1.57,-1.097 z"
             style="fill:#154280;fill-opacity:1;fill-rule:nonzero;stroke:none"
             id="path54" /></g><g
           id="g56"
           transform="translate(161.9985,398.3262)"><path
             d="m 0,0 -1.937,-1.846 c -1.316,1.393 -2.798,2.089 -4.444,2.089 -1.39,0 -2.56,-0.475 -3.512,-1.425 -0.951,-0.95 -1.427,-2.121 -1.427,-3.513 0,-0.97 0.211,-1.831 0.632,-2.583 0.421,-0.752 1.018,-1.343 1.788,-1.772 0.77,-0.429 1.627,-0.643 2.568,-0.643 0.804,0 1.538,0.15 2.203,0.45 0.665,0.301 1.396,0.847 2.192,1.639 l 1.877,-1.959 c -1.074,-1.048 -2.088,-1.776 -3.044,-2.181 -0.957,-0.405 -2.047,-0.609 -3.273,-0.609 -2.261,0 -4.111,0.717 -5.551,2.151 -1.44,1.433 -2.16,3.27 -2.16,5.512 0,1.45 0.328,2.738 0.983,3.865 0.656,1.127 1.596,2.033 2.818,2.719 1.223,0.685 2.539,1.028 3.95,1.028 1.199,0 2.354,-0.254 3.465,-0.76 C -1.762,1.655 -0.804,0.935 0,0"
             style="fill:#154280;fill-opacity:1;fill-rule:nonzero;stroke:none"
             id="path58" /></g><g
           id="g60"
           transform="translate(169.2207,394.832)"><path
             d="m 0,0 c -0.839,0 -1.537,-0.291 -2.095,-0.875 -0.557,-0.583 -0.837,-1.33 -0.837,-2.239 0,-0.937 0.276,-1.694 0.827,-2.275 0.551,-0.58 1.25,-0.869 2.094,-0.869 0.846,0 1.549,0.293 2.11,0.88 0.561,0.586 0.842,1.341 0.842,2.264 0,0.923 -0.276,1.672 -0.827,2.249 C 1.563,-0.288 0.858,0 0,0 M -0.045,2.541 C 0.97,2.541 1.924,2.287 2.817,1.779 3.71,1.272 4.407,0.583 4.908,-0.287 5.409,-1.157 5.66,-2.096 5.66,-3.104 5.66,-4.12 5.407,-5.068 4.903,-5.952 4.398,-6.835 3.712,-7.525 2.842,-8.022 1.972,-8.521 1.013,-8.77 -0.035,-8.77 c -1.542,0 -2.859,0.55 -3.95,1.646 -1.091,1.099 -1.636,2.431 -1.636,4 0,1.681 0.616,3.081 1.849,4.202 1.081,0.975 2.323,1.463 3.727,1.463"
             style="fill:#154280;fill-opacity:1;fill-rule:nonzero;stroke:none"
             id="path62" /></g><g
           id="g64"
           transform="translate(176.4521,397.0957)"><path
             d="m 0,0 h 2.313 v -1.354 c 0.25,0.534 0.583,0.939 0.999,1.216 0.415,0.277 0.87,0.415 1.364,0.415 C 5.025,0.277 5.391,0.185 5.773,0 L 4.933,-2.323 C 4.617,-2.165 4.357,-2.086 4.152,-2.086 3.737,-2.086 3.386,-2.343 3.1,-2.857 2.812,-3.371 2.669,-4.38 2.669,-5.882 l 0.01,-0.524 v -4.35 H 0 Z"
             style="fill:#154280;fill-opacity:1;fill-rule:nonzero;stroke:none"
             id="path66" /></g><g
           id="g68"
           transform="translate(189.0771,394.8809)"><path
             d="m 0,0 c -0.851,0 -1.555,-0.289 -2.116,-0.869 -0.56,-0.581 -0.84,-1.338 -0.84,-2.275 0,-0.956 0.28,-1.728 0.84,-2.317 0.561,-0.591 1.265,-0.886 2.116,-0.886 0.823,0 1.518,0.3 2.081,0.9 0.564,0.6 0.845,1.365 0.845,2.294 0,0.923 -0.277,1.679 -0.83,2.268 C 1.542,-0.295 0.843,0 0,0 M -2.837,2.215 V 1.029 c 0.487,0.487 1.015,0.853 1.581,1.097 0.567,0.244 1.173,0.366 1.819,0.366 1.404,0 2.597,-0.531 3.579,-1.592 0.982,-1.061 1.473,-2.422 1.473,-4.083 0,-1.601 -0.507,-2.942 -1.522,-4.018 -1.015,-1.078 -2.218,-1.617 -3.609,-1.617 -0.62,0 -1.196,0.11 -1.73,0.332 -0.534,0.22 -1.065,0.581 -1.591,1.082 v -5.072 h -2.68 V 2.215 Z"
             style="fill:#154280;fill-opacity:1;fill-rule:nonzero;stroke:none"
             id="path70" /></g><g
           id="g72"
           transform="translate(202.0234,394.832)"><path
             d="m 0,0 c -0.839,0 -1.537,-0.291 -2.095,-0.875 -0.557,-0.583 -0.837,-1.33 -0.837,-2.239 0,-0.937 0.276,-1.694 0.827,-2.275 0.551,-0.58 1.25,-0.869 2.094,-0.869 0.846,0 1.549,0.293 2.11,0.88 0.561,0.586 0.842,1.341 0.842,2.264 0,0.923 -0.276,1.672 -0.827,2.249 C 1.563,-0.288 0.858,0 0,0 M -0.045,2.541 C 0.971,2.541 1.924,2.287 2.817,1.779 3.71,1.272 4.407,0.583 4.908,-0.287 5.409,-1.157 5.66,-2.096 5.66,-3.104 5.66,-4.12 5.407,-5.068 4.903,-5.952 4.398,-6.835 3.712,-7.525 2.842,-8.022 1.972,-8.521 1.013,-8.77 -0.035,-8.77 c -1.542,0 -2.859,0.55 -3.95,1.646 -1.091,1.099 -1.636,2.431 -1.636,4 0,1.681 0.616,3.081 1.849,4.202 1.081,0.975 2.323,1.463 3.727,1.463"
             style="fill:#154280;fill-opacity:1;fill-rule:nonzero;stroke:none"
             id="path74" /></g><g
           id="g76"
           transform="translate(209.2549,397.0957)"><path
             d="m 0,0 h 2.313 v -1.354 c 0.25,0.534 0.583,0.939 0.999,1.216 0.415,0.277 0.87,0.415 1.364,0.415 C 5.025,0.277 5.391,0.185 5.773,0 L 4.934,-2.323 C 4.617,-2.165 4.357,-2.086 4.152,-2.086 3.737,-2.086 3.386,-2.343 3.1,-2.857 2.812,-3.371 2.669,-4.38 2.669,-5.882 l 0.01,-0.524 v -4.35 H 0 Z"
             style="fill:#154280;fill-opacity:1;fill-rule:nonzero;stroke:none"
             id="path78" /></g><g
           id="g80"
           transform="translate(221.4644,394.8809)"><path
             d="m 0,0 c -0.834,0 -1.527,-0.295 -2.079,-0.885 -0.551,-0.589 -0.827,-1.345 -0.827,-2.268 0,-0.929 0.28,-1.694 0.842,-2.294 0.562,-0.6 1.252,-0.9 2.074,-0.9 0.847,0 1.551,0.295 2.109,0.886 0.558,0.589 0.837,1.361 0.837,2.317 0,0.937 -0.279,1.694 -0.837,2.275 C 1.561,-0.289 0.854,0 0,0 m 2.837,2.215 h 2.7 V -8.541 h -2.7 v 1.137 C 2.311,-7.905 1.783,-8.266 1.252,-8.486 0.723,-8.708 0.148,-8.818 -0.471,-8.818 c -1.388,0 -2.59,0.539 -3.604,1.617 -1.014,1.076 -1.52,2.417 -1.52,4.018 0,1.661 0.49,3.022 1.471,4.083 0.981,1.061 2.172,1.592 3.574,1.592 0.646,0 1.251,-0.122 1.817,-0.366 0.566,-0.244 1.09,-0.61 1.57,-1.097 z"
             style="fill:#154280;fill-opacity:1;fill-rule:nonzero;stroke:none"
             id="path82" /></g><g
           id="g84"
           transform="translate(230.0557,401.0601)"><path
             d="M 0,0 H 2.699 V -3.964 H 4.301 V -6.288 H 2.699 V -14.72 H 0 v 8.432 h -1.384 v 2.324 H 0 Z"
             style="fill:#154280;fill-opacity:1;fill-rule:nonzero;stroke:none"
             id="path86" /></g><path
           d="m 235.503,397.096 h 2.699 V 386.34 h -2.699 z m 1.349,4.429 c 0.474,0 0.879,-0.171 1.218,-0.514 0.338,-0.343 0.508,-0.758 0.508,-1.246 0,-0.481 -0.168,-0.891 -0.503,-1.23 -0.335,-0.34 -0.736,-0.51 -1.203,-0.51 -0.479,0 -0.888,0.174 -1.227,0.519 -0.339,0.347 -0.508,0.767 -0.508,1.261 0,0.474 0.168,0.88 0.503,1.216 0.335,0.336 0.739,0.504 1.212,0.504"
           style="fill:#154280;fill-opacity:1;fill-rule:nonzero;stroke:none"
           id="path88" /><g
           id="g90"
           transform="translate(245.7505,394.832)"><path
             d="m 0,0 c -0.839,0 -1.537,-0.291 -2.095,-0.875 -0.557,-0.583 -0.837,-1.33 -0.837,-2.239 0,-0.937 0.276,-1.694 0.827,-2.275 0.551,-0.58 1.25,-0.869 2.095,-0.869 0.845,0 1.548,0.293 2.109,0.88 0.561,0.586 0.842,1.341 0.842,2.264 0,0.923 -0.276,1.672 -0.827,2.249 C 1.563,-0.288 0.858,0 0,0 M -0.045,2.541 C 0.97,2.541 1.924,2.287 2.817,1.779 3.71,1.272 4.407,0.583 4.908,-0.287 5.409,-1.157 5.66,-2.096 5.66,-3.104 5.66,-4.12 5.407,-5.068 4.904,-5.952 4.399,-6.835 3.712,-7.525 2.842,-8.022 1.972,-8.521 1.013,-8.77 -0.035,-8.77 c -1.542,0 -2.859,0.55 -3.95,1.646 -1.09,1.099 -1.636,2.431 -1.636,4 0,1.681 0.616,3.081 1.849,4.202 1.081,0.975 2.323,1.463 3.727,1.463"
             style="fill:#154280;fill-opacity:1;fill-rule:nonzero;stroke:none"
             id="path92" /></g><g
           id="g94"
           transform="translate(253.6147,397.0957)"><path
             d="m 0,0 h 2.699 v -1.103 c 0.612,0.517 1.167,0.876 1.663,1.077 0.497,0.202 1.006,0.303 1.526,0.303 1.066,0 1.971,-0.373 2.715,-1.117 0.625,-0.633 0.938,-1.569 0.938,-2.807 v -7.109 h -2.67 v 4.71 c 0,1.284 -0.058,2.137 -0.173,2.558 -0.115,0.422 -0.315,0.742 -0.601,0.963 -0.286,0.22 -0.64,0.331 -1.06,0.331 -0.546,0 -1.015,-0.183 -1.406,-0.549 C 3.24,-3.108 2.968,-3.613 2.818,-4.259 2.739,-4.595 2.699,-5.321 2.699,-6.441 v -4.315 H 0 Z"
             style="fill:#154280;fill-opacity:1;fill-rule:nonzero;stroke:none"
             id="path96" /></g><g
           id="g98"
           transform="translate(276.5312,394.8809)"><path
             d="m 0,0 c -0.834,0 -1.527,-0.295 -2.079,-0.885 -0.551,-0.589 -0.828,-1.345 -0.828,-2.268 0,-0.929 0.281,-1.694 0.843,-2.294 0.561,-0.6 1.252,-0.9 2.074,-0.9 0.847,0 1.551,0.295 2.109,0.886 0.558,0.589 0.837,1.361 0.837,2.317 0,0.937 -0.279,1.694 -0.837,2.275 C 1.561,-0.289 0.854,0 0,0 m 2.837,6.367 h 2.7 V -8.541 h -2.7 v 1.137 C 2.311,-7.905 1.783,-8.266 1.252,-8.486 0.722,-8.708 0.148,-8.818 -0.471,-8.818 c -1.388,0 -2.59,0.539 -3.604,1.617 -1.014,1.076 -1.521,2.417 -1.521,4.018 0,1.661 0.491,3.022 1.472,4.083 0.981,1.061 2.172,1.592 3.574,1.592 0.646,0 1.251,-0.122 1.817,-0.366 0.566,-0.244 1.09,-0.61 1.57,-1.097 z"
             style="fill:#154280;fill-opacity:1;fill-rule:nonzero;stroke:none"
             id="path100" /></g><g
           id="g102"
           transform="translate(292.873,393.0625)"><path
             d="M 0,0 C -0.178,0.6 -0.53,1.087 -1.055,1.463 -1.579,1.839 -2.188,2.026 -2.881,2.026 -3.634,2.026 -4.294,1.815 -4.862,1.394 -5.219,1.13 -5.549,0.665 -5.853,0 Z m 2.699,-2.126 h -8.67 c 0.125,-0.764 0.46,-1.372 1.003,-1.824 0.545,-0.451 1.238,-0.677 2.081,-0.677 1.009,0 1.876,0.353 2.6,1.058 L 1.987,-4.637 C 1.421,-5.44 0.742,-6.035 -0.049,-6.422 -0.84,-6.807 -1.779,-7 -2.867,-7 c -1.687,0 -3.062,0.532 -4.122,1.598 -1.061,1.063 -1.592,2.396 -1.592,3.998 0,1.641 0.528,3.004 1.587,4.088 1.057,1.084 2.384,1.626 3.979,1.626 1.694,0 3.072,-0.542 4.132,-1.626 C 2.178,1.6 2.709,0.168 2.709,-1.611 Z"
             style="fill:#154280;fill-opacity:1;fill-rule:nonzero;stroke:none"
             id="path104" /></g><g
           id="g106"
           transform="translate(304.3413,395.5933)"><path
             d="m 0,0 -1.67,-1.671 c -0.68,0.672 -1.296,1.008 -1.85,1.008 -0.303,0 -0.54,-0.064 -0.711,-0.192 -0.171,-0.129 -0.257,-0.289 -0.257,-0.479 0,-0.146 0.054,-0.279 0.162,-0.402 0.11,-0.121 0.379,-0.288 0.806,-0.499 l 0.989,-0.494 c 1.041,-0.514 1.757,-1.038 2.145,-1.571 0.389,-0.534 0.584,-1.16 0.584,-1.879 0,-0.956 -0.351,-1.753 -1.052,-2.393 -0.704,-0.639 -1.644,-0.959 -2.824,-0.959 -1.569,0 -2.82,0.614 -3.757,1.839 l 1.662,1.81 c 0.316,-0.369 0.687,-0.667 1.111,-0.896 0.426,-0.226 0.804,-0.341 1.133,-0.341 0.356,0 0.642,0.086 0.86,0.258 0.217,0.171 0.326,0.368 0.326,0.593 0,0.415 -0.392,0.82 -1.177,1.216 l -0.909,0.455 c -1.74,0.877 -2.61,1.974 -2.61,3.292 0,0.85 0.328,1.577 0.984,2.18 0.656,0.604 1.494,0.904 2.516,0.904 0.699,0 1.356,-0.153 1.973,-0.459 C -0.951,1.013 -0.429,0.573 0,0"
             style="fill:#154280;fill-opacity:1;fill-rule:nonzero;stroke:none"
             id="path108" /></g><g
           id="g110"
           transform="translate(322.8574,394.9209)"><path
             d="m 0,0 -2.245,-1.235 c -0.423,0.441 -0.841,0.748 -1.253,0.919 -0.412,0.17 -0.896,0.256 -1.451,0.256 -1.008,0 -1.825,-0.3 -2.448,-0.903 -0.624,-0.601 -0.936,-1.373 -0.936,-2.314 0,-0.914 0.3,-1.662 0.9,-2.241 0.601,-0.579 1.389,-0.869 2.366,-0.869 1.207,0 2.149,0.412 2.822,1.237 l 2.127,-1.458 c -1.153,-1.5 -2.78,-2.25 -4.883,-2.25 -1.892,0 -3.373,0.56 -4.444,1.68 -1.071,1.12 -1.606,2.433 -1.606,3.935 0,1.042 0.258,2.001 0.78,2.877 0.522,0.877 1.248,1.565 2.18,2.066 0.934,0.502 1.976,0.752 3.13,0.752 1.067,0 2.025,-0.213 2.876,-0.638 C -1.234,1.389 -0.54,0.784 0,0"
             style="fill:#154280;fill-opacity:1;fill-rule:nonzero;stroke:none"
             id="path112" /></g><g
           id="g114"
           transform="translate(330.3867,394.832)"><path
             d="m 0,0 c -0.838,0 -1.536,-0.291 -2.095,-0.875 -0.557,-0.583 -0.837,-1.33 -0.837,-2.239 0,-0.937 0.276,-1.694 0.827,-2.275 0.552,-0.58 1.251,-0.869 2.095,-0.869 0.846,0 1.549,0.293 2.109,0.88 0.562,0.586 0.842,1.341 0.842,2.264 0,0.923 -0.277,1.672 -0.827,2.249 C 1.563,-0.288 0.857,0 0,0 m -0.044,2.541 c 1.014,0 1.97,-0.254 2.86,-0.762 0.895,-0.507 1.591,-1.196 2.093,-2.066 0.501,-0.87 0.752,-1.809 0.752,-2.817 0,-1.016 -0.253,-1.964 -0.758,-2.848 -0.505,-0.883 -1.19,-1.573 -2.06,-2.07 -0.87,-0.499 -1.83,-0.748 -2.876,-0.748 -1.543,0 -2.86,0.55 -3.952,1.646 -1.089,1.099 -1.635,2.431 -1.635,4 0,1.681 0.616,3.081 1.848,4.202 1.082,0.975 2.324,1.463 3.728,1.463"
             style="fill:#154280;fill-opacity:1;fill-rule:nonzero;stroke:none"
             id="path116" /></g><g
           id="g118"
           transform="translate(338.252,397.0957)"><path
             d="m 0,0 h 2.699 v -1.103 c 0.612,0.517 1.165,0.876 1.662,1.077 0.498,0.202 1.006,0.303 1.527,0.303 1.065,0 1.97,-0.373 2.715,-1.117 0.625,-0.633 0.938,-1.569 0.938,-2.807 v -7.109 H 6.87 v 4.71 c 0,1.284 -0.058,2.137 -0.172,2.558 -0.114,0.422 -0.315,0.742 -0.601,0.963 -0.285,0.22 -0.64,0.331 -1.062,0.331 -0.544,0 -1.013,-0.183 -1.405,-0.549 C 3.239,-3.108 2.967,-3.613 2.818,-4.259 2.739,-4.595 2.699,-5.321 2.699,-6.441 v -4.315 H 0 Z"
             style="fill:#154280;fill-opacity:1;fill-rule:nonzero;stroke:none"
             id="path120" /></g><g
           id="g122"
           transform="translate(360.9307,394.9209)"><path
             d="m 0,0 -2.246,-1.235 c -0.423,0.441 -0.842,0.748 -1.252,0.919 -0.414,0.17 -0.898,0.256 -1.451,0.256 -1.01,0 -1.825,-0.3 -2.449,-0.903 -0.623,-0.601 -0.937,-1.373 -0.937,-2.314 0,-0.914 0.301,-1.662 0.9,-2.241 0.603,-0.579 1.391,-0.869 2.367,-0.869 1.208,0 2.148,0.412 2.822,1.237 l 2.127,-1.458 c -1.152,-1.5 -2.78,-2.25 -4.884,-2.25 -1.891,0 -3.371,0.56 -4.442,1.68 -1.073,1.12 -1.608,2.433 -1.608,3.935 0,1.042 0.26,2.001 0.781,2.877 0.521,0.877 1.247,1.565 2.18,2.066 0.933,0.502 1.975,0.752 3.129,0.752 1.067,0 2.027,-0.213 2.876,-0.638 C -1.235,1.389 -0.541,0.784 0,0"
             style="fill:#154280;fill-opacity:1;fill-rule:nonzero;stroke:none"
             id="path124" /></g><g
           id="g126"
           transform="translate(371.4404,393.0625)"><path
             d="M 0,0 C -0.18,0.6 -0.53,1.087 -1.056,1.463 -1.58,1.839 -2.19,2.026 -2.882,2.026 -3.635,2.026 -4.295,1.815 -4.864,1.394 -5.22,1.13 -5.55,0.665 -5.853,0 Z m 2.698,-2.126 h -8.669 c 0.124,-0.764 0.459,-1.372 1.002,-1.824 0.544,-0.451 1.239,-0.677 2.082,-0.677 1.007,0 1.874,0.353 2.6,1.058 L 1.986,-4.637 C 1.421,-5.44 0.741,-6.035 -0.05,-6.422 -0.841,-6.807 -1.779,-7 -2.868,-7 c -1.687,0 -3.061,0.532 -4.122,1.598 -1.062,1.063 -1.591,2.396 -1.591,3.998 0,1.641 0.527,3.004 1.586,4.088 1.058,1.084 2.384,1.626 3.979,1.626 1.693,0 3.071,-0.542 4.132,-1.626 C 2.178,1.6 2.707,0.168 2.707,-1.611 Z"
             style="fill:#154280;fill-opacity:1;fill-rule:nonzero;stroke:none"
             id="path128" /></g><g
           id="g130"
           transform="translate(382.9082,395.5933)"><path
             d="m 0,0 -1.671,-1.671 c -0.68,0.672 -1.295,1.008 -1.848,1.008 -0.304,0 -0.542,-0.064 -0.711,-0.192 -0.172,-0.129 -0.259,-0.289 -0.259,-0.479 0,-0.146 0.054,-0.279 0.164,-0.402 0.109,-0.121 0.377,-0.288 0.806,-0.499 l 0.989,-0.494 c 1.04,-0.514 1.755,-1.038 2.144,-1.571 0.39,-0.534 0.584,-1.16 0.584,-1.879 0,-0.956 -0.352,-1.753 -1.052,-2.393 -0.703,-0.639 -1.644,-0.959 -2.823,-0.959 -1.57,0 -2.822,0.614 -3.757,1.839 l 1.661,1.81 c 0.316,-0.369 0.687,-0.667 1.11,-0.896 0.426,-0.226 0.804,-0.341 1.134,-0.341 0.355,0 0.642,0.086 0.859,0.258 0.219,0.171 0.327,0.368 0.327,0.593 0,0.415 -0.392,0.82 -1.176,1.216 l -0.91,0.455 c -1.74,0.877 -2.609,1.974 -2.609,3.292 0,0.85 0.326,1.577 0.982,2.18 0.657,0.604 1.495,0.904 2.516,0.904 0.699,0 1.356,-0.153 1.974,-0.459 C -0.951,1.013 -0.429,0.573 0,0"
             style="fill:#154280;fill-opacity:1;fill-rule:nonzero;stroke:none"
             id="path132" /></g><g
           id="g134"
           transform="translate(391.8154,395.5933)"><path
             d="m 0,0 -1.67,-1.671 c -0.68,0.672 -1.296,1.008 -1.85,1.008 -0.303,0 -0.541,-0.064 -0.711,-0.192 -0.17,-0.129 -0.257,-0.289 -0.257,-0.479 0,-0.146 0.054,-0.279 0.163,-0.402 0.109,-0.121 0.377,-0.288 0.805,-0.499 l 0.989,-0.494 c 1.041,-0.514 1.757,-1.038 2.144,-1.571 0.39,-0.534 0.584,-1.16 0.584,-1.879 0,-0.956 -0.35,-1.753 -1.051,-2.393 -0.704,-0.639 -1.643,-0.959 -2.824,-0.959 -1.569,0 -2.819,0.614 -3.757,1.839 l 1.662,1.81 c 0.316,-0.369 0.687,-0.667 1.111,-0.896 0.427,-0.226 0.804,-0.341 1.134,-0.341 0.355,0 0.641,0.086 0.859,0.258 0.217,0.171 0.327,0.368 0.327,0.593 0,0.415 -0.392,0.82 -1.178,1.216 l -0.909,0.455 c -1.74,0.877 -2.61,1.974 -2.61,3.292 0,0.85 0.329,1.577 0.984,2.18 0.656,0.604 1.495,0.904 2.516,0.904 0.698,0 1.354,-0.153 1.973,-0.459 C -0.95,1.013 -0.429,0.573 0,0"
             style="fill:#154280;fill-opacity:1;fill-rule:nonzero;stroke:none"
             id="path136" /></g><path
           d="m 393.842,397.096 h 2.699 V 386.34 h -2.699 z m 1.35,4.429 c 0.473,0 0.879,-0.171 1.217,-0.514 0.337,-0.343 0.508,-0.758 0.508,-1.246 0,-0.481 -0.167,-0.891 -0.502,-1.23 -0.336,-0.34 -0.736,-0.51 -1.205,-0.51 -0.478,0 -0.888,0.174 -1.226,0.519 -0.338,0.347 -0.507,0.767 -0.507,1.261 0,0.474 0.167,0.88 0.502,1.216 0.335,0.336 0.739,0.504 1.213,0.504"
           style="fill:#154280;fill-opacity:1;fill-rule:nonzero;stroke:none"
           id="path138" /><g
           id="g140"
           transform="translate(404.0898,394.832)"><path
             d="m 0,0 c -0.84,0 -1.536,-0.291 -2.096,-0.875 -0.556,-0.583 -0.837,-1.33 -0.837,-2.239 0,-0.937 0.278,-1.694 0.828,-2.275 0.55,-0.58 1.251,-0.869 2.094,-0.869 0.846,0 1.549,0.293 2.11,0.88 0.561,0.586 0.842,1.341 0.842,2.264 0,0.923 -0.276,1.672 -0.827,2.249 C 1.563,-0.288 0.857,0 0,0 m -0.046,2.541 c 1.017,0 1.97,-0.254 2.862,-0.762 0.895,-0.507 1.591,-1.196 2.092,-2.066 0.5,-0.87 0.751,-1.809 0.751,-2.817 0,-1.016 -0.252,-1.964 -0.756,-2.848 C 4.398,-6.835 3.711,-7.525 2.841,-8.022 1.971,-8.521 1.013,-8.77 -0.035,-8.77 c -1.542,0 -2.858,0.55 -3.95,1.646 -1.09,1.099 -1.636,2.431 -1.636,4 0,1.681 0.617,3.081 1.849,4.202 1.08,0.975 2.324,1.463 3.726,1.463"
             style="fill:#154280;fill-opacity:1;fill-rule:nonzero;stroke:none"
             id="path142" /></g><g
           id="g144"
           transform="translate(411.9531,397.0957)"><path
             d="m 0,0 h 2.7 v -1.103 c 0.613,0.517 1.166,0.876 1.662,1.077 0.499,0.202 1.007,0.303 1.528,0.303 1.064,0 1.97,-0.373 2.713,-1.117 0.626,-0.633 0.938,-1.569 0.938,-2.807 v -7.109 H 6.872 v 4.71 c 0,1.284 -0.058,2.137 -0.174,2.558 -0.114,0.422 -0.314,0.742 -0.6,0.963 -0.286,0.22 -0.641,0.331 -1.061,0.331 -0.546,0 -1.014,-0.183 -1.405,-0.549 C 3.24,-3.108 2.969,-3.613 2.818,-4.259 2.739,-4.595 2.7,-5.321 2.7,-6.441 v -4.315 H 0 Z"
             style="fill:#154280;fill-opacity:1;fill-rule:nonzero;stroke:none"
             id="path146" /></g><g
           id="g148"
           transform="translate(424.1045,397.0957)"><path
             d="m 0,0 h 2.699 v -1.103 c 0.612,0.517 1.165,0.876 1.663,1.077 0.497,0.202 1.005,0.303 1.526,0.303 1.065,0 1.97,-0.373 2.715,-1.117 0.625,-0.633 0.938,-1.569 0.938,-2.807 v -7.109 H 6.87 v 4.71 c 0,1.284 -0.058,2.137 -0.172,2.558 -0.114,0.422 -0.315,0.742 -0.6,0.963 -0.286,0.22 -0.641,0.331 -1.063,0.331 -0.544,0 -1.013,-0.183 -1.405,-0.549 C 3.239,-3.108 2.967,-3.613 2.818,-4.259 2.739,-4.595 2.699,-5.321 2.699,-6.441 v -4.315 H 0 Z"
             style="fill:#154280;fill-opacity:1;fill-rule:nonzero;stroke:none"
             id="path150" /></g><g
           id="g152"
           transform="translate(441.3564,394.8809)"><path
             d="m 0,0 c -0.835,0 -1.527,-0.295 -2.081,-0.885 -0.55,-0.589 -0.827,-1.345 -0.827,-2.268 0,-0.929 0.281,-1.694 0.843,-2.294 0.562,-0.6 1.253,-0.9 2.074,-0.9 0.847,0 1.552,0.295 2.108,0.886 0.56,0.589 0.838,1.361 0.838,2.317 0,0.937 -0.278,1.694 -0.838,2.275 C 1.561,-0.289 0.854,0 0,0 M 2.837,2.215 H 5.536 V -8.541 H 2.837 v 1.137 C 2.309,-7.905 1.782,-8.266 1.252,-8.486 0.721,-8.708 0.147,-8.818 -0.472,-8.818 c -1.388,0 -2.59,0.539 -3.604,1.617 -1.013,1.076 -1.521,2.417 -1.521,4.018 0,1.661 0.492,3.022 1.472,4.083 0.981,1.061 2.172,1.592 3.574,1.592 0.646,0 1.251,-0.122 1.817,-0.366 0.567,-0.244 1.09,-0.61 1.571,-1.097 z"
             style="fill:#154280;fill-opacity:1;fill-rule:nonzero;stroke:none"
             id="path154" /></g><path
           d="m 449.323,397.096 h 2.7 V 386.34 h -2.7 z m 1.351,4.429 c 0.473,0 0.879,-0.171 1.217,-0.514 0.338,-0.343 0.507,-0.758 0.507,-1.246 0,-0.481 -0.167,-0.891 -0.502,-1.23 -0.335,-0.34 -0.735,-0.51 -1.204,-0.51 -0.477,0 -0.888,0.174 -1.225,0.519 -0.34,0.347 -0.509,0.767 -0.509,1.261 0,0.474 0.168,0.88 0.502,1.216 0.336,0.336 0.739,0.504 1.214,0.504"
           style="fill:#154280;fill-opacity:1;fill-rule:nonzero;stroke:none"
           id="path156" /><g
           id="g158"
           transform="translate(453.8418,397.0957)"><path
             d="m 0,0 h 2.313 v -1.354 c 0.25,0.534 0.584,0.939 0.999,1.216 0.417,0.277 0.87,0.415 1.366,0.415 C 5.025,0.277 5.393,0.185 5.774,0 L 4.933,-2.323 C 4.616,-2.165 4.358,-2.086 4.152,-2.086 3.737,-2.086 3.386,-2.343 3.101,-2.857 2.813,-3.371 2.67,-4.38 2.67,-5.882 l 0.009,-0.524 v -4.35 H 0 Z"
             style="fill:#154280;fill-opacity:1;fill-rule:nonzero;stroke:none"
             id="path160" /></g><g
           id="g162"
           transform="translate(469.0273,393.0625)"><path
             d="M 0,0 C -0.178,0.6 -0.53,1.087 -1.054,1.463 -1.58,1.839 -2.188,2.026 -2.882,2.026 -3.634,2.026 -4.293,1.815 -4.862,1.394 -5.218,1.13 -5.55,0.665 -5.853,0 Z m 2.7,-2.126 h -8.671 c 0.126,-0.764 0.461,-1.372 1.002,-1.824 0.545,-0.451 1.239,-0.677 2.082,-0.677 1.009,0 1.876,0.353 2.6,1.058 L 1.988,-4.637 C 1.421,-5.44 0.741,-6.035 -0.05,-6.422 -0.841,-6.807 -1.779,-7 -2.867,-7 c -1.688,0 -3.062,0.532 -4.121,1.598 -1.063,1.063 -1.593,2.396 -1.593,3.998 0,1.641 0.527,3.004 1.586,4.088 1.058,1.084 2.386,1.626 3.979,1.626 1.695,0 3.073,-0.542 4.134,-1.626 C 2.179,1.6 2.709,0.168 2.709,-1.611 Z"
             style="fill:#154280;fill-opacity:1;fill-rule:nonzero;stroke:none"
             id="path164" /></g><g
           id="g166"
           transform="translate(480.4961,395.5933)"><path
             d="m 0,0 -1.672,-1.671 c -0.679,0.672 -1.294,1.008 -1.848,1.008 -0.302,0 -0.54,-0.064 -0.711,-0.192 -0.172,-0.129 -0.258,-0.289 -0.258,-0.479 0,-0.146 0.055,-0.279 0.163,-0.402 0.109,-0.121 0.379,-0.288 0.806,-0.499 l 0.989,-0.494 c 1.042,-0.514 1.757,-1.038 2.146,-1.571 0.388,-0.534 0.582,-1.16 0.582,-1.879 0,-0.956 -0.351,-1.753 -1.052,-2.393 -0.703,-0.639 -1.644,-0.959 -2.823,-0.959 -1.568,0 -2.822,0.614 -3.757,1.839 l 1.661,1.81 c 0.316,-0.369 0.687,-0.667 1.112,-0.896 0.426,-0.226 0.803,-0.341 1.132,-0.341 0.355,0 0.643,0.086 0.86,0.258 0.218,0.171 0.326,0.368 0.326,0.593 0,0.415 -0.392,0.82 -1.176,1.216 l -0.91,0.455 c -1.74,0.877 -2.609,1.974 -2.609,3.292 0,0.85 0.326,1.577 0.983,2.18 0.657,0.604 1.494,0.904 2.516,0.904 0.7,0 1.357,-0.153 1.973,-0.459 C -0.951,1.013 -0.428,0.573 0,0"
             style="fill:#154280;fill-opacity:1;fill-rule:nonzero;stroke:none"
             id="path168" /></g><g
           id="g170"
           transform="translate(177.3267,370.585)"><path
             d="m 0,0 c -0.834,0 -1.527,-0.295 -2.079,-0.885 -0.551,-0.59 -0.827,-1.347 -0.827,-2.269 0,-0.929 0.28,-1.695 0.842,-2.293 0.561,-0.6 1.252,-0.901 2.074,-0.901 0.847,0 1.551,0.295 2.109,0.885 0.558,0.59 0.837,1.362 0.837,2.318 0,0.937 -0.279,1.695 -0.837,2.275 C 1.561,-0.29 0.854,0 0,0 m 2.837,6.367 h 2.7 V -8.541 h -2.7 v 1.136 C 2.311,-7.905 1.783,-8.268 1.252,-8.486 0.723,-8.709 0.148,-8.818 -0.471,-8.818 c -1.388,0 -2.59,0.538 -3.604,1.615 -1.014,1.077 -1.521,2.419 -1.521,4.018 0,1.662 0.491,3.024 1.472,4.084 0.981,1.06 2.172,1.592 3.574,1.592 0.646,0 1.251,-0.121 1.817,-0.366 0.566,-0.245 1.09,-0.609 1.57,-1.097 z"
             style="fill:#154280;fill-opacity:1;fill-rule:nonzero;stroke:none"
             id="path172" /></g><g
           id="g174"
           transform="translate(185.7598,376.9521)"><path
             d="M 0,0 H 2.491 V -1.363 C 2.491,-2.231 2.384,-2.979 2.169,-3.604 1.956,-4.229 1.595,-4.873 1.087,-5.536 l -0.968,0.757 c 0.244,0.356 0.423,0.662 0.539,0.922 0.114,0.258 0.229,0.602 0.341,1.028 H 0 Z"
             style="fill:#154280;fill-opacity:1;fill-rule:nonzero;stroke:none"
             id="path176" /></g><g
           id="g178"
           transform="translate(196.3579,370.585)"><path
             d="m 0,0 c -0.834,0 -1.527,-0.295 -2.079,-0.885 -0.552,-0.59 -0.828,-1.347 -0.828,-2.269 0,-0.929 0.281,-1.695 0.843,-2.293 0.561,-0.6 1.252,-0.901 2.074,-0.901 0.847,0 1.551,0.295 2.109,0.885 0.558,0.59 0.837,1.362 0.837,2.318 0,0.937 -0.279,1.695 -0.837,2.275 C 1.561,-0.29 0.854,0 0,0 M 2.837,2.215 H 5.536 V -8.541 H 2.837 v 1.136 C 2.31,-7.905 1.782,-8.268 1.252,-8.486 0.723,-8.709 0.148,-8.818 -0.471,-8.818 c -1.388,0 -2.59,0.538 -3.604,1.615 -1.014,1.077 -1.521,2.419 -1.521,4.018 0,1.662 0.491,3.024 1.472,4.084 0.981,1.06 2.172,1.592 3.574,1.592 0.646,0 1.251,-0.121 1.817,-0.366 C 1.833,1.88 2.356,1.516 2.837,1.028 Z"
             style="fill:#154280;fill-opacity:1;fill-rule:nonzero;stroke:none"
             id="path180" /></g><g
           id="g182"
           transform="translate(204.6128,372.7998)"><path
             d="m 0,0 h 2.729 v -5.181 c 0,-1.009 0.069,-1.709 0.208,-2.101 0.139,-0.393 0.361,-0.697 0.668,-0.914 0.308,-0.218 0.687,-0.327 1.135,-0.327 0.449,0 0.831,0.108 1.145,0.322 0.314,0.213 0.547,0.529 0.698,0.943 0.113,0.311 0.169,0.974 0.169,1.987 V 0 h 2.7 v -4.559 c 0,-1.878 -0.149,-3.163 -0.446,-3.855 -0.362,-0.843 -0.896,-1.49 -1.601,-1.943 -0.705,-0.451 -1.602,-0.676 -2.689,-0.676 -1.18,0 -2.134,0.263 -2.862,0.791 C 1.125,-9.716 0.613,-8.979 0.316,-8.038 0.106,-7.386 0,-6.199 0,-4.479 Z"
             style="fill:#154280;fill-opacity:1;fill-rule:nonzero;stroke:none"
             id="path184" /></g><g
           id="g186"
           transform="translate(217.0991,376.7637)"><path
             d="M 0,0 H 2.699 V -3.964 H 4.301 V -6.288 H 2.699 V -14.72 H 0 v 8.432 h -1.384 v 2.324 H 0 Z"
             style="fill:#154280;fill-opacity:1;fill-rule:nonzero;stroke:none"
             id="path188" /></g><g
           id="g190"
           transform="translate(227.9399,370.5352)"><path
             d="m 0,0 c -0.839,0 -1.537,-0.29 -2.095,-0.875 -0.557,-0.584 -0.837,-1.329 -0.837,-2.238 0,-0.938 0.276,-1.695 0.827,-2.276 0.551,-0.579 1.25,-0.87 2.094,-0.87 0.846,0 1.549,0.295 2.11,0.881 0.561,0.585 0.842,1.341 0.842,2.265 0,0.922 -0.276,1.671 -0.827,2.248 C 1.563,-0.287 0.858,0 0,0 M -0.045,2.541 C 0.971,2.541 1.924,2.286 2.817,1.779 3.71,1.273 4.407,0.582 4.908,-0.287 5.41,-1.157 5.66,-2.096 5.66,-3.104 5.66,-4.12 5.407,-5.069 4.904,-5.951 4.399,-6.834 3.712,-7.524 2.842,-8.023 1.972,-8.521 1.013,-8.769 -0.035,-8.769 c -1.542,0 -2.859,0.548 -3.95,1.646 -1.09,1.099 -1.636,2.431 -1.636,3.999 0,1.681 0.617,3.081 1.849,4.202 1.081,0.976 2.323,1.463 3.727,1.463"
             style="fill:#154280;fill-opacity:1;fill-rule:nonzero;stroke:none"
             id="path192" /></g><g
           id="g194"
           transform="translate(235.7847,372.7998)"><path
             d="m 0,0 h 2.699 v -1.236 c 0.462,0.507 0.974,0.886 1.538,1.135 0.564,0.251 1.179,0.377 1.845,0.377 0.673,0 1.28,-0.165 1.821,-0.495 0.54,-0.329 0.975,-0.809 1.305,-1.442 0.43,0.633 0.955,1.113 1.579,1.442 0.623,0.33 1.304,0.495 2.043,0.495 0.764,0 1.437,-0.178 2.018,-0.535 0.581,-0.355 0.997,-0.819 1.251,-1.392 0.255,-0.575 0.381,-1.506 0.381,-2.799 v -6.306 h -2.718 v 5.457 c 0,1.218 -0.152,2.044 -0.455,2.476 -0.304,0.432 -0.759,0.648 -1.365,0.648 -0.461,0 -0.874,-0.133 -1.241,-0.395 C 10.336,-2.835 10.064,-3.2 9.886,-3.662 9.708,-4.128 9.619,-4.875 9.619,-5.902 v -4.854 H 6.9 v 5.209 c 0,0.963 -0.07,1.659 -0.213,2.092 -0.142,0.432 -0.354,0.752 -0.639,0.964 -0.284,0.21 -0.628,0.316 -1.03,0.316 -0.45,0 -0.858,-0.134 -1.224,-0.401 C 3.427,-2.844 3.153,-3.217 2.971,-3.699 2.789,-4.18 2.699,-4.937 2.699,-5.972 v -4.784 H 0 Z"
             style="fill:#154280;fill-opacity:1;fill-rule:nonzero;stroke:none"
             id="path196" /></g><g
           id="g198"
           transform="translate(259.9321,370.5352)"><path
             d="m 0,0 c -0.839,0 -1.537,-0.29 -2.095,-0.875 -0.558,-0.584 -0.837,-1.329 -0.837,-2.238 0,-0.938 0.276,-1.695 0.827,-2.276 0.551,-0.579 1.25,-0.87 2.094,-0.87 0.846,0 1.549,0.295 2.11,0.881 0.561,0.585 0.842,1.341 0.842,2.265 0,0.922 -0.276,1.671 -0.827,2.248 C 1.563,-0.287 0.858,0 0,0 M -0.045,2.541 C 0.97,2.541 1.924,2.286 2.817,1.779 3.71,1.273 4.407,0.582 4.908,-0.287 5.409,-1.157 5.66,-2.096 5.66,-3.104 5.66,-4.12 5.407,-5.069 4.904,-5.951 4.399,-6.834 3.712,-7.524 2.842,-8.023 1.972,-8.521 1.013,-8.769 -0.035,-8.769 c -1.542,0 -2.859,0.548 -3.95,1.646 -1.09,1.099 -1.636,2.431 -1.636,3.999 0,1.681 0.616,3.081 1.849,4.202 1.081,0.976 2.323,1.463 3.727,1.463"
             style="fill:#154280;fill-opacity:1;fill-rule:nonzero;stroke:none"
             id="path200" /></g><g
           id="g202"
           transform="translate(273.313,370.585)"><path
             d="m 0,0 c -0.85,0 -1.555,-0.29 -2.116,-0.87 -0.56,-0.58 -0.84,-1.338 -0.84,-2.275 0,-0.956 0.28,-1.728 0.84,-2.318 0.561,-0.59 1.266,-0.885 2.116,-0.885 0.824,0 1.518,0.301 2.081,0.901 0.564,0.598 0.845,1.364 0.845,2.293 0,0.922 -0.277,1.679 -0.83,2.269 C 1.542,-0.295 0.843,0 0,0 M -2.837,6.367 V 1.028 c 0.487,0.488 1.015,0.852 1.581,1.097 0.567,0.245 1.173,0.366 1.819,0.366 1.404,0 2.598,-0.532 3.579,-1.592 0.982,-1.06 1.473,-2.422 1.473,-4.084 0,-1.599 -0.507,-2.941 -1.522,-4.018 -1.015,-1.077 -2.218,-1.615 -3.609,-1.615 -0.619,0 -1.196,0.109 -1.73,0.332 -0.534,0.218 -1.065,0.581 -1.591,1.081 v -1.136 h -2.68 V 6.367 Z"
             style="fill:#154280;fill-opacity:1;fill-rule:nonzero;stroke:none"
             id="path204" /></g><path
           d="m 280.866,372.8 h 2.699 v -10.756 h -2.699 z m 1.349,4.429 c 0.474,0 0.879,-0.172 1.218,-0.514 0.338,-0.344 0.507,-0.759 0.507,-1.247 0,-0.481 -0.167,-0.892 -0.502,-1.23 -0.335,-0.34 -0.736,-0.51 -1.203,-0.51 -0.479,0 -0.888,0.173 -1.228,0.52 -0.338,0.347 -0.507,0.767 -0.507,1.259 0,0.474 0.167,0.881 0.503,1.217 0.335,0.337 0.739,0.505 1.212,0.505"
           style="fill:#154280;fill-opacity:1;fill-rule:nonzero;stroke:none"
           id="path206" /><path
           d="m 285.72,376.952 h 2.699 v -14.908 h -2.699 z"
           style="fill:#154280;fill-opacity:1;fill-rule:nonzero;stroke:none"
           id="path208" /><g
           id="g210"
           transform="translate(298.9482,368.7666)"><path
             d="M 0,0 C -0.178,0.599 -0.53,1.086 -1.055,1.463 -1.58,1.837 -2.189,2.025 -2.882,2.025 -3.635,2.025 -4.294,1.815 -4.863,1.393 -5.219,1.128 -5.549,0.664 -5.853,0 Z m 2.699,-2.127 h -8.67 c 0.125,-0.764 0.46,-1.371 1.003,-1.825 0.544,-0.45 1.238,-0.675 2.081,-0.675 1.009,0 1.875,0.353 2.6,1.057 L 1.987,-4.638 C 1.42,-5.442 0.741,-6.035 -0.05,-6.422 -0.84,-6.809 -1.78,-7 -2.867,-7 c -1.688,0 -3.062,0.532 -4.123,1.597 -1.061,1.063 -1.592,2.397 -1.592,3.998 0,1.642 0.529,3.005 1.588,4.088 1.057,1.085 2.384,1.627 3.978,1.627 1.694,0 3.072,-0.542 4.133,-1.627 C 2.178,1.6 2.708,0.167 2.708,-1.612 Z"
             style="fill:#154280;fill-opacity:1;fill-rule:nonzero;stroke:none"
             id="path212" /></g><g
           id="g214"
           transform="translate(310.416,371.2969)"><path
             d="m 0,0 -1.67,-1.671 c -0.68,0.672 -1.296,1.008 -1.849,1.008 -0.305,0 -0.542,-0.064 -0.712,-0.191 -0.17,-0.131 -0.257,-0.29 -0.257,-0.481 0,-0.146 0.054,-0.278 0.163,-0.401 0.109,-0.122 0.377,-0.288 0.806,-0.499 l 0.989,-0.494 c 1.04,-0.513 1.756,-1.039 2.144,-1.572 0.389,-0.534 0.584,-1.159 0.584,-1.879 0,-0.956 -0.351,-1.754 -1.052,-2.392 -0.704,-0.639 -1.643,-0.958 -2.824,-0.958 -1.569,0 -2.82,0.611 -3.756,1.838 l 1.661,1.809 c 0.316,-0.368 0.687,-0.666 1.111,-0.894 0.426,-0.228 0.804,-0.341 1.134,-0.341 0.355,0 0.641,0.085 0.859,0.256 0.218,0.172 0.327,0.369 0.327,0.592 0,0.417 -0.392,0.822 -1.177,1.217 l -0.91,0.455 c -1.74,0.878 -2.61,1.975 -2.61,3.293 0,0.849 0.329,1.576 0.984,2.178 0.656,0.606 1.495,0.906 2.516,0.906 0.698,0 1.355,-0.154 1.973,-0.459 C -0.95,1.013 -0.429,0.572 0,0"
             style="fill:#154280;fill-opacity:1;fill-rule:nonzero;stroke:none"
             id="path216" /></g><g
           id="g218"
           transform="translate(323.5059,370.585)"><path
             d="m 0,0 c -0.834,0 -1.527,-0.295 -2.079,-0.885 -0.553,-0.59 -0.828,-1.347 -0.828,-2.269 0,-0.929 0.282,-1.695 0.843,-2.293 0.561,-0.6 1.252,-0.901 2.073,-0.901 0.848,0 1.552,0.295 2.109,0.885 0.559,0.59 0.839,1.362 0.839,2.318 0,0.937 -0.28,1.695 -0.839,2.275 C 1.561,-0.29 0.854,0 0,0 M 2.838,6.367 H 5.536 V -8.541 H 2.838 v 1.136 c -0.527,-0.5 -1.056,-0.863 -1.585,-1.081 -0.53,-0.223 -1.105,-0.332 -1.725,-0.332 -1.386,0 -2.589,0.538 -3.603,1.615 -1.015,1.077 -1.521,2.419 -1.521,4.018 0,1.662 0.492,3.024 1.471,4.084 0.982,1.06 2.172,1.592 3.574,1.592 0.647,0 1.252,-0.121 1.818,-0.366 C 1.834,1.88 2.357,1.516 2.838,1.028 Z"
             style="fill:#154280;fill-opacity:1;fill-rule:nonzero;stroke:none"
             id="path220" /></g><g
           id="g222"
           transform="translate(331.7617,372.7998)"><path
             d="m 0,0 h 2.729 v -5.181 c 0,-1.009 0.068,-1.709 0.207,-2.101 0.139,-0.393 0.361,-0.697 0.668,-0.914 0.308,-0.218 0.686,-0.327 1.135,-0.327 0.45,0 0.83,0.108 1.146,0.322 0.312,0.213 0.546,0.529 0.698,0.943 0.112,0.311 0.168,0.974 0.168,1.987 V 0 h 2.7 v -4.559 c 0,-1.878 -0.149,-3.163 -0.445,-3.855 -0.364,-0.843 -0.897,-1.49 -1.602,-1.943 -0.706,-0.451 -1.601,-0.676 -2.689,-0.676 -1.181,0 -2.134,0.263 -2.862,0.791 C 1.125,-9.716 0.611,-8.979 0.316,-8.038 0.104,-7.386 0,-6.199 0,-4.479 Z"
             style="fill:#154280;fill-opacity:1;fill-rule:nonzero;stroke:none"
             id="path224" /></g><g
           id="g226"
           transform="translate(360.6299,366.4023)"><path
             d="m 0,0 c 0.585,0.87 0.879,1.833 0.879,2.887 0,1.379 -0.466,2.548 -1.397,3.51 C -1.447,7.358 -2.57,7.84 -3.891,7.84 -5.251,7.84 -6.389,7.372 -7.306,6.437 -8.223,5.5 -8.682,4.311 -8.682,2.867 c 0,-1.607 0.578,-2.879 1.734,-3.816 0.903,-0.732 1.931,-1.098 3.08,-1.098 0.66,0 1.28,0.129 1.861,0.387 l -2.605,3.351 h 3.303 z M 1.729,-2.234 4.26,-5.506 H 0.982 l -1.285,1.655 c -1.063,-0.584 -2.247,-0.875 -3.554,-0.875 -2.185,0 -3.999,0.753 -5.444,2.259 -1.446,1.506 -2.168,3.301 -2.168,5.385 0,1.39 0.335,2.667 1.009,3.829 0.672,1.164 1.599,2.089 2.775,2.774 1.178,0.685 2.442,1.029 3.794,1.029 2.064,0 3.836,-0.745 5.318,-2.236 1.479,-1.489 2.22,-3.305 2.22,-5.447 0,-1.971 -0.639,-3.672 -1.918,-5.101"
             style="fill:#154280;fill-opacity:1;fill-rule:nonzero;stroke:none"
             id="path228" /></g><g
           id="g230"
           transform="translate(366.5801,372.7998)"><path
             d="m 0,0 h 2.729 v -5.181 c 0,-1.009 0.069,-1.709 0.209,-2.101 0.137,-0.393 0.361,-0.697 0.667,-0.914 0.308,-0.218 0.687,-0.327 1.135,-0.327 0.449,0 0.832,0.108 1.146,0.322 0.313,0.213 0.548,0.529 0.698,0.943 0.112,0.311 0.169,0.974 0.169,1.987 V 0 h 2.698 v -4.559 c 0,-1.878 -0.147,-3.163 -0.444,-3.855 -0.362,-0.843 -0.898,-1.49 -1.602,-1.943 -0.704,-0.451 -1.601,-0.676 -2.689,-0.676 -1.179,0 -2.134,0.263 -2.862,0.791 -0.729,0.526 -1.24,1.263 -1.539,2.204 C 0.105,-7.386 0,-6.199 0,-4.479 Z"
             style="fill:#154280;fill-opacity:1;fill-rule:nonzero;stroke:none"
             id="path232" /></g><g
           id="g234"
           transform="translate(384.2959,378.6416)"><path
             d="m 0,0 h 3.194 l -3.619,-3.875 h -1.937 z m 2.521,-9.875 c -0.177,0.599 -0.529,1.086 -1.055,1.463 -0.523,0.374 -1.133,0.562 -1.825,0.562 -0.754,0 -1.414,-0.21 -1.982,-0.632 -0.357,-0.265 -0.685,-0.729 -0.99,-1.393 z m 2.699,-2.127 h -8.669 c 0.124,-0.764 0.459,-1.371 1.004,-1.825 0.544,-0.45 1.237,-0.675 2.08,-0.675 1.009,0 1.876,0.353 2.6,1.057 l 2.273,-1.068 c -0.566,-0.804 -1.244,-1.397 -2.035,-1.784 -0.791,-0.387 -1.731,-0.578 -2.819,-0.578 -1.686,0 -3.061,0.532 -4.123,1.597 -1.059,1.063 -1.591,2.397 -1.591,3.998 0,1.642 0.53,3.005 1.588,4.088 1.056,1.085 2.383,1.627 3.979,1.627 1.693,0 3.071,-0.542 4.131,-1.627 1.061,-1.083 1.592,-2.516 1.592,-4.295 z"
             style="fill:#154280;fill-opacity:1;fill-rule:nonzero;stroke:none"
             id="path236" /></g><g
           id="g238"
           transform="translate(397.2178,370.585)"><path
             d="m 0,0 c -0.85,0 -1.555,-0.29 -2.115,-0.87 -0.562,-0.58 -0.842,-1.338 -0.842,-2.275 0,-0.956 0.28,-1.728 0.842,-2.318 0.56,-0.59 1.265,-0.885 2.115,-0.885 0.824,0 1.519,0.301 2.081,0.901 0.565,0.598 0.846,1.364 0.846,2.293 0,0.922 -0.278,1.679 -0.831,2.269 C 1.543,-0.295 0.843,0 0,0 M -2.838,6.367 V 1.028 c 0.488,0.488 1.016,0.852 1.582,1.097 0.568,0.245 1.174,0.366 1.819,0.366 1.406,0 2.598,-0.532 3.581,-1.592 0.98,-1.06 1.471,-2.422 1.471,-4.084 0,-1.599 -0.508,-2.941 -1.522,-4.018 -1.014,-1.077 -2.217,-1.615 -3.609,-1.615 -0.619,0 -1.196,0.109 -1.729,0.332 -0.534,0.218 -1.066,0.581 -1.593,1.081 V -8.541 H -5.517 V 6.367 Z"
             style="fill:#154280;fill-opacity:1;fill-rule:nonzero;stroke:none"
             id="path240" /></g><g
           id="g242"
           transform="translate(413.1455,368.7666)"><path
             d="M 0,0 C -0.18,0.599 -0.53,1.086 -1.056,1.463 -1.58,1.837 -2.19,2.025 -2.882,2.025 -3.635,2.025 -4.295,1.815 -4.864,1.393 -5.22,1.128 -5.55,0.664 -5.853,0 Z m 2.698,-2.127 h -8.67 c 0.125,-0.764 0.46,-1.371 1.003,-1.825 0.544,-0.45 1.239,-0.675 2.082,-0.675 1.007,0 1.874,0.353 2.6,1.057 L 1.986,-4.638 C 1.421,-5.442 0.741,-6.035 -0.05,-6.422 -0.841,-6.809 -1.779,-7 -2.868,-7 c -1.688,0 -3.061,0.532 -4.122,1.597 -1.062,1.063 -1.591,2.397 -1.591,3.998 0,1.642 0.527,3.005 1.586,4.088 1.058,1.085 2.384,1.627 3.979,1.627 1.693,0 3.071,-0.542 4.132,-1.627 C 2.178,1.6 2.707,0.167 2.707,-1.612 Z"
             style="fill:#154280;fill-opacity:1;fill-rule:nonzero;stroke:none"
             id="path244" /></g><g
           id="g246"
           transform="translate(428.5576,370.625)"><path
             d="m 0,0 -2.246,-1.236 c -0.423,0.442 -0.84,0.748 -1.254,0.92 -0.41,0.17 -0.895,0.255 -1.449,0.255 -1.009,0 -1.827,-0.301 -2.45,-0.904 -0.624,-0.6 -0.934,-1.371 -0.934,-2.313 0,-0.914 0.299,-1.662 0.9,-2.241 0.599,-0.579 1.389,-0.869 2.365,-0.869 1.208,0 2.149,0.413 2.822,1.237 l 2.127,-1.457 c -1.154,-1.502 -2.781,-2.25 -4.884,-2.25 -1.892,0 -3.373,0.559 -4.443,1.679 -1.072,1.121 -1.607,2.433 -1.607,3.936 0,1.041 0.26,1.999 0.782,2.877 0.52,0.877 1.248,1.564 2.178,2.066 0.934,0.501 1.977,0.751 3.13,0.751 1.067,0 2.026,-0.213 2.878,-0.639 C -1.236,1.387 -0.54,0.783 0,0"
             style="fill:#154280;fill-opacity:1;fill-rule:nonzero;stroke:none"
             id="path248" /></g><g
           id="g250"
           transform="translate(432.7109,424.6401)"><path
             d="m 0,0 v -1.816 h 1.405 c 0.542,0 0.902,0.073 1.077,0.219 0.177,0.146 0.265,0.381 0.265,0.703 0,0.322 -0.087,0.552 -0.26,0.689 C 2.313,-0.068 1.956,0 1.415,0 Z M -1.679,1.47 H 1.707 C 2.419,1.47 2.942,1.391 3.276,1.232 3.611,1.074 3.88,0.825 4.084,0.484 4.288,0.143 4.39,-0.268 4.39,-0.748 c 0,-0.408 -0.063,-0.741 -0.187,-1 C 4.078,-2.006 3.843,-2.26 3.495,-2.509 3.775,-2.667 3.967,-2.846 4.07,-3.043 4.174,-3.241 4.238,-3.589 4.262,-4.088 4.305,-5.037 4.346,-5.589 4.386,-5.745 4.425,-5.899 4.533,-6.047 4.709,-6.187 H 2.793 c -0.085,0.207 -0.14,0.38 -0.164,0.52 -0.025,0.14 -0.04,0.38 -0.046,0.721 -0.019,0.675 -0.055,1.092 -0.109,1.25 C 2.419,-3.538 2.323,-3.419 2.186,-3.34 2.049,-3.261 1.773,-3.221 1.36,-3.221 H 0 v -2.966 h -1.679 z m 8.442,-3.833 c 0,1.545 -0.54,2.858 -1.62,3.937 -1.081,1.08 -2.383,1.62 -3.911,1.62 -1.539,0 -2.851,-0.538 -3.937,-1.615 -1.086,-1.077 -1.629,-2.376 -1.629,-3.897 0,-0.985 0.244,-1.901 0.734,-2.746 0.49,-0.846 1.166,-1.516 2.031,-2.008 0.864,-0.493 1.792,-0.74 2.783,-0.74 0.985,0 1.91,0.246 2.774,0.735 0.865,0.49 1.542,1.156 2.035,1.999 0.494,0.842 0.74,1.747 0.74,2.715 m 1.441,0.018 C 8.204,-3.592 7.893,-4.753 7.27,-5.827 6.646,-6.9 5.794,-7.749 4.714,-8.373 c -1.08,-0.623 -2.246,-0.935 -3.5,-0.935 -1.247,0 -2.412,0.312 -3.495,0.935 -1.083,0.624 -1.936,1.473 -2.56,2.546 -0.624,1.074 -0.935,2.238 -0.935,3.491 0,1.247 0.311,2.409 0.935,3.486 0.624,1.077 1.476,1.927 2.555,2.551 1.08,0.623 2.247,0.935 3.5,0.935 1.254,0 2.42,-0.312 3.5,-0.935 C 5.794,3.077 6.646,2.227 7.27,1.15 7.893,0.073 8.204,-1.092 8.204,-2.345"
             style="fill:#154280;fill-opacity:1;fill-rule:nonzero;stroke:none"
             id="path252" /></g></g></g></g></svg>