<svg id="Layer_1" data-name="Layer 1" xmlns="http://www.w3.org/2000/svg" viewBox="0 0 230 120"><defs><style>.cls-1{fill:#f8961d;}.cls-2{fill:#dcdbdb;}.cls-3{fill:#f7f7f7;}.cls-4{fill:#1e3d6b;}</style></defs><title>CarsandJobs-Icons</title><rect class="cls-1" width="230" height="120"/><path class="cls-2" d="M117.87,30.81a3.46,3.46,0,0,0,3.44,3.46h12.28L117.87,18.5Z"/><path class="cls-3" d="M117.87,30.81V18.5H73A3.46,3.46,0,0,0,69.58,22V96A3.46,3.46,0,0,0,73,99.5h57.13A3.46,3.46,0,0,0,133.59,96V34.27H121.31A3.46,3.46,0,0,1,117.87,30.81Z"/><rect class="cls-2" x="84.01" y="42.72" width="35.16" height="3.61"/><rect class="cls-2" x="84.01" y="52.1" width="35.16" height="3.61"/><rect class="cls-2" x="84.01" y="61.49" width="35.16" height="3.61"/><path class="cls-4" d="M137.53,51.58c7.57,0,14.42,6.26,15.75,14.46h-6.57l9.2,10.51L166.42,66h-6.57c-1.5-12-10.94-21-22.32-21a23.06,23.06,0,0,0-18.43,9.32l5.26,3.82A17.17,17.17,0,0,1,137.53,51.58Z"/><path class="cls-4" d="M137.48,85.76c-7.58,0-14.42-6.58-15.75-14.46h6.57l-9.2-10.52L108.59,71.3h6.57c1.5,11.83,10.94,21,22.32,21A23.1,23.1,0,0,0,155.91,83l-5.26-3.83A17.18,17.18,0,0,1,137.48,85.76Z"/></svg>