<svg id="Layer_1" data-name="Layer 1" xmlns="http://www.w3.org/2000/svg" viewBox="0 0 230 120"><defs><style>.cls-1{fill:#1e3d6b;}.cls-2{fill:#891820;}.cls-3{fill:#f7f7f7;}.cls-4{fill:#cea72c;}.cls-5{fill:#ccc;}.cls-6{fill:#dcdbdb;}.cls-7{fill:#efc81e;}.cls-8{fill:#d7a029;}</style></defs><title>CarsandJobs-Icons</title><rect class="cls-1" width="230" height="120"/><path class="cls-2" d="M156.71,47a.09.09,0,0,1,0,0c0-.11,0-.21,0-.32v0a3.51,3.51,0,0,0-2.75-2.67l-.07,0-.25,0-.34,0H148.8V32.91l-16-16H87.35a3.51,3.51,0,0,0-3.5,3.5V43.84H78.26l-.34,0-.25,0-.07,0a3.51,3.51,0,0,0-2.74,2.65,0,0,0,0,0,0,0c0,.1,0,.21,0,.31a.17.17,0,0,0,0,.07,2.34,2.34,0,0,0,0,.38V96.7a2.34,2.34,0,0,0,0,.38.15.15,0,0,0,0,.07,3.06,3.06,0,0,0,0,.32,0,0,0,0,1,0,0,3.53,3.53,0,0,0,2.74,2.64h0l.28,0h75.65l.28,0h0a3.52,3.52,0,0,0,2.84-3.44V47.35C156.73,47.22,156.72,47.1,156.71,47Z"/><path class="cls-3" d="M155.23,95.2a3.51,3.51,0,0,1-3.49,3.51h-75a3.52,3.52,0,0,1-3.5-3.51V45.85a3.52,3.52,0,0,1,3.5-3.51h75a3.51,3.51,0,0,1,3.49,3.51Z"/><path class="cls-4" d="M114.25,72.28l39.83-29a3.48,3.48,0,0,0-2.34-.93h-75a3.46,3.46,0,0,0-2.34.93Z"/><path class="cls-5" d="M131.36,27.9a3.51,3.51,0,0,0,3.5,3.51h12.45l-15.95-16Z"/><path class="cls-3" d="M131.36,27.9V15.41H85.85a3.51,3.51,0,0,0-3.49,3.51V94.09a3.5,3.5,0,0,0,3.49,3.5h58a3.5,3.5,0,0,0,3.5-3.5V31.41H134.86A3.51,3.51,0,0,1,131.36,27.9Z"/><rect class="cls-6" x="95.46" y="40.44" width="37.58" height="3.86"/><rect class="cls-6" x="95.46" y="50.47" width="37.58" height="3.86"/><rect class="cls-6" x="95.46" y="60.51" width="37.58" height="3.86"/><path class="cls-7" d="M74.43,97.79a3.5,3.5,0,0,0,2.34.92h75a3.51,3.51,0,0,0,3.49-3.51V45.85a3.5,3.5,0,0,0-1.15-2.58l-39.83,29Z"/><path class="cls-8" d="M74.43,97.79a3.5,3.5,0,0,0,2.34.92h75a3.51,3.51,0,0,0,2.34-.92L114.25,72.28Z"/><path class="cls-7" d="M74.55,97.88l39.7-25.6L74.48,43.23a3.48,3.48,0,0,0-1.21,2.62V95.2A3.49,3.49,0,0,0,74.55,97.88Z"/></svg>