<svg id="Layer_1" data-name="Layer 1" xmlns="http://www.w3.org/2000/svg" viewBox="0 0 230 120"><defs><style>.cls-1{fill:#44bb92;}.cls-2{fill:#dcdbdb;}.cls-3{fill:#f7f7f7;}.cls-4{fill:#fdd327;}.cls-5{fill:#353535;}.cls-6{fill:#4c4c4d;}.cls-7{fill:#2d2d2d;}.cls-8{fill:#7d7d7d;}</style></defs><title>CarsandJobs-Icons</title><rect class="cls-1" width="230" height="120"/><path class="cls-2" d="M128.77,30.5A3.45,3.45,0,0,0,132.21,34h12.28L128.77,18.19Z"/><path class="cls-3" d="M128.77,30.5V18.19H83.92a3.46,3.46,0,0,0-3.45,3.45V95.73a3.46,3.46,0,0,0,3.45,3.45H141a3.46,3.46,0,0,0,3.45-3.45V34H132.21A3.45,3.45,0,0,1,128.77,30.5Z"/><rect class="cls-2" x="94.9" y="42.4" width="35.16" height="3.61"/><rect class="cls-2" x="94.9" y="51.79" width="35.16" height="3.61"/><rect class="cls-2" x="94.9" y="61.18" width="35.16" height="3.61"/><polygon class="cls-4" points="142.57 48.85 154.74 61.05 151.83 63.97 139.66 51.77 142.57 48.85"/><path class="cls-5" d="M169,34.6c3.36,3.37,2.23,10-2.53,14.73L154.74,61.05l-12.17-12.2,11.7-11.72C159,32.36,165.6,31.23,169,34.6Z"/><path class="cls-4" d="M147.88,36.84a6.32,6.32,0,0,1,5.06,1.62l1.33-1.33c.35-.35.71-.67,1.07-1h0a9.68,9.68,0,0,0-7.81-2.59c-7.58.85-10.43,7.49-12.95,13.34-1.58,3.67-3.07,7.14-5.5,9.19-1.55,1.31-4,1-5.85.25A1.66,1.66,0,0,0,122,59.39a11.49,11.49,0,0,0,4.31.9,7.51,7.51,0,0,0,4.92-1.68c3-2.56,4.75-6.55,6.41-10.42C140,42.68,142.21,37.48,147.88,36.84Z"/><polygon class="cls-6" points="119.77 75.86 127.81 83.92 151.83 63.97 139.66 51.77 119.77 75.86"/><polygon class="cls-7" points="113.86 86.46 117.24 89.84 127.81 83.92 119.77 75.86 113.86 86.46"/><path class="cls-8" d="M114.72,87.33l-2.32,2.32a1.17,1.17,0,0,0,0,1.66,1.18,1.18,0,0,0,.82.34,1.21,1.21,0,0,0,.83-.34L116.37,89Z"/></svg>