<svg xmlns="http://www.w3.org/2000/svg" viewBox="0 0 230 120"><defs><style>.cls-1{isolation:isolate;}.cls-2{fill:#59b0e1;}.cls-3{fill:#035968;mix-blend-mode:color-burn;}.cls-4{fill:#f7f7f7;}.cls-5{fill:#69cce8;}.cls-6{fill:#4c4c4d;}.cls-7{opacity:0.8;}.cls-8{fill:#fff;}</style></defs><title>CarsandJobs-Icons</title><g class="cls-1"><g id="Layer_1" data-name="Layer 1"><rect class="cls-2" width="230" height="120"/><path class="cls-3" d="M158.29,95,137.55,74.23l-5.73-5.75a34.09,34.09,0,1,0-8.4,8.73L129,82.8l20.73,20.8A6.06,6.06,0,1,0,158.29,95Z"/><path class="cls-4" d="M126,23.76a34.16,34.16,0,1,0,0,48.37A34,34,0,0,0,126,23.76Z"/><path class="cls-5" d="M119.93,29.86a25.53,25.53,0,1,1-36.05,0A25.6,25.6,0,0,1,119.93,29.86Z"/><path class="cls-4" d="M126,72.13a34.31,34.31,0,0,1-4.17,3.51l5.6,5.62L136,72.68l-5.74-5.75A34.09,34.09,0,0,1,126,72.13Z"/><path class="cls-6" d="M156.75,93.48,136,72.68l-8.55,8.58,16.31,16.36,4.42,4.43a6.06,6.06,0,0,0,8.56-8.57Z"/><g class="cls-7"><path class="cls-8" d="M121.15,47.47a2.29,2.29,0,0,1-2.29-2.3,14,14,0,0,0-13.94-14,2.29,2.29,0,0,1,0-4.58,18.56,18.56,0,0,1,18.51,18.56A2.29,2.29,0,0,1,121.15,47.47Z"/></g><rect class="cls-4" x="98.28" y="33.93" width="7.02" height="27.15" rx="3.5" ry="3.5"/><rect class="cls-4" x="98.02" y="34.72" width="7.04" height="27.08" rx="3.5" ry="3.5" transform="translate(53.29 149.8) rotate(-90)"/></g></g></svg>