<svg id="Layer_1" data-name="Layer 1" xmlns="http://www.w3.org/2000/svg" viewBox="0 0 566.67 107.35"><defs><style>.cls-1{fill:#d92731;}.cls-2{fill:#414142;}.cls-3{fill:#fff;}</style></defs><title>carsandjobs-logo-fr</title><path class="cls-1" d="M302.4,77.33H0V30A30,30,0,0,1,30,0H302.4Z"/><path class="cls-2" d="M536.63,107.33H349.33l-46.93-30V22H566.67V78c0,16.59-13.45,30-30,29.37"/><path class="cls-3" d="M19.5,25.61A15.29,15.29,0,0,1,30.92,21q9.28,0,13.57,6.15A13.46,13.46,0,0,1,47,34.11h-4.7A4.34,4.34,0,0,1,38.4,31.7a7.61,7.61,0,0,0-1-1.63,7.66,7.66,0,0,0-6.15-2.42,7.58,7.58,0,0,0-6.55,3.42q-2.4,3.41-2.39,9.67T24.8,50.1a7.93,7.93,0,0,0,6.43,3.12,7.25,7.25,0,0,0,6.09-2.68,11.51,11.51,0,0,0,1.93-4.31H47a16.68,16.68,0,0,1-5.1,9.89,14.83,14.83,0,0,1-10.51,3.81q-7.94,0-12.48-5.15T14.33,40.61q0-9.74,5.17-15"/><path class="cls-3" d="M64.42,21.72h5.66L83.23,58.89H74.8l-2.45-7.64H58.66l-2.52,7.64H48L60.23,24.67a4.47,4.47,0,0,1,4.19-3M60.78,44.85H70.3L65.6,30.22Z"/><path class="cls-3" d="M109.19,22.68a9.22,9.22,0,0,1,3.48,2.6,11.41,11.41,0,0,1,1.87,3.13,10.35,10.35,0,0,1,.69,3.9,11.13,11.13,0,0,1-1.34,5.21,7.47,7.47,0,0,1-4.41,3.62,6.93,6.93,0,0,1,3.64,2.94,12.14,12.14,0,0,1,1.07,5.81v2.5a18.32,18.32,0,0,0,.21,3.45A3.08,3.08,0,0,0,115.83,58v.93h-8.57c-.24-.82-.4-1.49-.5-2a16.94,16.94,0,0,1-.33-3.2l-.05-3.46q0-3.56-1.23-4.74c-.79-.79-2.26-1.18-4.43-1.18H93.14V58.89H85.55V26.17A4.44,4.44,0,0,1,90,21.72h13.34a16.12,16.12,0,0,1,5.86,1m-16,5.5v10h8.36a8.93,8.93,0,0,0,3.73-.6c1.47-.71,2.21-2.1,2.21-4.19q0-3.37-2.14-4.54a7.76,7.76,0,0,0-3.59-.65Z"/><path class="cls-3" d="M143.9,22.68a9.22,9.22,0,0,1,3.48,2.6,11.41,11.41,0,0,1,1.87,3.13,10.35,10.35,0,0,1,.69,3.9,11,11,0,0,1-1.34,5.21,7.47,7.47,0,0,1-4.41,3.62,6.9,6.9,0,0,1,3.64,2.94,12.13,12.13,0,0,1,1.08,5.81v2.5a19.55,19.55,0,0,0,.2,3.45A3.11,3.11,0,0,0,150.54,58v.93H142c-.23-.82-.4-1.49-.5-2a18.76,18.76,0,0,1-.33-3.2l0-3.46q0-3.56-1.23-4.74c-.79-.79-2.26-1.18-4.42-1.18h-7.59V58.89h-7.59V26.17a4.45,4.45,0,0,1,4.45-4.45H138a16.08,16.08,0,0,1,5.86,1m-16.05,5.5v10h8.36a9,9,0,0,0,3.74-.6c1.46-.71,2.2-2.1,2.2-4.19q0-3.37-2.13-4.54a7.82,7.82,0,0,0-3.59-.65Z"/><path class="cls-3" d="M161.88,58.89h-7.71V26.17a4.44,4.44,0,0,1,4.44-4.45h3.27Z"/><path class="cls-3" d="M194.05,28.31H174.38V36.2h18.05v6.45H174.38v9.56H195v6.68H166.79V26.17a4.44,4.44,0,0,1,4.44-4.45h22.82Zm-9.18-9.56h-5.19L172,11.21h8Z"/><path class="cls-3" d="M222.24,22.68a9.22,9.22,0,0,1,3.48,2.6,11.41,11.41,0,0,1,1.87,3.13,10.35,10.35,0,0,1,.69,3.9,11,11,0,0,1-1.34,5.21,7.47,7.47,0,0,1-4.41,3.62,7,7,0,0,1,3.65,2.94,12.27,12.27,0,0,1,1.07,5.81v2.5a19.55,19.55,0,0,0,.2,3.45A3.09,3.09,0,0,0,228.89,58v.93h-8.58c-.23-.82-.4-1.49-.5-2a18.76,18.76,0,0,1-.33-3.2l0-3.46q0-3.56-1.23-4.74c-.79-.79-2.26-1.18-4.42-1.18h-7.59V58.89H198.6V26.17a4.45,4.45,0,0,1,4.45-4.45h13.33a16.08,16.08,0,0,1,5.86,1m-16.05,5.5v10h8.36a9,9,0,0,0,3.74-.6c1.46-.71,2.2-2.1,2.2-4.19q0-3.37-2.13-4.54a7.82,7.82,0,0,0-3.59-.65Z"/><path class="cls-3" d="M260.62,28.31H241V36.2h18v6.45H241v9.56h20.57v6.68H233.37V26.17a4.44,4.44,0,0,1,4.44-4.45h22.81Z"/><path class="cls-3" d="M270.6,47.42A7.48,7.48,0,0,0,272,51.23c1.28,1.53,3.49,2.29,6.61,2.29a14.39,14.39,0,0,0,4.56-.6c2.21-.78,3.32-2.21,3.32-4.32a3.19,3.19,0,0,0-1.63-2.85A17.88,17.88,0,0,0,279.72,44l-4-.88c-4-.87-6.67-1.82-8.15-2.85q-3.76-2.56-3.76-8a10.71,10.71,0,0,1,3.68-8.3q3.67-3.3,10.8-3.3a16.58,16.58,0,0,1,10.14,3.11,11.06,11.06,0,0,1,4.4,9H288.7a4.62,4.62,0,0,1-4-2.56,5.16,5.16,0,0,0-2.32-2.2,10.29,10.29,0,0,0-4.63-.94,8.79,8.79,0,0,0-4.91,1.22A3.82,3.82,0,0,0,271,31.68a3.19,3.19,0,0,0,1.81,3,22.25,22.25,0,0,0,4.94,1.54l6.52,1.54a16.68,16.68,0,0,1,6.43,2.69A9.11,9.11,0,0,1,294,48a10.64,10.64,0,0,1-3.94,8.46q-3.93,3.38-11.12,3.37-7.35,0-11.55-3.32a11,11,0,0,1-4.2-9.11Z"/><path class="cls-3" d="M361.77,35.18h7.64l19.45,55H376.4l-3.62-11.3H352.54l-3.73,11.3h-12l17.82-49.92a7.59,7.59,0,0,1,7.15-5m-6.11,34.19h14.08l-6.95-21.62Z"/><path class="cls-3" d="M395.63,35.18h4.07V68.94q0,5.66,1.34,8.27,2.08,4.62,9.07,4.62t9-4.62q1.33-2.61,1.34-8.27V35.18h11.67V69q0,8.76-2.72,13.64-5.06,9-19.31,9t-19.36-9Q388,77.74,388,69V42.78a7.6,7.6,0,0,1,7.6-7.6"/><path class="cls-3" d="M479.3,35.18v2.14a7.6,7.6,0,0,1-7.6,7.59h-8.85V90.15H451.29V44.91H434.77V35.18Z"/><path class="cls-3" d="M519.17,85.26q-6.23,6.42-18,6.41t-18-6.41q-8.36-7.87-8.36-22.67,0-15.11,8.36-22.67,6.23-6.42,18-6.42t18,6.42q8.31,7.56,8.31,22.67,0,14.8-8.31,22.67M512,76.91q4-5,4-14.32t-4-14.3a13.09,13.09,0,0,0-10.83-5,13.26,13.26,0,0,0-10.89,5q-4.06,5-4.06,14.32t4.06,14.32a13.29,13.29,0,0,0,10.89,5,13.12,13.12,0,0,0,10.83-5"/><rect class="cls-3" x="549.74" y="91.77" width="5.19" height="5.19"/><path class="cls-3" d="M555.11,80.93a7.65,7.65,0,0,1-2.31,5.71c-2.16,2.16-5,2.07-8.13,2.07s-6,.09-8.14-2.07a7.64,7.64,0,0,1-2.3-5.71c0-3.9,2.16-7,6.69-7.79v5.13a2.55,2.55,0,0,0-2.19,2.63,2.46,2.46,0,0,0,.86,2c.61.46,1.33.78,5.08.78s4.47-.32,5.07-.78a2.47,2.47,0,0,0,.87-2,2.55,2.55,0,0,0-2.19-2.63V73.14c4.52.75,6.69,3.89,6.69,7.79"/><path class="cls-3" d="M552.8,57.6a8.29,8.29,0,0,1,0,11.48c-2.16,2.16-5,2.07-8.13,2.07s-6,.09-8.14-2.07a7.53,7.53,0,0,1-2.3-5.74,7.53,7.53,0,0,1,2.3-5.74c2.17-2.16,5.05-2.08,8.14-2.08s6-.08,8.13,2.08m-13.18,3.72a2.74,2.74,0,0,0,0,4c.61.46,1.3.75,5,.75s4.41-.29,5-.75a2.66,2.66,0,0,0,0-4c-.6-.46-1.26-.75-5-.75s-4.44.29-5,.75"/><polygon class="cls-3" points="554.93 37.94 545.1 37.94 550.17 40.85 550.17 44.08 545.1 46.99 554.93 46.99 554.93 52.04 534.4 52.04 534.4 47.08 543.45 42.46 534.4 37.85 534.4 32.89 554.93 32.89 554.93 37.94"/></svg>