<?xml version="1.0" encoding="utf-8"?>
<!-- Generator: Adobe Illustrator 22.1.0, SVG Export Plug-In . SVG Version: 6.00 Build 0)  -->
<svg version="1.1" id="Layer_2" xmlns="http://www.w3.org/2000/svg" xmlns:xlink="http://www.w3.org/1999/xlink" x="0px" y="0px"
	 viewBox="0 0 540 137.7" style="enable-background:new 0 0 540 137.7;" xml:space="preserve">
<style type="text/css">
	.st0{fill:#EA1C2D;}
	.st1{fill-rule:evenodd;clip-rule:evenodd;fill:#FFFFFF;}
	.st2{fill-rule:evenodd;clip-rule:evenodd;}
	.st3{fill:#FFFFFF;}
	.st4{fill:none;stroke:#3F8DCC;stroke-width:0.25;stroke-miterlimit:10;}
</style>
<g>
	<path d="M318.1,110.9c1.9,0.8,3.6,1.9,5,3.3l-4,4.7c-0.9-1.1-1.9-1.9-3.2-2.6c-1.2-0.6-2.4-1-3.7-1c-1.4,0-2.7,0.3-3.8,1
		c-1.1,0.7-2,1.6-2.7,2.8c-0.7,1.2-1,2.5-1,4c0,1.5,0.3,2.8,1,4.1c0.7,1.2,1.6,2.2,2.7,2.9c1.2,0.7,2.4,1,3.8,1
		c1.1,0,2.3-0.3,3.5-0.8c1.2-0.6,2.3-1.3,3.3-2.3l4,4.2c-1.5,1.5-3.2,2.7-5.2,3.6c-2,0.9-4,1.3-6,1.3c-2.7,0-5.1-0.6-7.3-1.8
		c-2.2-1.2-3.9-2.9-5.1-5c-1.2-2.1-1.9-4.5-1.9-7.1c0-2.6,0.6-4.9,1.9-7c1.3-2.1,3-3.7,5.2-4.9c2.2-1.2,4.7-1.8,7.4-1.8
		C314.2,109.7,316.2,110.1,318.1,110.9z"/>
	<path d="M333.7,132l-2,5h-7.1l11.7-27.1h7.1l11.4,27.1h-7.3l-1.9-5H333.7z M339.6,116.8l-3.9,10h7.8L339.6,116.8z"/>
	<path d="M377.6,137l-12.5-16.7V137h-6.5v-27.1h6.1l12.5,16.7v-16.7h6.4V137H377.6z"/>
	<path d="M396.8,132l-2,5h-7.1l11.7-27.1h7.1l11.4,27.1h-7.3l-1.9-5H396.8z M402.7,116.8l-3.9,10h7.8L402.7,116.8z"/>
	<path d="M441.7,111.6c2.2,1.1,3.9,2.7,5.1,4.8c1.2,2,1.8,4.4,1.8,7c0,2.6-0.6,5-1.9,7c-1.2,2.1-3,3.6-5.2,4.8
		c-2.2,1.1-4.8,1.7-7.6,1.7h-11.4v-27.1h11.6C437.1,109.9,439.6,110.5,441.7,111.6z M429.5,131.5h4.9c1.4,0,2.6-0.3,3.7-1
		c1.1-0.7,2-1.6,2.6-2.8c0.6-1.2,0.9-2.6,0.9-4.2c0-1.6-0.3-3-1-4.2c-0.6-1.2-1.5-2.2-2.7-2.9c-1.2-0.7-2.4-1-3.9-1h-4.6V131.5z"/>
	<path d="M458.6,132l-2,5h-7.1l11.7-27.1h7.1l11.4,27.1h-7.3l-1.9-5H458.6z M464.6,116.8l-3.9,10h7.8L464.6,116.8z"/>
</g>
<g>
	<g>
		<polygon class="st0" points="497.5,133.8 490.6,134.6 491.1,131.9 484.3,126.8 485.7,124.9 484.3,120.5 488.7,121 489.8,118.8 
			494.1,122.8 492.6,113.9 495.4,115.6 498.3,109.9 501.2,115.6 504.2,114 502.7,122.9 506.9,118.8 508.2,121.1 512.6,120.5 
			511,124.9 512.6,126.8 505.4,131.9 506.3,134.7 499.4,133.8 499.4,137 497.5,137 		"/>
	</g>
</g>
<g>
	<path class="st1" d="M519,91.6c0,4.3-3.6,7.8-7.9,7.8H11c-4.4,0-7.9-3.5-7.9-7.8V10.5c0-4.3,3.6-7.8,7.9-7.8h500
		c4.4,0,7.9,3.5,7.9,7.8V91.6z"/>
	<path class="st2" d="M11.3,0.6C5.7,0.6,1.2,5,1.2,10.5v81.2c0,5.5,4.5,9.9,10.1,9.9h500c5.6,0,10.1-4.4,10.1-9.9V10.5
		c0-5.5-4.5-9.9-10.1-9.9H11.3z M5.5,91.7V10.5c0-3.1,2.6-5.6,5.8-5.6h500c3.2,0,5.8,2.5,5.8,5.6v81.2c0,3.1-2.6,5.6-5.8,5.6h-500
		C8.1,97.3,5.5,94.7,5.5,91.7z"/>
	<rect x="94.2" y="8.9" width="80.7" height="84.3"/>
	<rect x="178.7" y="8.9" width="80.7" height="84.3"/>
	<rect x="263.1" y="8.9" width="80.7" height="84.3"/>
	<rect x="347.5" y="8.9" width="80.7" height="84.3"/>
	<rect x="9.8" y="8.9" width="80.7" height="84.3"/>
	<path class="st3" d="M52,80.7c-16.7,0-25.6-12.4-25.6-29.1c0-18.1,10.6-29.1,25.7-29.1c13.8,0,19.3,5.9,23.2,16.6L61,44.7
		c-2-5.2-3.9-8.6-9.1-8.6c-6.5,0-9.3,6.5-9.3,15.5c0,8.6,2.7,15.5,9.5,15.5c4.9,0,7-2.7,10.1-8l13.2,7C71.6,73.5,65.3,80.7,52,80.7z
		"/>
	<path class="st3" d="M139.1,57.1h-9.3l1-3.7c2-7.2,2.9-10.3,3.6-14.1c0.7,3.8,1.6,6.8,3.6,14.1L139.1,57.1z M162.9,79.5l-20.4-56.3
		h-15.8l-20.4,56.3H123l3.1-10h16.9l3.1,10H162.9z"/>
	<path class="st3" d="M227.5,41.9c0,4-2,6.3-7.1,6.3h-9.2V35.8h9.4C225.5,35.8,227.5,38.3,227.5,41.9z M244.1,79.4l-11.3-21.5
		c6.2-2.8,10.1-8,10.1-16.5c0-13.4-8.8-18.3-22-18.3h-25.2v56.3h15.4v-19h6.3l9.2,19H244.1z"/>
	<path class="st3" d="M296.9,36.4v7.9h17.6v13.2h-17.6v22h-15.5V23.1h44.6v13.3H296.9z"/>
	<path class="st3" d="M392.5,57.1h-9.3l1-3.7c2-7.2,2.9-10.3,3.6-14.1c0.7,3.8,1.6,6.8,3.6,14.1L392.5,57.1z M416.3,79.4l-20.4-56.3
		H380l-20.4,56.3h16.7l3.1-10h16.9l3.1,10H416.3z"/>
	<path d="M431.9,8.9v84.3h80.7V8.9H431.9z M464.5,91l1.4-2c2.3-3.5,4.9-7.4,6.3-10.3c1.5,3,3.3,6.8,5.5,10.3l1.3,2
		C474.2,91,469.3,91,464.5,91z M510.4,91c0,0-5.1,0-11.9,0l-17-24.1L501,39.5h-19.4l-3.4,5.4c-2.2,3.5-4.6,7.3-6,10.2
		c-1.3-3-3.7-6.7-5.9-10.2l-3.4-5.4h-19.8l19.5,27.7L445.4,91c-6.3,0-11.3,0-11.3,0V11.1h76.3V91z"/>
	<g>
		<path d="M532.5,15.6c-4,0-7-3-7-7c0-4,3-7,7-7s7,3,7,7C539.5,12.6,536.4,15.6,532.5,15.6z M532.5,2.8c-3.3,0-5.8,2.5-5.8,5.8
			s2.5,5.8,5.8,5.8c3.3,0,5.8-2.5,5.8-5.8S535.8,2.8,532.5,2.8z M534.1,9.3l1.6,3.1h-1.5l-1.5-2.9h-1.5v2.9h-1.3V4.7h3.3
			c1.4,0,2.5,0.7,2.5,2.3C535.7,8.2,535,9,534.1,9.3z M533.1,6h-2v2.2h2c0.7,0,1.2-0.3,1.2-1.1C534.4,6.3,533.8,6,533.1,6z"/>
	</g>
</g>
<path class="st4" d="M479.8,138.3"/>
</svg>
