<svg id="Layer_1" data-name="Layer 1" xmlns="http://www.w3.org/2000/svg" viewBox="0 0 230 120"><defs><style>.cls-1{fill:#f8961d;}.cls-2{fill:#44bb92;}.cls-3{fill:#fcd228;}.cls-4{fill:#f7f7f7;}.cls-5{fill:#26996e;}.cls-6{fill:#1e3d6b;}</style></defs><title>Create posting</title><rect class="cls-1" width="230" height="120"/><path class="cls-2" d="M132.76,85.11a3.46,3.46,0,0,1-3.46-3.46V25.72a3.46,3.46,0,0,1,6.92,0V81.65A3.46,3.46,0,0,1,132.76,85.11Z"/><path class="cls-3" d="M136.22,43.52v21.2a12,12,0,0,0,0-21.2Z"/><path class="cls-2" d="M93.61,66.65v3.46H67.88a3.47,3.47,0,0,1-3.46-3.46V41.28a3.47,3.47,0,0,1,3.46-3.46H93.61V66.65Z"/><path class="cls-4" d="M64.42,43.06a12,12,0,0,0,0,22.12Z"/><path class="cls-5" d="M69.32,70.11v2.62a1.87,1.87,0,0,0,1.85,1.86H88.94a1.87,1.87,0,0,0,1.86-1.86V70.11Z"/><path class="cls-2" d="M94.05,97.17,86,74.59H74.86l8.06,22.58a2.63,2.63,0,0,0,2.32,1.63H92.9A1.14,1.14,0,0,0,94.05,97.17Z"/><polygon class="cls-4" points="129.3 27.76 93.61 38.02 93.61 41.28 93.61 66.65 93.61 69.91 129.3 80.17 129.3 27.76"/><path class="cls-3" d="M93.61,69.91v.2H90.8v2.62a1.87,1.87,0,0,1-1.86,1.86H86l1.86,5.21a9.77,9.77,0,0,0,8.46-9.12Z"/><path class="cls-5" d="M85.11,55.69H74a1.73,1.73,0,0,1,0-3.46H85.11a1.73,1.73,0,0,1,0,3.46Z"/><path class="cls-5" d="M85.11,64.34H74a1.73,1.73,0,0,1,0-3.46H85.11a1.73,1.73,0,1,1,0,3.46Z"/><path class="cls-5" d="M85.11,47H74a1.73,1.73,0,0,1,0-3.46H85.11a1.73,1.73,0,1,1,0,3.46Z"/><path class="cls-4" d="M161.5,55H150.85a1.76,1.76,0,0,1,0-3.52H161.5a1.76,1.76,0,0,1,0,3.52Z"/><path class="cls-4" d="M148.79,41.93a1.76,1.76,0,0,1-.88-3.29l9.22-5.32a1.76,1.76,0,1,1,1.76,3l-9.22,5.32A1.77,1.77,0,0,1,148.79,41.93Z"/><path class="cls-4" d="M158,73.41a1.77,1.77,0,0,1-.88-.24l-9.22-5.32a1.77,1.77,0,1,1,1.76-3.06l9.22,5.33a1.76,1.76,0,0,1,.65,2.41A1.78,1.78,0,0,1,158,73.41Z"/><rect class="cls-6" x="160.85" y="64.72" width="9.16" height="35.43" rx="3.5" ry="3.5"/><rect class="cls-6" x="160.52" y="65.75" width="9.19" height="35.33" rx="3.5" ry="3.5" transform="translate(81.69 248.53) rotate(-90)"/></svg>