<svg xmlns="http://www.w3.org/2000/svg" viewBox="0 0 230 120"><defs><style>.cls-1{fill:#59b0e1;}.cls-2{fill:#dbdbda;}.cls-3{fill:#f6f7f7;}.cls-4{fill:#838383;}.cls-5{fill:#b0b0b0;}.cls-6{fill:#d2d2d2;}.cls-7{fill:#696969;}</style></defs><title>job-templates</title><g id="Layer_2" data-name="Layer 2"><rect class="cls-1" width="230" height="120"/></g><g id="Layer_3" data-name="Layer 3"><g id="Paper"><path class="cls-2" d="M145.66,33.5a4.28,4.28,0,0,0,4.27,4.28h15.19L145.66,18.26Z"/><path class="cls-3" d="M145.66,33.5V18.26H69.14a4.28,4.28,0,0,0-4.26,4.28V97.46a4.28,4.28,0,0,0,4.26,4.28h91.72a4.28,4.28,0,0,0,4.26-4.28V37.78H149.93A4.28,4.28,0,0,1,145.66,33.5Z"/></g><path class="cls-4" d="M128.79,78.15A2.11,2.11,0,0,1,126.68,76h0V41.9a2.11,2.11,0,0,1,4.22,0V76A2.11,2.11,0,0,1,128.79,78.15Z"/><path class="cls-5" d="M130.9,52.76V65.7a7.32,7.32,0,0,0,0-12.94Z"/><path class="cls-4" d="M104.89,66.88V69H89.19a2.1,2.1,0,0,1-2.11-2.11V51.4a2.1,2.1,0,0,1,2.11-2.11h15.7Z"/><path class="cls-6" d="M87.08,52.48a7.33,7.33,0,0,0,0,13.51Z"/><path class="cls-7" d="M90.07,69v1.6a1.14,1.14,0,0,0,1.13,1.14H102a1.14,1.14,0,0,0,1.14-1.14V69Z"/><path class="cls-4" d="M105.16,85.51l-4.91-13.78h-6.8l4.92,13.78a1.62,1.62,0,0,0,1.42,1h4.67a.7.7,0,0,0,.77-.62A.72.72,0,0,0,105.16,85.51Z"/><polygon class="cls-6" points="126.68 43.15 104.89 49.41 104.89 51.4 104.89 66.88 104.89 68.87 126.68 75.14 126.68 43.15"/><path class="cls-5" d="M104.89,68.87V69h-1.71v1.6A1.14,1.14,0,0,1,102,71.73h-1.79l1.13,3.18a6,6,0,0,0,5.17-5.57Z"/><path class="cls-7" d="M99.71,60.19H92.92a1.06,1.06,0,0,1,0-2.11h6.79a1.06,1.06,0,0,1,0,2.11Z"/><path class="cls-7" d="M99.71,65.47H92.92a1.06,1.06,0,0,1,0-2.11h6.79a1.06,1.06,0,0,1,0,2.11Z"/><path class="cls-7" d="M99.71,54.89H92.92a1.06,1.06,0,0,1,0-2.11h6.79a1.06,1.06,0,0,1,0,2.11Z"/><path class="cls-6" d="M146.33,59.77h-6.5a1.08,1.08,0,0,1,0-2.15h6.5a1.08,1.08,0,1,1,0,2.15Z"/><path class="cls-6" d="M138.58,51.79a1.07,1.07,0,0,1-.54-2l5.63-3.25A1.07,1.07,0,1,1,145,48.2a1,1,0,0,1-.28.17l-5.63,3.25A1.11,1.11,0,0,1,138.58,51.79Z"/><path class="cls-6" d="M144.2,71a1,1,0,0,1-.54-.15L138,67.62a1.08,1.08,0,1,1,.94-2l.14.08L144.73,69a1.07,1.07,0,0,1,.4,1.47h0A1.08,1.08,0,0,1,144.2,71Z"/></g></svg>