<svg xmlns="http://www.w3.org/2000/svg" viewBox="0 0 230 120"><defs><style>.cls-1{isolation:isolate;}.cls-2{fill:#1e3d6b;}.cls-3{fill:#dcdbdb;}.cls-4{fill:#f7f7f7;}.cls-5{fill:#035968;mix-blend-mode:color-burn;}.cls-6{fill:#69cce8;}.cls-7{fill:#4c4c4d;}.cls-8{opacity:0.8;}.cls-9{fill:#fff;}</style></defs><title>CarsandJobs-Icons</title><g class="cls-1"><g id="Layer_1" data-name="Layer 1"><rect class="cls-2" width="230" height="120"/><path class="cls-3" d="M113.89,34.33a3.45,3.45,0,0,0,3.44,3.44h12.24L113.89,22.09Z"/><path class="cls-4" d="M113.89,34.33V22.09H69.18a3.44,3.44,0,0,0-3.44,3.43V99.2a3.45,3.45,0,0,0,3.44,3.43h56.95a3.45,3.45,0,0,0,3.44-3.43V37.77H117.33A3.45,3.45,0,0,1,113.89,34.33Z"/><rect class="cls-3" x="80.13" y="46.17" width="35.06" height="3.59"/><rect class="cls-3" x="80.13" y="55.5" width="35.06" height="3.59"/><rect class="cls-3" x="80.13" y="64.84" width="35.06" height="3.59"/><path class="cls-5" d="M176.24,80.32l-17-17-4.69-4.69a27.9,27.9,0,1,0-6.87,7.13l4.56,4.56,17,17a4.95,4.95,0,0,0,7-7Z"/><path class="cls-4" d="M149.85,22.18a27.91,27.91,0,1,0,0,39.47A27.91,27.91,0,0,0,149.85,22.18Z"/><path class="cls-6" d="M144.87,27.17a20.86,20.86,0,1,1-29.5,0A20.86,20.86,0,0,1,144.87,27.17Z"/><path class="cls-4" d="M149.85,61.65a27.78,27.78,0,0,1-3.41,2.86L151,69.1l7-7-4.69-4.69A28.3,28.3,0,0,1,149.85,61.65Z"/><path class="cls-7" d="M175,79.07l-17-17-7,7,13.35,13.34L168,86.06a4.95,4.95,0,1,0,7-7Z"/><g class="cls-8"><path class="cls-9" d="M143.19,43.78a1.87,1.87,0,0,1-1.87-1.87,11.41,11.41,0,0,0-11.4-11.4,1.87,1.87,0,1,1,0-3.74,15.15,15.15,0,0,1,15.14,15.14A1.86,1.86,0,0,1,143.19,43.78Z"/></g></g></g></svg>