<svg id="Layer_1" data-name="Layer 1" xmlns="http://www.w3.org/2000/svg" viewBox="0 0 230 120"><defs><style>.cls-1{fill:#939393;}.cls-2{fill:#eaeaea;}.cls-3{fill:#3a98c1;}.cls-4{fill:#59b0e1;}.cls-5{fill:#185b73;}.cls-6{fill:#d3d3d3;}.cls-7{opacity:0.7;}.cls-8{fill:#434343;}</style></defs><title>CarsandJobs-Icons</title><polyline class="cls-1" points="133.2 35.03 98.04 35.03 74.44 35.03 74.44 89.82 159.08 89.82 159.08 35.03 134.58 35.03"/><rect class="cls-2" x="73.06" y="33.65" width="84.64" height="54.79"/><path class="cls-3" d="M112.6,75.17a1.71,1.71,0,0,0-.61-.86,16.32,16.32,0,0,0-2.9-1.18,28.47,28.47,0,0,1-4.1-2c-1-.63-2.24-1.37-2.35-2.72,0-.32-.15-1.35,0-1.61a14,14,0,0,0,1-1.56H90.48a14,14,0,0,0,1,1.56,4.12,4.12,0,0,1,0,1.61c-.11,1.35-1.32,2.09-2.35,2.72a28.47,28.47,0,0,1-4.1,2,16.32,16.32,0,0,0-2.9,1.18,1.71,1.71,0,0,0-.61.86c0,.14-.4,1-.31,1.13a20.13,20.13,0,0,0,7.18,5.37l.13,0,.1,0c.41.18.83.34,1.26.5l.38.12,1,.32.24.06c.63.17,1.28.32,1.94.43a21.27,21.27,0,0,0,7.12,0c.67-.11,1.31-.26,2-.43l.24-.06,1-.32.37-.12c.43-.16.85-.32,1.27-.5l.1,0,.12,0a20.08,20.08,0,0,0,7.19-5.37C113,76.2,112.65,75.31,112.6,75.17Z"/><path class="cls-4" d="M112,74.31a16.32,16.32,0,0,0-2.9-1.18,28.47,28.47,0,0,1-4.1-2c-1-.63-2.24-1.37-2.35-2.72,0-.32-.15-1.35,0-1.61a14,14,0,0,0,1-1.56h-6.6V83.49h0a21.83,21.83,0,0,0,3.56-.3c.67-.11,1.31-.26,2-.43l.24-.06,1-.32.37-.12c.43-.16.85-.32,1.27-.5l.1,0,.12,0a20.08,20.08,0,0,0,7.19-5.37c.08-.1-.26-1-.31-1.13A1.71,1.71,0,0,0,112,74.31Z"/><path class="cls-5" d="M102.64,68.37h0c0-.32-.15-1.35,0-1.61a14,14,0,0,0,1-1.56H90.48a14,14,0,0,0,1,1.56,4.12,4.12,0,0,1,0,1.61h0a2.22,2.22,0,0,1-.15.59,11,11,0,0,0,5.7,3.43,11,11,0,0,0,5.7-3.43,2.21,2.21,0,0,1-.14-.59Z"/><path class="cls-4" d="M106.27,56.93c.07-.68.14-1.38.18-2.14,0,0,1.62-10.54-9.37-10.54V70.42s5.41-.86,8-8.23c.62.05,1.35-1,1.65-2.41S106.82,57.19,106.27,56.93Z"/><path class="cls-3" d="M87.72,54.79c0,.76.1,1.46.18,2.14-.56.25-.78,1.47-.48,2.85s1,2.45,1.65,2.41c2.61,7.37,8,8.23,8,8.23V44.25C86.1,44.25,87.72,54.79,87.72,54.79Z"/><rect class="cls-6" x="121.62" y="49.24" width="26.39" height="4.48"/><rect class="cls-6" x="121.62" y="59.74" width="26.39" height="4.48"/><rect class="cls-6" x="121.62" y="70.24" width="26.39" height="4.48"/><g class="cls-7"><path class="cls-8" d="M121.62,26.85a6.69,6.69,0,1,0-13.38,0H96.66v12H133.2v-12Z"/></g></svg>