<svg xmlns="http://www.w3.org/2000/svg" viewBox="0 0 92.01 91.14">
	<defs>
		<style>.cls-1{isolation:isolate;}.cls-2{fill:#005968;mix-blend-mode:color-burn;}.cls-3{fill:#f6f7f7;}.cls-4{fill:#69cbe7;}.cls-5{fill:#4d4c4c;}.cls-6{opacity:0.8;}.cls-7{fill:#fff;}</style>
	</defs>
	<title>Artboard 1</title>
	<g class="cls-1">
		<g id="Layer_1" data-name="Layer 1">
			<path class="cls-2" d="M90.24,80.84,69.56,60.16l-5.71-5.71a34,34,0,1,0-8.37,8.68L61,68.69,81.71,89.37a6,6,0,0,0,8.53-8.53Z"/>
			<path class="cls-3" d="M58.07,10a34,34,0,1,0,0,48.1A34,34,0,0,0,58.07,10Z"/>
			<path class="cls-4" d="M52,16a25.43,25.43,0,1,1-36,0A25.43,25.43,0,0,1,52,16Z"/>
			<path class="cls-3" d="M58.07,58.07a33.39,33.39,0,0,1-4.16,3.5l5.59,5.58L68,58.63l-5.72-5.72A34.29,34.29,0,0,1,58.07,58.07Z"/>
			<path class="cls-5" d="M88.71,79.31,68,58.63,59.5,67.15,75.77,83.42l4.41,4.41a6,6,0,0,0,8.53-8.52Z"/>
			<g class="cls-6">
				<path class="cls-7" d="M50,36.3A2.28,2.28,0,0,1,47.68,34,13.93,13.93,0,0,0,33.77,20.11a2.28,2.28,0,0,1,0-4.56A18.5,18.5,0,0,1,52.24,34,2.28,2.28,0,0,1,50,36.3Z"/>
			</g>
		</g>
	</g>
</svg>