<?xml version="1.0" standalone="no"?>
<!DOCTYPE svg PUBLIC "-//W3C//DTD SVG 20010904//EN"
 "http://www.w3.org/TR/2001/REC-SVG-20010904/DTD/svg10.dtd">
<svg version="1.0" xmlns="http://www.w3.org/2000/svg"
 width="1040.000000pt" height="1040.000000pt" viewBox="0 0 1040.000000 1040.000000"
 preserveAspectRatio="xMidYMid meet">
<metadata>
Created by potrace 1.11, written by Peter Selinger 2001-2013
</metadata>
<g transform="translate(0.000000,1040.000000) scale(0.100000,-0.100000)"
fill="#000000" stroke="none">
<path d="M4758 9015 c-1 -2 -79 -6 -173 -10 -227 -8 -315 -13 -405 -19 -41 -3
-120 -8 -175 -12 -117 -6 -197 -12 -280 -19 -33 -3 -96 -7 -139 -10 -44 -2
-107 -7 -140 -10 -34 -4 -81 -8 -106 -9 -53 -4 -98 -12 -200 -34 -41 -9 -79
-16 -85 -17 -5 0 -30 -7 -55 -15 -25 -7 -50 -14 -55 -15 -30 -6 -176 -70 -243
-106 -121 -65 -228 -145 -337 -254 -95 -94 -225 -252 -225 -274 0 -5 -4 -11
-9 -13 -10 -4 -97 -144 -130 -208 -12 -25 -34 -65 -47 -90 -14 -25 -54 -100
-90 -168 -36 -67 -73 -137 -83 -155 -10 -18 -33 -59 -51 -92 -18 -33 -73 -131
-121 -218 -49 -87 -89 -162 -89 -166 0 -5 -3 -11 -7 -13 -5 -1 -21 -28 -37
-58 -16 -30 -44 -80 -62 -111 -19 -31 -34 -62 -34 -68 0 -6 -4 -11 -10 -11 -5
0 -10 -6 -10 -14 0 -8 -6 -21 -13 -28 -6 -7 -22 -33 -34 -58 -42 -83 -77 -145
-85 -148 -4 -2 -8 -7 -8 -11 0 -4 -27 -56 -60 -115 -33 -59 -60 -112 -60 -117
0 -5 -4 -9 -9 -9 -5 0 -14 -12 -20 -27 -5 -16 -29 -62 -52 -103 -59 -107 -152
-280 -169 -315 -8 -16 -17 -32 -21 -35 -7 -6 -130 -259 -156 -320 -11 -25 -28
-65 -37 -90 -10 -25 -22 -54 -27 -65 -4 -11 -18 -51 -29 -90 -12 -38 -25 -77
-28 -85 -6 -18 -5 -15 -32 -120 -12 -47 -24 -96 -26 -110 -3 -14 -7 -32 -9
-40 -3 -8 -7 -35 -10 -59 -3 -24 -7 -47 -9 -50 -2 -3 -7 -40 -11 -81 -3 -41
-8 -82 -11 -91 -19 -68 -19 -476 1 -649 3 -25 7 -65 9 -90 3 -25 7 -57 10 -70
7 -30 16 -93 21 -138 2 -18 6 -41 9 -50 3 -9 8 -30 11 -47 2 -16 7 -41 11 -55
3 -14 10 -43 15 -65 5 -22 12 -53 14 -68 3 -15 9 -36 15 -47 6 -11 10 -23 9
-27 -1 -4 0 -10 1 -13 1 -3 3 -12 5 -20 11 -41 25 -91 43 -150 147 -477 170
-563 197 -750 11 -78 20 -203 19 -265 -6 -216 -6 -345 1 -375 11 -56 13 -65
15 -65 1 0 4 -11 6 -24 6 -32 56 -131 66 -131 4 0 8 -6 8 -12 0 -15 61 -68
112 -97 61 -37 150 -52 325 -57 182 -4 225 -8 242 -18 6 -4 11 -3 11 2 0 6 18
6 42 1 60 -10 223 -9 288 3 119 21 222 96 269 194 13 27 27 56 31 64 9 19 24
86 36 160 10 68 47 191 60 205 8 7 14 20 14 27 0 7 13 27 28 43 31 34 112 100
112 91 0 -4 12 0 28 7 31 16 92 28 177 33 80 6 4885 5 4955 0 155 -12 221 -37
295 -111 71 -72 108 -155 130 -295 6 -40 25 -124 32 -140 3 -8 7 -20 9 -27 5
-26 64 -119 95 -151 39 -40 136 -87 209 -101 52 -9 309 -7 375 4 17 3 101 7
187 10 87 2 172 8 190 11 18 4 41 6 51 6 9 0 17 3 17 9 0 5 8 9 18 9 32 0 119
59 165 111 83 94 118 229 111 423 -7 181 -7 273 2 356 4 41 7 90 8 107 1 18 5
33 10 33 5 0 7 2 4 6 -3 3 -2 22 3 42 5 20 12 53 15 72 3 19 10 53 17 75 6 22
12 45 12 50 2 14 24 96 35 125 5 14 23 72 40 130 18 58 41 130 51 161 10 30
20 66 23 80 3 13 12 47 21 74 9 28 18 57 20 65 2 8 10 42 18 75 9 33 18 71 21
85 9 39 26 123 31 145 2 11 4 20 5 20 1 0 3 12 5 26 3 25 10 66 19 119 43 241
52 649 20 900 -10 84 -14 110 -29 190 -24 132 -25 136 -56 243 -16 56 -31 107
-32 112 -10 35 -19 63 -27 80 -4 11 -16 43 -25 70 -10 28 -26 68 -35 90 -10
22 -26 58 -36 80 -9 22 -18 42 -19 45 0 3 -35 73 -76 155 -145 287 -224 440
-230 445 -3 3 -18 30 -33 60 -16 30 -43 82 -62 115 -18 33 -42 76 -52 95 -10
19 -29 53 -42 75 -12 22 -38 69 -57 105 -19 36 -42 79 -52 95 -19 32 -91 163
-119 217 -9 18 -19 35 -23 38 -3 3 -13 21 -22 40 -10 19 -36 67 -58 105 -22
39 -43 78 -46 88 -3 9 -9 17 -14 17 -5 0 -9 9 -9 19 0 11 -4 22 -9 25 -8 6
-94 154 -96 166 0 3 -7 16 -15 30 -32 56 -71 128 -92 170 -13 25 -26 47 -29
50 -3 3 -19 33 -35 68 -16 34 -32 62 -36 62 -5 0 -8 7 -8 14 0 12 -34 79 -80
156 -5 8 -19 33 -31 55 -29 55 -92 149 -101 153 -5 2 -8 8 -8 14 0 16 -118
157 -194 233 -81 80 -139 129 -178 153 -16 9 -28 20 -28 24 0 4 -6 8 -14 8 -8
0 -16 3 -18 8 -14 31 -327 170 -427 188 -14 3 -28 7 -31 9 -4 2 -22 7 -41 10
-19 3 -50 10 -69 15 -55 13 -232 33 -417 45 -43 3 -107 8 -143 11 -65 5 -93 7
-285 18 -55 4 -125 8 -155 11 -30 3 -116 7 -190 11 -74 3 -169 8 -210 10 -85
6 -1066 14 -1072 9z m902 -789 c91 -4 199 -9 240 -12 41 -3 102 -7 135 -9 107
-7 199 -15 245 -20 25 -4 70 -8 100 -10 30 -2 75 -7 100 -11 25 -4 61 -8 80
-10 19 -1 35 -3 35 -4 0 -2 20 -5 105 -15 36 -4 74 -9 85 -11 11 -2 38 -7 60
-9 22 -3 78 -12 123 -20 46 -8 87 -14 90 -13 8 2 113 -28 150 -43 79 -32 201
-103 249 -146 124 -111 152 -148 258 -338 30 -55 69 -125 86 -155 112 -198
168 -308 232 -450 46 -105 101 -272 113 -350 2 -14 9 -44 15 -68 15 -54 8 -61
-62 -67 -30 -2 -65 -6 -79 -9 -14 -3 -50 -7 -80 -10 -30 -3 -66 -8 -80 -10
-14 -3 -56 -7 -95 -11 -38 -3 -88 -8 -110 -11 -77 -9 -163 -18 -295 -29 -41
-4 -91 -8 -110 -10 -154 -15 -417 -34 -714 -50 -48 -3 -92 -8 -97 -11 -5 -3
-9 0 -9 6 0 6 -5 8 -10 5 -52 -32 -1668 -39 -2355 -10 -188 8 -332 15 -395 20
-36 3 -96 8 -135 10 -102 6 -214 15 -265 20 -25 2 -79 7 -120 10 -41 2 -91 7
-110 9 -51 7 -179 18 -222 20 -21 0 -38 3 -38 6 0 3 -12 5 -27 6 -39 0 -194
15 -218 21 -11 2 -42 6 -70 9 -27 2 -59 6 -70 9 -11 2 -51 7 -90 10 -38 4 -71
8 -72 9 -3 2 5 48 21 132 2 12 14 54 26 95 12 41 23 79 25 84 1 6 6 21 12 35
6 14 16 43 24 65 8 22 18 43 22 46 5 3 8 8 6 10 -6 10 159 347 181 369 3 3 10
14 16 25 184 340 229 412 318 500 57 57 201 165 219 165 3 0 26 10 53 22 27
12 52 23 57 24 4 1 9 3 12 4 3 1 8 3 13 4 4 2 25 7 47 14 22 6 54 13 70 15 17
3 59 10 95 16 36 6 81 12 100 15 19 2 51 7 70 10 77 13 117 18 160 21 25 2 59
6 75 10 39 7 151 19 193 19 17 1 32 3 32 6 0 3 19 6 43 6 23 1 74 5 112 8 39
4 104 9 145 12 41 2 100 6 130 9 30 2 147 7 260 11 113 3 206 7 207 8 5 4 543
-2 683 -8z m-3631 -3021 c19 -3 37 -8 41 -10 4 -2 21 -7 39 -10 40 -7 142 -58
160 -79 8 -9 18 -16 24 -16 8 0 101 -92 142 -140 35 -43 96 -175 111 -245 19
-85 21 -212 4 -255 -1 -3 -2 -8 -1 -12 0 -3 -8 -30 -18 -60 -16 -46 -30 -75
-77 -159 -18 -33 -138 -159 -151 -159 -6 0 -13 -4 -15 -8 -6 -14 -96 -72 -112
-72 -9 0 -16 -4 -16 -10 0 -5 -6 -10 -13 -10 -7 0 -45 -11 -85 -24 -40 -13
-72 -19 -72 -14 0 5 -7 5 -17 0 -30 -15 -169 -4 -224 17 -13 5 -28 10 -34 11
-5 1 -20 6 -33 11 -13 5 -26 9 -29 9 -12 0 -143 85 -143 92 0 5 -5 8 -10 8
-13 0 -82 72 -119 125 -83 117 -111 203 -113 350 -4 154 26 260 110 387 94
145 263 250 439 274 27 3 49 7 50 8 5 4 128 -2 162 -9z m6574 1 c189 -27 379
-170 466 -351 25 -52 50 -118 57 -150 46 -218 -17 -425 -180 -589 -130 -131
-289 -200 -461 -199 -75 0 -179 20 -224 43 -9 4 -41 20 -71 36 -163 82 -307
270 -336 438 -19 112 2 308 42 384 8 15 14 31 14 35 0 19 78 126 129 178 77
77 206 147 305 165 112 21 167 23 259 10z m-1818 -872 c64 -26 91 -49 117 -98
23 -44 27 -84 15 -141 -9 -45 -46 -105 -64 -105 -7 0 -13 -4 -13 -9 0 -8 -70
-36 -120 -49 -8 -2 -685 -4 -1505 -4 -1571 -2 -1564 -2 -1627 43 -15 10 -30
19 -33 19 -14 0 -48 46 -61 82 -49 138 37 260 196 280 14 2 705 3 1535 2 1484
0 1511 -1 1560 -20z"/>
<path d="M10028 7305 c-2 -3 -87 -7 -189 -10 -101 -2 -197 -6 -214 -9 -16 -2
-63 -7 -102 -11 -40 -4 -81 -8 -90 -10 -10 -2 -21 -4 -24 -4 -4 -1 -3 -16 1
-33 18 -71 22 -84 30 -103 4 -11 29 -85 55 -165 81 -250 150 -371 238 -415 42
-22 60 -25 132 -25 95 -1 157 11 375 71 19 5 42 11 50 14 8 2 35 10 60 17 l45
14 3 323 2 323 -30 -4 c-16 -3 -30 -2 -30 1 0 7 -20 8 -181 14 -59 2 -111 7
-116 10 -6 4 -12 4 -15 2z"/>
<path d="M197 7294 c-4 -4 -93 -11 -175 -13 l-22 -1 2 -322 3 -321 100 -30
c92 -27 146 -42 185 -51 8 -2 41 -11 73 -19 31 -8 57 -13 57 -10 0 3 6 1 13
-4 11 -8 165 -10 198 -1 9 2 28 11 42 21 15 9 29 17 32 17 14 0 67 67 104 133
37 66 174 449 187 523 1 6 5 20 8 30 4 15 1 19 -17 20 -12 0 -53 4 -92 8 -38
4 -92 10 -120 12 -69 7 -572 13 -578 8z"/>
</g>
</svg>
