<?xml version="1.0" encoding="UTF-8" standalone="no"?>
<svg
   xmlns:dc="http://purl.org/dc/elements/1.1/"
   xmlns:cc="http://creativecommons.org/ns#"
   xmlns:rdf="http://www.w3.org/1999/02/22-rdf-syntax-ns#"
   xmlns:svg="http://www.w3.org/2000/svg"
   xmlns="http://www.w3.org/2000/svg"
   viewBox="0 0 229.8 141.37334"
   height="141.37334"
   width="229.8"
   xml:space="preserve"
   id="svg2"
   version="1.1"><metadata
     id="metadata8"><rdf:RDF><cc:Work
         rdf:about=""><dc:format>image/svg+xml</dc:format><dc:type
           rdf:resource="http://purl.org/dc/dcmitype/StillImage" /></cc:Work></rdf:RDF></metadata><defs
     id="defs6" /><g
     transform="matrix(1.3333333,0,0,-1.3333333,0,141.37333)"
     id="g10"><g
       transform="scale(0.1)"
       id="g12"><path
         id="path14"
         style="fill:#222d65;fill-opacity:1;fill-rule:nonzero;stroke:none"
         d="M 49.4063,138.145 16.3242,204.168 V 129.836 H 0.257813 v 95.16 H 25.3086 l 28.7266,-59.762 28.7226,59.762 h 24.9142 v -95.16 H 91.6055 v 74.332 L 58.3906,138.145 h -8.9843" /><path
         id="path16"
         style="fill:#222d65;fill-opacity:1;fill-rule:nonzero;stroke:none"
         d="m 215.93,166.32 -16.34,36.625 -16.199,-36.625 z m -8.172,58.676 41.93,-95.16 h -17.7 l -9.66,21.648 h -45.609 l -9.258,-21.648 h -17.152 l 41.929,95.16 h 15.52" /><path
         id="path18"
         style="fill:#222d65;fill-opacity:1;fill-rule:nonzero;stroke:none"
         d="m 365.953,153.934 v 71.062 h 16.063 v -95.16 H 364.59 l -53.91,69.43 v -69.43 h -16.067 v 95.16 h 16.067 l 55.273,-71.062" /><path
         id="path20"
         style="fill:#222d65;fill-opacity:1;fill-rule:nonzero;stroke:none"
         d="m 439.191,224.996 h 16.067 v -95.16 h -16.067 v 95.16" /><path
         id="path22"
         style="fill:#222d65;fill-opacity:1;fill-rule:nonzero;stroke:none"
         d="m 549.875,210.297 v -80.461 h -16.062 v 80.461 h -28.864 v 14.699 h 73.785 v -14.699 h -28.859" /><path
         id="path24"
         style="fill:#222d65;fill-opacity:1;fill-rule:nonzero;stroke:none"
         d="m 693.973,202.535 c -6.493,6.715 -14.453,10.07 -23.895,10.07 -9.437,0 -17.402,-3.355 -23.89,-10.07 -6.493,-6.719 -9.735,-14.863 -9.735,-24.437 0,-9.578 3.242,-17.719 9.735,-24.434 6.488,-6.719 14.453,-10.078 23.89,-10.078 9.442,0 17.402,3.359 23.895,10.078 6.488,6.715 9.734,14.856 9.734,24.434 0,9.574 -3.246,17.718 -9.734,24.437 z m 11.773,-59.558 c -9.621,-9.395 -21.508,-14.09 -35.668,-14.09 -14.156,0 -26.047,4.695 -35.668,14.09 -9.621,9.39 -14.43,21.097 -14.43,35.121 0,14.023 4.809,25.73 14.43,35.125 9.621,9.394 21.512,14.09 35.668,14.09 14.16,0 26.047,-4.696 35.668,-14.09 9.621,-9.395 14.434,-21.102 14.434,-35.125 0,-14.024 -4.813,-25.731 -14.434,-35.121" /><path
         id="path26"
         style="fill:#222d65;fill-opacity:1;fill-rule:nonzero;stroke:none"
         d="m 783.617,144.676 h 25.184 c 5.898,0 10.414,0.929 13.543,2.793 3.133,1.855 4.699,5.375 4.699,10.551 0,8.437 -6.762,12.66 -20.285,12.66 h -23.141 z m 0,40.844 h 20.418 c 11.617,0 17.426,3.945 17.426,11.839 0,4.539 -1.406,7.809 -4.219,9.805 -2.812,1.992 -7.172,2.992 -13.066,2.992 h -20.559 z m 25.59,-55.684 h -41.656 v 95.16 h 37.027 c 6.445,0 12.004,-0.769 16.68,-2.312 4.672,-1.543 8.187,-3.633 10.551,-6.262 4.265,-4.902 6.398,-10.438 6.398,-16.609 0,-7.446 -2.406,-12.981 -7.219,-16.61 -1.633,-1.269 -2.765,-2.066 -3.402,-2.379 -0.633,-0.324 -1.766,-0.844 -3.398,-1.57 5.898,-1.274 10.589,-3.926 14.085,-7.961 3.493,-4.043 5.243,-9.055 5.243,-15.043 0,-6.629 -2.27,-12.48 -6.809,-17.566 -5.262,-5.899 -14.43,-8.848 -27.5,-8.848" /><path
         id="path28"
         style="fill:#222d65;fill-opacity:1;fill-rule:nonzero;stroke:none"
         d="m 947.66,166.32 -16.336,36.625 -16.199,-36.625 z m -8.168,58.676 41.934,-95.16 h -17.703 l -9.66,21.648 h -45.61 l -9.258,-21.648 h -17.152 l 41.93,95.16 h 15.519" /><path
         id="path30"
         style="fill:#222d65;fill-opacity:1;fill-rule:nonzero;stroke:none"
         d="m 1130.77,138.145 -33.09,66.023 v -74.332 h -16.06 v 95.16 h 25.05 l 28.73,-59.762 28.72,59.762 h 24.91 v -95.16 h -16.06 v 74.332 l -33.22,-66.023 h -8.98" /><path
         id="path32"
         style="fill:#222d65;fill-opacity:1;fill-rule:nonzero;stroke:none"
         d="m 1311.76,202.535 c -6.49,6.715 -14.45,10.07 -23.89,10.07 -9.44,0 -17.41,-3.355 -23.9,-10.07 -6.49,-6.719 -9.73,-14.863 -9.73,-24.437 0,-9.578 3.24,-17.719 9.73,-24.434 6.49,-6.719 14.46,-10.078 23.9,-10.078 9.44,0 17.4,3.359 23.89,10.078 6.49,6.715 9.74,14.856 9.74,24.434 0,9.574 -3.25,17.718 -9.74,24.437 z m 11.77,-59.558 c -9.62,-9.395 -21.51,-14.09 -35.66,-14.09 -14.16,0 -26.05,4.695 -35.68,14.09 -9.62,9.39 -14.42,21.097 -14.42,35.121 0,14.023 4.8,25.73 14.42,35.125 9.63,9.394 21.52,14.09 35.68,14.09 14.15,0 26.04,-4.696 35.66,-14.09 9.62,-9.395 14.44,-21.102 14.44,-35.125 0,-14.024 -4.82,-25.731 -14.44,-35.121" /><path
         id="path34"
         style="fill:#222d65;fill-opacity:1;fill-rule:nonzero;stroke:none"
         d="m 1424.14,210.297 v -80.461 h -16.07 v 80.461 h -28.86 v 14.699 h 73.78 v -14.699 h -28.85" /><path
         id="path36"
         style="fill:#222d65;fill-opacity:1;fill-rule:nonzero;stroke:none"
         d="m 1568.24,202.535 c -6.5,6.715 -14.46,10.07 -23.9,10.07 -9.44,0 -17.4,-3.355 -23.89,-10.07 -6.49,-6.719 -9.73,-14.863 -9.73,-24.437 0,-9.578 3.24,-17.719 9.73,-24.434 6.49,-6.719 14.45,-10.078 23.89,-10.078 9.44,0 17.4,3.359 23.9,10.078 6.48,6.715 9.73,14.856 9.73,24.434 0,9.574 -3.25,17.718 -9.73,24.437 z m 11.77,-59.558 c -9.62,-9.395 -21.5,-14.09 -35.67,-14.09 -14.15,0 -26.04,4.695 -35.66,14.09 -9.62,9.39 -14.43,21.097 -14.43,35.121 0,14.023 4.81,25.73 14.43,35.125 9.62,9.394 21.51,14.09 35.66,14.09 14.17,0 26.05,-4.696 35.67,-14.09 9.63,-9.395 14.43,-21.102 14.43,-35.125 0,-14.024 -4.8,-25.731 -14.43,-35.121" /><path
         id="path38"
         style="fill:#222d65;fill-opacity:1;fill-rule:nonzero;stroke:none"
         d="m 1697.77,180.617 c 3.27,2.813 4.9,7.328 4.9,13.547 0,6.211 -1.68,10.481 -5.04,12.797 -3.36,2.312 -9.35,3.469 -17.97,3.469 h -20.42 v -34.032 h 20.02 c 9.07,0 15.24,1.407 18.51,4.219 z m 21.37,13.477 c 0,-15.703 -6.85,-25.594 -20.55,-29.676 l 24.91,-34.582 h -20.42 l -22.74,31.992 h -21.1 v -31.992 h -16.06 v 95.16 h 35.39 c 14.53,0 24.92,-2.449 31.18,-7.351 6.26,-4.903 9.39,-12.75 9.39,-23.551" /><path
         id="path40"
         style="fill:#222d65;fill-opacity:1;fill-rule:nonzero;stroke:none"
         d="m 55.1797,38.4805 c 0,17.1992 -9.8516,25.7968 -29.5586,25.7968 H 12.9414 V 12.7891 h 14.0781 c 9.0977,0 16.0703,2.1718 20.9063,6.5117 4.8359,4.3281 7.2539,10.7305 7.2539,19.1797 z m 1.9336,27.6758 C 64.3477,59.6016 67.9688,50.4805 67.9688,38.8008 67.9688,27.1289 64.457,17.8789 57.4375,11.0703 50.4141,4.26953 39.668,0.859375 25.1914,0.859375 H 0.257813 V 75.9883 H 26.0547 c 13.4687,0 23.8203,-3.2774 31.0586,-9.832" /><path
         id="path42"
         style="fill:#222d65;fill-opacity:1;fill-rule:nonzero;stroke:none"
         d="M 159.434,75.9883 V 64.0586 h -40.09 V 44.1797 h 36.004 V 32.8906 H 119.344 V 12.7891 h 41.379 V 0.859375 H 106.66 V 75.9883 h 52.774" /><path
         id="path44"
         style="fill:#222d65;fill-opacity:1;fill-rule:nonzero;stroke:none"
         d="M 243.695,29.6719 230.801,58.582 218.008,29.6719 Z M 237.246,75.9883 270.352,0.859375 H 256.379 L 248.746,17.9492 H 212.742 L 205.434,0.859375 H 191.891 L 224.996,75.9883 h 12.25" /><path
         id="path46"
         style="fill:#222d65;fill-opacity:1;fill-rule:nonzero;stroke:none"
         d="M 305.816,0.859375 V 75.9883 h 12.68 V 12.8984 h 34.289 V 0.859375 h -46.969" /><path
         id="path48"
         style="fill:#222d65;fill-opacity:1;fill-rule:nonzero;stroke:none"
         d="M 442.098,75.9883 V 64.0586 h -40.09 V 44.1797 h 36.004 V 32.8906 H 402.008 V 12.7891 h 41.379 V 0.859375 H 389.324 V 75.9883 h 52.774" /><path
         id="path50"
         style="fill:#222d65;fill-opacity:1;fill-rule:nonzero;stroke:none"
         d="m 527.328,40.9609 c 2.578,2.211 3.867,5.7774 3.867,10.6875 0,4.9102 -1.324,8.2735 -3.976,10.1016 -2.653,1.8281 -7.379,2.7383 -14.188,2.7383 H 496.91 V 37.6211 h 15.801 c 7.164,0 12.035,1.1094 14.617,3.3398 z m 16.871,10.6289 c 0,-12.3906 -5.41,-20.1992 -16.226,-23.4296 L 547.641,0.859375 H 531.52 L 513.57,26.1211 H 496.91 V 0.859375 H 484.227 V 75.9883 h 27.945 c 11.465,0 19.668,-1.9336 24.613,-5.8008 4.942,-3.8711 7.414,-10.0664 7.414,-18.5977" /><path
         id="path52"
         style="fill:#222d65;fill-opacity:1;fill-rule:nonzero;stroke:none"
         d="m 602.023,63.4688 c -2.222,-1.7579 -3.332,-4.0274 -3.332,-6.8204 0,-2.7968 1.184,-5 3.547,-6.6171 2.367,-1.6094 7.399,-3.3399 15.102,-5.211 7.699,-1.8594 13.504,-4.4805 17.406,-7.8398 3.906,-3.3711 5.863,-8.3321 5.863,-14.8907 0,-6.5585 -2.472,-11.871 -7.418,-15.96089 C 628.246,2.05078 621.762,0 613.738,0 601.988,0 591.563,4.05078 582.461,12.1484 l 7.953,9.5704 c 7.594,-6.5977 15.477,-9.8868 23.649,-9.8868 4.082,0 7.324,0.8672 9.722,2.6289 2.403,1.7579 3.602,4.0782 3.602,6.9883 0,2.9024 -1.125,5.1524 -3.387,6.7696 -2.258,1.6132 -6.145,3.082 -11.66,4.4023 -5.52,1.3281 -9.707,2.5391 -12.574,3.6602 -2.868,1.1093 -5.411,2.5585 -7.629,4.3476 -4.446,3.3711 -6.668,8.3906 -6.668,15.0508 0,6.6641 2.402,12.0195 7.207,16.0664 4.797,4.0469 10.961,6.0742 18.48,6.0742 10.176,0 19.348,-2.8359 27.52,-8.4922 l -7.098,-10.1093 c -6.16,4.5898 -13.039,6.8828 -20.633,6.8828 -3.726,0 -6.703,-0.875 -8.922,-2.6328" /><path
         id="path54"
         style="fill:#222d65;fill-opacity:1;fill-rule:nonzero;stroke:none"
         d="M 766.242,29.6719 753.348,58.582 740.559,29.6719 Z M 759.797,75.9883 792.898,0.859375 H 778.926 L 771.297,17.9492 H 735.293 L 727.984,0.859375 H 714.441 L 747.543,75.9883 h 12.254" /><path
         id="path56"
         style="fill:#222d65;fill-opacity:1;fill-rule:nonzero;stroke:none"
         d="m 842.551,63.4688 c -2.223,-1.7579 -3.328,-4.0274 -3.328,-6.8204 0,-2.7968 1.179,-5 3.547,-6.6171 2.363,-1.6094 7.394,-3.3399 15.097,-5.211 7.703,-1.8594 13.504,-4.4805 17.41,-7.8398 3.907,-3.3711 5.86,-8.3321 5.86,-14.8907 0,-6.5585 -2.473,-11.871 -7.414,-15.96089 C 868.777,2.05078 862.293,0 854.27,0 842.516,0 832.09,4.05078 822.992,12.1484 l 7.949,9.5704 c 7.598,-6.5977 15.481,-9.8868 23.649,-9.8868 4.082,0 7.328,0.8672 9.726,2.6289 2.403,1.7579 3.602,4.0782 3.602,6.9883 0,2.9024 -1.129,5.1524 -3.387,6.7696 -2.258,1.6132 -6.144,3.082 -11.664,4.4023 -5.515,1.3281 -9.707,2.5391 -12.57,3.6602 -2.867,1.1093 -5.41,2.5585 -7.633,4.3476 C 828.223,44 826,49.0195 826,55.6797 c 0,6.6641 2.398,12.0195 7.203,16.0664 4.797,4.0469 10.961,6.0742 18.485,6.0742 10.171,0 19.347,-2.8359 27.515,-8.4922 l -7.094,-10.1093 c -6.164,4.5898 -13.039,6.8828 -20.636,6.8828 -3.727,0 -6.7,-0.875 -8.922,-2.6328" /><path
         id="path58"
         style="fill:#222d65;fill-opacity:1;fill-rule:nonzero;stroke:none"
         d="m 935.195,63.4688 c -2.222,-1.7579 -3.332,-4.0274 -3.332,-6.8204 0,-2.7968 1.184,-5 3.547,-6.6171 2.367,-1.6094 7.399,-3.3399 15.102,-5.211 7.699,-1.8594 13.504,-4.4805 17.41,-7.8398 3.902,-3.3711 5.859,-8.3321 5.859,-14.8907 0,-6.5585 -2.472,-11.871 -7.418,-15.96089 C 961.422,2.05078 954.934,0 946.91,0 935.16,0 924.734,4.05078 915.633,12.1484 l 7.953,9.5704 c 7.598,-6.5977 15.477,-9.8868 23.648,-9.8868 4.082,0 7.325,0.8672 9.727,2.6289 2.398,1.7579 3.598,4.0782 3.598,6.9883 0,2.9024 -1.125,5.1524 -3.387,6.7696 -2.254,1.6132 -6.141,3.082 -11.66,4.4023 -5.516,1.3281 -9.707,2.5391 -12.574,3.6602 -2.864,1.1093 -5.411,2.5585 -7.629,4.3476 -4.446,3.3711 -6.664,8.3906 -6.664,15.0508 0,6.6641 2.398,12.0195 7.203,16.0664 4.797,4.0469 10.961,6.0742 18.48,6.0742 10.176,0 19.348,-2.8359 27.52,-8.4922 L 964.75,59.2188 c -6.16,4.5898 -13.039,6.8828 -20.633,6.8828 -3.726,0 -6.699,-0.875 -8.922,-2.6328" /><path
         id="path60"
         style="fill:#222d65;fill-opacity:1;fill-rule:nonzero;stroke:none"
         d="m 1065.4,58.2617 c -5.12,5.2969 -11.41,7.9492 -18.86,7.9492 -7.46,0 -13.74,-2.6523 -18.86,-7.9492 -5.12,-5.3008 -7.69,-11.7422 -7.69,-19.3008 0,-7.5625 2.57,-13.9921 7.69,-19.289 5.12,-5.3008 11.4,-7.9531 18.86,-7.9531 7.45,0 13.74,2.6523 18.86,7.9531 5.12,5.2969 7.68,11.7265 7.68,19.289 0,7.5586 -2.56,14 -7.68,19.3008 z m 9.3,-47.0312 c -7.6,-7.41019 -16.98,-11.121125 -28.16,-11.121125 -11.18,0 -20.57,3.710935 -28.16,11.121125 -7.59,7.4179 -11.39,16.6601 -11.39,27.7304 0,11.0704 3.8,20.3204 11.39,27.7344 7.59,7.4141 16.98,11.125 28.16,11.125 11.18,0 20.56,-3.7109 28.16,-11.125 7.59,-7.414 11.39,-16.664 11.39,-27.7344 0,-11.0703 -3.8,-20.3125 -11.39,-27.7304" /><path
         id="path62"
         style="fill:#222d65;fill-opacity:1;fill-rule:nonzero;stroke:none"
         d="m 1157.03,12.3594 c 4.36,0 8.13,0.7422 11.28,2.2109 3.15,1.461 6.45,3.8086 9.88,7.0391 l 8.18,-8.3789 C 1178.41,4.41016 1168.76,0 1157.4,0 c -11.36,0 -20.78,3.66016 -28.26,10.9688 -7.5,7.3125 -11.23,16.5507 -11.23,27.7226 0,11.1797 3.81,20.5 11.44,27.9492 7.63,7.4492 17.27,11.1797 28.91,11.1797 11.64,0 21.37,-4.3008 29.18,-12.8984 l -8.06,-8.8125 c -3.59,3.4414 -6.97,5.8359 -10.16,7.1992 -3.19,1.3594 -6.93,2.043 -11.23,2.043 -7.6,0 -13.97,-2.4571 -19.13,-7.3633 -5.16,-4.9102 -7.74,-11.1797 -7.74,-18.8086 0,-7.6289 2.56,-14.0078 7.69,-19.1289 5.12,-5.1211 11.19,-7.6914 18.22,-7.6914" /><path
         id="path64"
         style="fill:#222d65;fill-opacity:1;fill-rule:nonzero;stroke:none"
         d="m 1223.98,75.9883 h 12.68 V 0.859375 h -12.68 V 75.9883" /><path
         id="path66"
         style="fill:#222d65;fill-opacity:1;fill-rule:nonzero;stroke:none"
         d="m 1323.93,29.6719 -12.89,28.9101 -12.79,-28.9101 z m -6.44,46.3164 33.1,-75.128925 h -13.97 l -7.64,17.089825 h -36 l -7.31,-17.089825 h -13.54 l 33.11,75.128925 h 12.25" /><path
         id="path68"
         style="fill:#222d65;fill-opacity:1;fill-rule:nonzero;stroke:none"
         d="M 1415.61,64.3867 V 0.859375 h -12.68 V 64.3867 h -22.78 v 11.6016 h 58.25 V 64.3867 h -22.79" /><path
         id="path70"
         style="fill:#222d65;fill-opacity:1;fill-rule:nonzero;stroke:none"
         d="m 1477.63,75.9883 h 12.68 V 0.859375 h -12.68 V 75.9883" /><path
         id="path72"
         style="fill:#222d65;fill-opacity:1;fill-rule:nonzero;stroke:none"
         d="m 1587.2,58.2617 c -5.13,5.2969 -11.42,7.9492 -18.86,7.9492 -7.46,0 -13.74,-2.6523 -18.87,-7.9492 -5.12,-5.3008 -7.68,-11.7422 -7.68,-19.3008 0,-7.5625 2.56,-13.9921 7.68,-19.289 5.13,-5.3008 11.41,-7.9531 18.87,-7.9531 7.44,0 13.73,2.6523 18.86,7.9531 5.12,5.2969 7.68,11.7265 7.68,19.289 0,7.5586 -2.56,14 -7.68,19.3008 z m 9.3,-47.0312 c -7.6,-7.41019 -16.99,-11.121125 -28.16,-11.121125 -11.18,0 -20.57,3.710935 -28.17,11.121125 -7.59,7.4179 -11.39,16.6601 -11.39,27.7304 0,11.0704 3.8,20.3204 11.39,27.7344 7.6,7.4141 16.99,11.125 28.17,11.125 11.17,0 20.56,-3.7109 28.16,-11.125 7.59,-7.414 11.39,-16.664 11.39,-27.7344 0,-11.0703 -3.8,-20.3125 -11.39,-27.7304" /><path
         id="path74"
         style="fill:#222d65;fill-opacity:1;fill-rule:nonzero;stroke:none"
         d="m 1702.68,19.8906 v 56.0977 h 12.68 V 0.859375 h -13.75 L 1659.04,55.6797 V 0.859375 h -12.68 V 75.9883 h 12.68 l 43.64,-56.0977" /><path
         id="path76"
         style="fill:#222d65;fill-opacity:1;fill-rule:nonzero;stroke:none"
         d="m 1073.41,827.332 c 0.52,-0.137 2.06,-1.008 -1.5,-1.535 -18.65,-2.781 -82.301,-17.856 -97.699,-112.082 h -13.508 c 0,0 8.235,106.047 102.977,113.59 0,0 7.36,0.648 9.73,0.027" /><path
         id="path78"
         style="fill:#222d65;fill-opacity:1;fill-rule:nonzero;stroke:none"
         d="m 569.844,968.762 c 0,0 143.344,-37.485 228.543,-105.008 l -29.395,-2.918 C 699.57,924.426 569.844,968.762 569.844,968.762" /><path
         id="path80"
         style="fill:#222d65;fill-opacity:1;fill-rule:nonzero;stroke:none"
         d="m 1604.2,715.008 c -12.5,11.746 -23.73,20.222 -36.38,30.648 0,0 -53.09,13.758 -95.97,35.844 -19.25,9.914 -27.92,22.762 -27.87,29.75 0.05,6.82 13.77,9.75 10.59,11.492 -262.15,143.805 -514.8,62.012 -514.8,62.012 C 653.453,1163.02 130.996,1027.1 130.996,1027.1 c 34.719,8.61 183.801,6.61 177.871,6.42 C 171.031,1028.85 15.1055,994.066 15.1055,994.066 640.281,1079.02 826.258,857.918 826.258,857.918 672.711,834.586 467.383,871.43 467.383,871.43 718.805,798.637 970.625,837.863 970.625,837.863 916.891,787.645 915.578,713.715 915.578,713.715 h 31.942 c 14.492,109.492 93.5,124.148 121.47,122.621 103.59,-5.668 113.53,-121.543 113.53,-121.543 h 56.03 c -0.75,69.617 -48.45,118.043 -48.45,118.043 123.52,-16.309 249.34,-118.043 249.34,-118.043 l 164.76,0.215" /><path
         id="path82"
         style="fill:#222d65;fill-opacity:1;fill-rule:nonzero;stroke:none"
         d="m 1464.24,818.18 c 0,0 50.38,-28.543 83.14,-58.461 0,0 -60.22,17.933 -81.61,38.113 -13.66,12.887 -1.53,20.348 -1.53,20.348" /><path
         id="path84"
         style="fill:#222d65;fill-opacity:1;fill-rule:nonzero;stroke:none"
         d="M 324.367,525.949 226.434,328.012 H 178.246 L 80.832,525.949 V 297.961 H 0 V 660.152 H 109.328 L 202.602,461.18 296.387,660.152 H 405.199 V 297.961 h -80.832 v 227.988" /><path
         id="path86"
         style="fill:#222d65;fill-opacity:1;fill-rule:nonzero;stroke:none"
         d="M 818.684,525.949 720.75,328.012 H 672.563 L 575.148,525.949 V 297.961 h -80.832 v 362.191 h 109.332 l 93.27,-198.972 93.785,198.972 H 899.516 V 297.961 h -80.832 v 227.988" /><path
         id="path88"
         style="fill:#222d65;fill-opacity:1;fill-rule:nonzero;stroke:none"
         d="m 1206,397.449 c 19.86,18.653 29.8,45.766 29.8,81.348 0,35.578 -9.94,62.957 -29.8,82.129 -19.87,19.172 -50.35,28.758 -91.45,28.758 h -45.08 V 369.465 h 51.29 c 36.96,0 65.37,9.332 85.24,27.984 z m 59.33,215.293 c 34.54,-31.609 51.82,-75.57 51.82,-131.871 0,-56.308 -16.84,-100.871 -50.52,-133.687 -33.68,-32.821 -85.07,-49.223 -154.16,-49.223 H 988.637 v 362.191 h 127.983 c 64.59,0 114.17,-15.804 148.71,-47.41" /><path
         id="path90"
         style="fill:#222d65;fill-opacity:1;fill-rule:nonzero;stroke:none"
         d="m 1525.45,552.375 -45.6,-105.184 h 90.68 z m 109.33,-254.414 -33.68,78.242 h -151.82 l -33.68,-78.242 h -86.01 l 156.48,362.191 h 78.24 l 156.48,-362.191 h -86.01" /></g></g></svg>