<?xml version="1.0" encoding="UTF-8" standalone="no"?>
<svg
   xmlns:dc="http://purl.org/dc/elements/1.1/"
   xmlns:cc="http://creativecommons.org/ns#"
   xmlns:rdf="http://www.w3.org/1999/02/22-rdf-syntax-ns#"
   xmlns:svg="http://www.w3.org/2000/svg"
   xmlns="http://www.w3.org/2000/svg"
   viewBox="0 0 228.49333 40.919998"
   height="40.919998"
   width="228.49333"
   xml:space="preserve"
   id="svg2"
   version="1.1"><metadata
     id="metadata8"><rdf:RDF><cc:Work
         rdf:about=""><dc:format>image/svg+xml</dc:format><dc:type
           rdf:resource="http://purl.org/dc/dcmitype/StillImage" /></cc:Work></rdf:RDF></metadata><defs
     id="defs6" /><g
     transform="matrix(1.3333333,0,0,-1.3333333,0,40.92)"
     id="g10"><g
       transform="scale(0.1)"
       id="g12"><path
         id="path14"
         style="fill:#24265d;fill-opacity:1;fill-rule:nonzero;stroke:none"
         d="M 723.18,81.7305 703.605,120.797 V 76.8164 h -9.503 v 56.3046 h 14.82 l 16.996,-35.3593 16.996,35.3593 h 14.742 V 76.8164 h -9.508 V 120.797 L 728.496,81.7305 h -5.316" /><path
         id="path16"
         style="fill:#24265d;fill-opacity:1;fill-rule:nonzero;stroke:none"
         d="m 821.707,98.4023 -9.668,21.6717 -9.586,-21.6717 z m -4.832,34.7187 24.809,-56.3046 h -10.473 l -5.719,12.8086 h -26.984 l -5.477,-12.8086 h -10.148 l 24.808,56.3046 h 9.184" /><path
         id="path18"
         style="fill:#24265d;fill-opacity:1;fill-rule:nonzero;stroke:none"
         d="m 910.469,91.0742 v 42.0468 h 9.508 V 76.8164 H 909.664 L 877.77,117.898 V 76.8164 h -9.508 v 56.3046 h 9.508 l 32.699,-42.0468" /><path
         id="path20"
         style="fill:#24265d;fill-opacity:1;fill-rule:nonzero;stroke:none"
         d="m 953.805,133.121 h 9.504 V 76.8164 h -9.504 v 56.3046" /><path
         id="path22"
         style="fill:#24265d;fill-opacity:1;fill-rule:nonzero;stroke:none"
         d="M 1019.29,124.422 V 76.8164 h -9.5 v 47.6056 h -17.079 v 8.699 h 43.659 v -8.699 h -17.08" /><path
         id="path24"
         style="fill:#24265d;fill-opacity:1;fill-rule:nonzero;stroke:none"
         d="m 1104.55,119.832 c -3.84,3.973 -8.55,5.957 -14.14,5.957 -5.58,0 -10.29,-1.984 -14.13,-5.957 -3.84,-3.977 -5.76,-8.797 -5.76,-14.461 0,-5.664 1.92,-10.4843 5.76,-14.4569 3.84,-3.9727 8.55,-5.961 14.13,-5.961 5.59,0 10.3,1.9883 14.14,5.961 3.84,3.9726 5.76,8.7929 5.76,14.4569 0,5.664 -1.92,10.484 -5.76,14.461 z m 6.97,-35.2422 c -5.7,-5.5585 -12.73,-8.3359 -21.11,-8.3359 -8.37,0 -15.41,2.7774 -21.1,8.3359 -5.69,5.5586 -8.54,12.4844 -8.54,20.7812 0,8.297 2.85,15.227 8.54,20.781 5.69,5.559 12.73,8.336 21.1,8.336 8.38,0 15.41,-2.777 21.11,-8.336 5.69,-5.554 8.53,-12.484 8.53,-20.781 0,-8.2968 -2.84,-15.2226 -8.53,-20.7812" /><path
         id="path26"
         style="fill:#24265d;fill-opacity:1;fill-rule:nonzero;stroke:none"
         d="m 1157.59,85.5977 h 14.9 c 3.49,0 6.16,0.5507 8.01,1.6523 1.86,1.0977 2.78,3.1797 2.78,6.2422 0,4.9922 -4,7.4918 -12,7.4918 h -13.69 z m 0,24.1643 h 12.08 c 6.87,0 10.31,2.336 10.31,7.008 0,2.683 -0.83,4.617 -2.5,5.8 -1.66,1.18 -4.24,1.77 -7.73,1.77 h -12.16 z m 15.14,-32.9456 h -24.65 v 56.3046 h 21.91 c 3.81,0 7.1,-0.457 9.87,-1.367 2.76,-0.914 4.85,-2.152 6.24,-3.707 2.53,-2.902 3.79,-6.176 3.79,-9.828 0,-4.403 -1.43,-7.68 -4.27,-9.824 -0.97,-0.754 -1.64,-1.223 -2.02,-1.411 -0.37,-0.191 -1.04,-0.5 -2.01,-0.925 3.49,-0.754 6.27,-2.325 8.34,-4.715 2.06,-2.3909 3.1,-5.3557 3.1,-8.8987 0,-3.9219 -1.34,-7.3828 -4.03,-10.3906 -3.11,-3.4922 -8.54,-5.2383 -16.27,-5.2383" /><path
         id="path28"
         style="fill:#24265d;fill-opacity:1;fill-rule:nonzero;stroke:none"
         d="m 1254.65,98.4023 -9.67,21.6717 -9.58,-21.6717 z m -4.83,34.7187 24.8,-56.3046 h -10.47 l -5.72,12.8086 h -26.98 l -5.48,-12.8086 h -10.15 l 24.81,56.3046 h 9.19" /><path
         id="path30"
         style="fill:#24265d;fill-opacity:1;fill-rule:nonzero;stroke:none"
         d="m 1362.98,81.7305 -19.57,39.0665 V 76.8164 h -9.5 v 56.3046 h 14.82 l 17,-35.3593 16.99,35.3593 h 14.74 V 76.8164 h -9.51 V 120.797 L 1368.3,81.7305 h -5.32" /><path
         id="path32"
         style="fill:#24265d;fill-opacity:1;fill-rule:nonzero;stroke:none"
         d="m 1470.07,119.832 c -3.84,3.973 -8.55,5.957 -14.13,5.957 -5.59,0 -10.3,-1.984 -14.14,-5.957 -3.84,-3.977 -5.76,-8.797 -5.76,-14.461 0,-5.664 1.92,-10.4843 5.76,-14.4569 3.84,-3.9727 8.55,-5.961 14.14,-5.961 5.58,0 10.29,1.9883 14.13,5.961 3.84,3.9726 5.76,8.7929 5.76,14.4569 0,5.664 -1.92,10.484 -5.76,14.461 z m 6.97,-35.2422 c -5.69,-5.5585 -12.73,-8.3359 -21.1,-8.3359 -8.38,0 -15.42,2.7774 -21.11,8.3359 -5.69,5.5586 -8.54,12.4844 -8.54,20.7812 0,8.297 2.85,15.227 8.54,20.781 5.69,5.559 12.73,8.336 21.11,8.336 8.37,0 15.41,-2.777 21.1,-8.336 5.69,-5.554 8.54,-12.484 8.54,-20.781 0,-8.2968 -2.85,-15.2226 -8.54,-20.7812" /><path
         id="path34"
         style="fill:#24265d;fill-opacity:1;fill-rule:nonzero;stroke:none"
         d="M 1536.56,124.422 V 76.8164 h -9.5 v 47.6056 h -17.08 v 8.699 h 43.66 v -8.699 h -17.08" /><path
         id="path36"
         style="fill:#24265d;fill-opacity:1;fill-rule:nonzero;stroke:none"
         d="m 1621.82,119.832 c -3.84,3.973 -8.55,5.957 -14.14,5.957 -5.58,0 -10.29,-1.984 -14.13,-5.957 -3.84,-3.977 -5.76,-8.797 -5.76,-14.461 0,-5.664 1.92,-10.4843 5.76,-14.4569 3.84,-3.9727 8.55,-5.961 14.13,-5.961 5.59,0 10.3,1.9883 14.14,5.961 3.84,3.9726 5.76,8.7929 5.76,14.4569 0,5.664 -1.92,10.484 -5.76,14.461 z m 6.97,-35.2422 c -5.69,-5.5585 -12.73,-8.3359 -21.11,-8.3359 -8.37,0 -15.4,2.7774 -21.1,8.3359 -5.69,5.5586 -8.53,12.4844 -8.53,20.7812 0,8.297 2.84,15.227 8.53,20.781 5.7,5.559 12.73,8.336 21.1,8.336 8.38,0 15.42,-2.777 21.11,-8.336 5.69,-5.554 8.54,-12.484 8.54,-20.781 0,-8.2968 -2.85,-15.2226 -8.54,-20.7812" /><path
         id="path38"
         style="fill:#24265d;fill-opacity:1;fill-rule:nonzero;stroke:none"
         d="m 1698.46,106.863 c 1.94,1.664 2.9,4.336 2.9,8.016 0,3.676 -0.99,6.199 -2.98,7.57 -1.99,1.367 -5.53,2.055 -10.63,2.055 h -12.08 v -20.137 h 11.84 c 5.37,0 9.02,0.832 10.95,2.496 z m 12.65,7.973 c 0,-9.289 -4.06,-15.1407 -12.16,-17.5587 l 14.74,-20.4609 h -12.08 l -13.46,18.9297 h -12.48 V 76.8164 h -9.51 v 56.3046 h 20.94 c 8.6,0 14.75,-1.449 18.45,-4.351 3.71,-2.899 5.56,-7.543 5.56,-13.934" /><path
         id="path40"
         style="fill:#24265d;fill-opacity:1;fill-rule:nonzero;stroke:none"
         d="m 726.598,22.7656 c 0,10.1758 -5.832,15.2617 -17.489,15.2617 h -7.504 V 7.56641 h 8.329 c 5.386,0 9.507,1.28125 12.371,3.84769 2.863,2.5664 4.293,6.3476 4.293,11.3515 z m 1.144,16.375 c 4.281,-3.8789 6.422,-9.2734 6.422,-16.1836 0,-6.9101 -2.078,-12.3789 -6.23,-16.40622 C 723.777,2.51953 717.418,0.507813 708.855,0.507813 H 694.102 V 44.957 h 15.261 c 7.969,0 14.094,-1.9375 18.379,-5.8164" /><path
         id="path42"
         style="fill:#24265d;fill-opacity:1;fill-rule:nonzero;stroke:none"
         d="M 788.281,44.957 V 37.8984 H 764.559 V 26.1367 h 21.304 V 19.4609 H 764.559 V 7.56641 h 24.484 V 0.507813 H 757.059 V 44.957 h 31.222" /><path
         id="path44"
         style="fill:#24265d;fill-opacity:1;fill-rule:nonzero;stroke:none"
         d="m 838.137,17.5508 -7.633,17.1055 -7.566,-17.1055 z M 834.32,44.957 853.906,0.507813 h -8.265 L 841.125,10.6172 H 819.82 L 815.496,0.507813 h -8.012 L 827.07,44.957 h 7.25" /><path
         id="path46"
         style="fill:#24265d;fill-opacity:1;fill-rule:nonzero;stroke:none"
         d="M 874.891,0.507813 V 44.957 h 7.504 V 7.63281 H 902.68 V 0.507813 h -27.789" /><path
         id="path48"
         style="fill:#24265d;fill-opacity:1;fill-rule:nonzero;stroke:none"
         d="M 955.523,44.957 V 37.8984 H 931.805 V 26.1367 h 21.3 v -6.6758 h -21.3 V 7.56641 h 24.48 V 0.507813 H 924.301 V 44.957 h 31.222" /><path
         id="path50"
         style="fill:#24265d;fill-opacity:1;fill-rule:nonzero;stroke:none"
         d="m 1005.95,24.2305 c 1.53,1.3125 2.29,3.4218 2.29,6.3242 0,2.9062 -0.78,4.8984 -2.35,5.9766 -1.57,1.082 -4.37,1.621 -8.398,1.621 h -9.539 V 22.2578 h 9.348 c 4.239,0 7.119,0.6563 8.649,1.9727 z m 9.98,6.2929 c 0,-7.3359 -3.2,-11.957 -9.6,-13.8632 l 11.64,-16.152387 h -9.54 L 997.813,15.4531 h -9.86 V 0.507813 h -7.504 V 44.957 h 16.535 c 6.786,0 11.636,-1.1445 14.566,-3.4336 2.92,-2.289 4.38,-5.9531 4.38,-11" /><path
         id="path52"
         style="fill:#24265d;fill-opacity:1;fill-rule:nonzero;stroke:none"
         d="m 1050.15,37.5508 c -1.32,-1.0391 -1.98,-2.3867 -1.98,-4.0391 0,-1.6523 0.7,-2.957 2.1,-3.9101 1.4,-0.9532 4.38,-1.9805 8.94,-3.086 4.55,-1.1015 7.99,-2.6484 10.3,-4.6406 2.31,-1.9922 3.47,-4.9297 3.47,-8.8086 0,-3.8789 -1.47,-7.02343 -4.39,-9.4414 C 1065.66,1.21094 1061.82,0 1057.08,0 c -6.96,0 -13.12,2.39453 -18.51,7.1875 l 4.71,5.6602 c 4.49,-3.90239 9.15,-5.85551 13.99,-5.85551 2.41,0 4.33,0.52344 5.75,1.5625 1.42,1.03906 2.13,2.41411 2.13,4.13281 0,1.7148 -0.66,3.0508 -2,4.0039 -1.34,0.957 -3.64,1.8242 -6.9,2.6094 -3.26,0.7812 -5.74,1.5039 -7.44,2.1601 -1.7,0.6602 -3.2,1.5157 -4.51,2.5743 -2.63,1.9961 -3.95,4.9648 -3.95,8.9062 0,3.9414 1.42,7.1094 4.26,9.5039 2.84,2.3985 6.49,3.5977 10.94,3.5977 6.02,0 11.45,-1.6797 16.28,-5.0274 l -4.2,-5.9765 c -3.64,2.7109 -7.71,4.0703 -12.21,4.0703 -2.2,0 -3.96,-0.5196 -5.27,-1.5586" /><path
         id="path54"
         style="fill:#24265d;fill-opacity:1;fill-rule:nonzero;stroke:none"
         d="m 1147.31,17.5508 -7.63,17.1055 -7.57,-17.1055 z m -3.82,27.4062 19.59,-44.449187 h -8.27 L 1150.3,10.6172 H 1129 l -4.33,-10.109387 h -8.01 L 1136.25,44.957 h 7.24" /><path
         id="path56"
         style="fill:#24265d;fill-opacity:1;fill-rule:nonzero;stroke:none"
         d="m 1192.46,37.5508 c -1.32,-1.0391 -1.97,-2.3867 -1.97,-4.0391 0,-1.6523 0.7,-2.957 2.1,-3.9101 1.4,-0.9532 4.37,-1.9805 8.93,-3.086 4.56,-1.1015 7.99,-2.6484 10.3,-4.6406 2.31,-1.9922 3.47,-4.9297 3.47,-8.8086 0,-3.8789 -1.46,-7.02343 -4.39,-9.4414 C 1207.98,1.21094 1204.14,0 1199.39,0 c -6.95,0 -13.12,2.39453 -18.5,7.1875 l 4.7,5.6602 c 4.49,-3.90239 9.16,-5.85551 13.99,-5.85551 2.42,0 4.34,0.52344 5.76,1.5625 1.42,1.03906 2.13,2.41411 2.13,4.13281 0,1.7148 -0.67,3.0508 -2.01,4.0039 -1.33,0.957 -3.63,1.8242 -6.9,2.6094 -3.26,0.7812 -5.74,1.5039 -7.44,2.1601 -1.69,0.6602 -3.2,1.5157 -4.51,2.5743 -2.63,1.9961 -3.94,4.9648 -3.94,8.9062 0,3.9414 1.42,7.1094 4.26,9.5039 2.84,2.3985 6.48,3.5977 10.93,3.5977 6.02,0 11.45,-1.6797 16.28,-5.0274 l -4.19,-5.9765 c -3.65,2.7109 -7.72,4.0703 -12.21,4.0703 -2.21,0 -3.97,-0.5196 -5.28,-1.5586" /><path
         id="path58"
         style="fill:#24265d;fill-opacity:1;fill-rule:nonzero;stroke:none"
         d="m 1247.27,37.5508 c -1.31,-1.0391 -1.97,-2.3867 -1.97,-4.0391 0,-1.6523 0.7,-2.957 2.1,-3.9101 1.4,-0.9532 4.38,-1.9805 8.93,-3.086 4.56,-1.1015 8,-2.6484 10.31,-4.6406 2.31,-1.9922 3.46,-4.9297 3.46,-8.8086 0,-3.8789 -1.46,-7.02343 -4.39,-9.4414 C 1262.79,1.21094 1258.95,0 1254.2,0 c -6.95,0 -13.12,2.39453 -18.5,7.1875 l 4.7,5.6602 c 4.5,-3.90239 9.16,-5.85551 14,-5.85551 2.41,0 4.33,0.52344 5.75,1.5625 1.42,1.03906 2.13,2.41411 2.13,4.13281 0,1.7148 -0.67,3.0508 -2,4.0039 -1.34,0.957 -3.64,1.8242 -6.9,2.6094 -3.27,0.7812 -5.75,1.5039 -7.44,2.1601 -1.7,0.6602 -3.2,1.5157 -4.52,2.5743 -2.63,1.9961 -3.94,4.9648 -3.94,8.9062 0,3.9414 1.42,7.1094 4.26,9.5039 2.84,2.3985 6.49,3.5977 10.94,3.5977 6.02,0 11.44,-1.6797 16.28,-5.0274 l -4.2,-5.9765 c -3.65,2.7109 -7.72,4.0703 -12.21,4.0703 -2.2,0 -3.96,-0.5196 -5.28,-1.5586" /><path
         id="path60"
         style="fill:#24265d;fill-opacity:1;fill-rule:nonzero;stroke:none"
         d="m 1324.31,34.4648 c -3.03,3.1407 -6.75,4.7071 -11.16,4.7071 -4.41,0 -8.13,-1.5664 -11.16,-4.7071 -3.03,-3.1367 -4.54,-6.9414 -4.54,-11.414 0,-4.4727 1.51,-8.2774 4.54,-11.4141 3.03,-3.1367 6.75,-4.70311 11.16,-4.70311 4.41,0 8.13,1.56641 11.16,4.70311 3.03,3.1367 4.55,6.9414 4.55,11.4141 0,4.4726 -1.52,8.2773 -4.55,11.414 z m 5.5,-27.82027 c -4.49,-4.38672 -10.05,-6.58203 -16.66,-6.58203 -6.61,0 -12.17,2.19531 -16.66,6.58203 -4.49,4.38677 -6.74,9.85937 -6.74,16.40627 0,6.5508 2.25,12.0195 6.74,16.4062 4.49,4.3907 10.05,6.586 16.66,6.586 6.61,0 12.17,-2.1953 16.66,-6.586 4.49,-4.3867 6.74,-9.8554 6.74,-16.4062 0,-6.5469 -2.25,-12.0195 -6.74,-16.40627" /><path
         id="path62"
         style="fill:#24265d;fill-opacity:1;fill-rule:nonzero;stroke:none"
         d="m 1378.52,7.3125 c 2.59,0 4.81,0.43359 6.68,1.30469 1.86,0.86719 3.81,2.25781 5.85,4.16411 l 4.83,-4.96099 C 1391.18,2.60938 1385.46,0 1378.74,0 c -6.72,0 -12.29,2.16406 -16.72,6.48828 -4.43,4.32422 -6.64,9.79302 -6.64,16.40232 0,6.6172 2.25,12.125 6.77,16.5352 4.51,4.4101 10.21,6.6172 17.1,6.6172 6.89,0 12.65,-2.5469 17.27,-7.6328 l -4.77,-5.2149 c -2.12,2.0352 -4.13,3.4531 -6.01,4.2578 -1.89,0.8086 -4.1,1.211 -6.65,1.211 -4.49,0 -8.26,-1.4532 -11.31,-4.3555 -3.06,-2.9063 -4.58,-6.6133 -4.58,-11.1289 0,-4.5156 1.51,-8.2891 4.54,-11.3203 3.03,-3.03127 6.63,-4.5469 10.78,-4.5469" /><path
         id="path64"
         style="fill:#24265d;fill-opacity:1;fill-rule:nonzero;stroke:none"
         d="m 1418.14,44.957 h 7.5 V 0.507813 h -7.5 V 44.957" /><path
         id="path66"
         style="fill:#24265d;fill-opacity:1;fill-rule:nonzero;stroke:none"
         d="m 1477.28,17.5508 -7.63,17.1055 -7.57,-17.1055 z m -3.82,27.4062 19.59,-44.449187 h -8.27 l -4.52,10.109387 h -21.3 l -4.32,-10.109387 h -8.01 L 1466.21,44.957 h 7.25" /><path
         id="path68"
         style="fill:#24265d;fill-opacity:1;fill-rule:nonzero;stroke:none"
         d="M 1531.52,38.0938 V 0.507813 h -7.5 V 38.0938 h -13.48 V 44.957 H 1545 v -6.8632 h -13.48" /><path
         id="path70"
         style="fill:#24265d;fill-opacity:1;fill-rule:nonzero;stroke:none"
         d="m 1568.21,44.957 h 7.5 V 0.507813 h -7.5 V 44.957" /><path
         id="path72"
         style="fill:#24265d;fill-opacity:1;fill-rule:nonzero;stroke:none"
         d="m 1633.04,34.4648 c -3.03,3.1407 -6.75,4.7071 -11.16,4.7071 -4.41,0 -8.13,-1.5664 -11.16,-4.7071 -3.03,-3.1367 -4.55,-6.9414 -4.55,-11.414 0,-4.4727 1.52,-8.2774 4.55,-11.4141 3.03,-3.1367 6.75,-4.70311 11.16,-4.70311 4.41,0 8.13,1.56641 11.16,4.70311 3.03,3.1367 4.55,6.9414 4.55,11.4141 0,4.4726 -1.52,8.2773 -4.55,11.414 z m 5.5,-27.82027 c -4.49,-4.38672 -10.05,-6.58203 -16.66,-6.58203 -6.61,0 -12.17,2.19531 -16.66,6.58203 -4.49,4.38677 -6.74,9.85937 -6.74,16.40627 0,6.5508 2.25,12.0195 6.74,16.4062 4.49,4.3907 10.05,6.586 16.66,6.586 6.61,0 12.17,-2.1953 16.66,-6.586 4.49,-4.3867 6.74,-9.8554 6.74,-16.4062 0,-6.5469 -2.25,-12.0195 -6.74,-16.40627" /><path
         id="path74"
         style="fill:#24265d;fill-opacity:1;fill-rule:nonzero;stroke:none"
         d="M 1701.37,11.7656 V 44.957 h 7.5 V 0.507813 h -8.14 L 1675.55,32.9414 V 0.507813 h -7.5 V 44.957 h 7.5 l 25.82,-33.1914" /><path
         id="path76"
         style="fill:#24265d;fill-opacity:1;fill-rule:nonzero;stroke:none"
         d="m 403.406,218.102 c 0.196,-0.051 0.785,-0.383 -0.57,-0.586 -7.109,-1.059 -31.363,-6.805 -37.231,-42.707 h -5.144 c 0,0 3.137,40.406 39.234,43.281 0,0 2.809,0.25 3.711,0.012" /><path
         id="path78"
         style="fill:#24265d;fill-opacity:1;fill-rule:nonzero;stroke:none"
         d="m 211.527,271.992 c 0,0 54.618,-14.285 87.082,-40.012 l -11.199,-1.113 c -26.453,24.231 -75.883,41.125 -75.883,41.125" /><path
         id="path80"
         style="fill:#24265d;fill-opacity:1;fill-rule:nonzero;stroke:none"
         d="m 605.656,175.301 c -4.761,4.476 -9.039,7.707 -13.859,11.679 0,0 -20.231,5.243 -36.567,13.657 -7.339,3.777 -10.64,8.672 -10.621,11.336 0.02,2.597 5.246,3.715 4.032,4.379 C 448.754,271.148 352.484,239.98 352.484,239.98 243.387,346.012 44.3086,294.219 44.3086,294.219 57.5391,297.5 114.344,296.742 112.086,296.664 59.5625,294.887 0.152344,281.633 0.152344,281.633 238.367,314.004 309.23,229.754 309.23,229.754 c -58.507,-8.891 -136.746,5.148 -136.746,5.148 95.805,-27.734 191.758,-12.789 191.758,-12.789 -20.476,-19.136 -20.976,-47.304 -20.976,-47.304 h 12.172 c 5.523,41.722 35.628,47.304 46.285,46.722 39.468,-2.16 43.257,-46.312 43.257,-46.312 h 21.348 c -0.285,26.527 -18.457,44.98 -18.457,44.98 47.067,-6.215 95.008,-44.98 95.008,-44.98 l 62.777,0.082" /><path
         id="path82"
         style="fill:#24265d;fill-opacity:1;fill-rule:nonzero;stroke:none"
         d="m 552.328,214.613 c 0,0 19.195,-10.875 31.68,-22.277 0,0 -22.945,6.836 -31.098,14.523 -5.203,4.911 -0.582,7.754 -0.582,7.754" /><path
         id="path84"
         style="fill:#24265d;fill-opacity:1;fill-rule:nonzero;stroke:none"
         d="M 123.598,87.8125 86.2813,12.3906 H 67.918 L 30.8008,87.8125 V 0.941406 H 0 V 138.949 h 41.6602 l 35.539,-75.8162 35.7348,75.8162 h 41.464 V 0.941406 h -30.8 V 87.8125" /><path
         id="path86"
         style="fill:#24265d;fill-opacity:1;fill-rule:nonzero;stroke:none"
         d="M 311.949,87.8125 274.637,12.3906 H 256.273 L 219.156,87.8125 V 0.941406 H 188.355 V 138.949 h 41.661 l 35.539,-75.8162 35.734,75.8162 h 41.465 V 0.941406 H 311.949 V 87.8125" /><path
         id="path88"
         style="fill:#24265d;fill-opacity:1;fill-rule:nonzero;stroke:none"
         d="m 459.535,38.8516 c 7.567,7.1054 11.352,17.4375 11.352,30.9961 0,13.5546 -3.785,23.9882 -11.352,31.2933 -7.57,7.304 -19.187,10.957 -34.847,10.957 h -17.18 V 28.1875 h 19.547 c 14.086,0 24.91,3.5547 32.48,10.6641 z m 22.606,82.0354 c 13.16,-12.047 19.746,-28.7972 19.746,-50.2503 0,-21.457 -6.418,-38.4375 -19.254,-50.9414 C 469.801,7.19141 450.223,0.941406 423.898,0.941406 H 376.711 V 138.949 h 48.766 c 24.613,0 43.5,-6.019 56.664,-18.062" /><path
         id="path90"
         style="fill:#24265d;fill-opacity:1;fill-rule:nonzero;stroke:none"
         d="M 581.258,97.8828 563.883,57.8047 h 34.551 z M 622.914,0.941406 610.082,30.7539 H 552.23 L 539.398,0.941406 H 506.625 L 566.25,138.949 h 29.813 L 655.691,0.941406 h -32.777" /></g></g></svg>