<svg xmlns="http://www.w3.org/2000/svg" viewBox="0 0 230 120"><defs><style>.cls-1{isolation:isolate;}.cls-2{fill:#59b0e1;}.cls-3{fill:#035968;mix-blend-mode:color-burn;}.cls-4{fill:#f7f7f7;}.cls-5{fill:#69cce8;}.cls-6{fill:#4c4c4d;}.cls-7{opacity:0.8;}.cls-8{fill:#fff;}</style></defs><title>CarsandJobs-Icons</title><g class="cls-1"><g id="Layer_1" data-name="Layer 1"><rect class="cls-2" y="0.12" width="230" height="119.88"/><path class="cls-3" d="M162.46,96,141.78,75.29l-5.71-5.72a34,34,0,1,0-8.37,8.68l5.55,5.56,20.68,20.68A6,6,0,0,0,162.46,96Z"/><path class="cls-4" d="M130.29,25.09a34,34,0,1,0,0,48.11A34,34,0,0,0,130.29,25.09Z"/><path class="cls-5" d="M124.22,31.17a25.42,25.42,0,1,1-36,0A25.43,25.43,0,0,1,124.22,31.17Z"/><path class="cls-4" d="M130.29,73.2a34.19,34.19,0,0,1-4.16,3.49l5.59,5.59,8.53-8.53L134.53,68A34.36,34.36,0,0,1,130.29,73.2Z"/><path class="cls-6" d="M160.93,94.43,140.25,73.75l-8.53,8.53L148,98.55,152.4,103a6,6,0,1,0,8.53-8.53Z"/><g class="cls-7"><path class="cls-8" d="M122.18,51.42a2.28,2.28,0,0,1-2.28-2.28A13.92,13.92,0,0,0,106,35.24a2.28,2.28,0,0,1,0-4.56,18.49,18.49,0,0,1,18.47,18.46A2.28,2.28,0,0,1,122.18,51.42Z"/></g></g></g></svg>