<svg xmlns="http://www.w3.org/2000/svg" xmlns:xlink="http://www.w3.org/1999/xlink" viewBox="0 0 230 120"><defs><style>.cls-1{fill:none;}.cls-2{isolation:isolate;}.cls-3{fill:#f8961d;}.cls-4{mix-blend-mode:color-burn;}.cls-5{fill:#0a7eba;}.cls-6{fill:#155b31;}.cls-7{clip-path:url(#clip-path);}.cls-8{fill:#f7f7f7;}.cls-9{fill:#643c3c;}.cls-10{fill:#f2cfb2;}.cls-11{fill:#fff;}.cls-12{fill:#351a1a;}.cls-13{fill:#cea080;}.cls-14{fill:#fceade;}</style><clipPath id="clip-path"><path class="cls-1" d="M124.36,51.58c.39.31.76.63,1.12,1l5,4.39h0l1.57,1.37Z"/></clipPath></defs><title>CarsandJobs-Icons</title><g class="cls-2"><g id="Layer_1" data-name="Layer 1"><rect class="cls-3" x="0.15" y="0.12" width="229.85" height="119.88"/><g class="cls-4"><polygon class="cls-5" points="71.24 32 58.73 78.03 68.37 80.74 80.3 34.59 71.24 32"/><path class="cls-6" d="M161.05,75.69l1.82,7.36,9.65-2.83L160,32,151,34.72l.75,3.11c-.8,0-19.68-.22-27.75-5.73-3.27-2.24-7.21-.84-10.75-.54a21.17,21.17,0,0,1-6.18-.63c-1.85-.38-4-1.46-5.9-1.47,0,0-4.2,0-8.51,5.14,0,0-.75.16-1.82.42h0l-1.16.3-.31.09-.14,0-.54.16h0l-.56.16,0,0c-.38.11-.76.23-1.13.36l-.08,0-.47.16-.08,0-.51.19-.08,0a3.52,3.52,0,0,0-.39.16l-.13,0-.42.19h0l-.39.2-.11.07-.28.16-.09,0-.3.21-.06.05-.2.17-.06.06a1.68,1.68,0,0,0-.18.21c0,.1,0,.19,0,.28l-3.44-.8L70.11,74l8,5.33c0,.6.08,1.2.09,1.67a6.69,6.69,0,0,0,.42,2.35.3.3,0,0,0,0,.1.07.07,0,0,1,0,0v0c1.09,3.34,7.1,4.29,7.1,4.29,1.69,7.29,9.86,3.4,9.86,3.4C97.21,98.66,107,96.82,107,96.82c4.22,5.6,10.18,3.09,12.55,1.58l.41-.22-.13-.05c2.51,1.05,5.18,2,7.75,1.73,1.35-.12,4.74-2.12,4-4a1.66,1.66,0,0,0-.13-.27.47.47,0,0,0,.14.14l.07,0,.13.07.1,0,.17,0,.28,0,.09,0,.24,0h.66a14.13,14.13,0,0,0,4.06-.7c1.91-.89,2.7-2.92,3.13-5.06a.17.17,0,0,0,0,.1.1.1,0,0,0,0,0l.07,0,.11,0,.07,0,.2,0h0a17.11,17.11,0,0,0,4.69-.47c1.95-1,2.65-2.78,3-5l.68.08a11.51,11.51,0,0,0,3.2.16,4.41,4.41,0,0,0,3.62-3.9,4.73,4.73,0,0,0-.53-2.66l.53-.28C156.94,77.89,160.08,75.86,161.05,75.69ZM127.18,53.2h0l-1.19-1c.38.32.76.64,1.12,1Z"/></g><g class="cls-7"><polygon class="cls-1" points="124.36 51.58 124.36 51.58 132.1 51.58 132.1 58.32 124.36 58.32 124.36 51.58"/><polygon class="cls-1" points="124.36 51.78 124.56 51.58 132.1 51.58 132.1 58.32 124.36 58.32 132.1 51.58 132.1 58.32 124.36 58.32 124.36 51.78"/><polygon class="cls-1" points="124.76 51.58 124.36 51.98 124.36 51.78 124.56 51.58 124.76 51.58"/><polygon class="cls-1" points="124.97 51.58 124.36 52.19 124.36 51.98 124.76 51.58 124.97 51.58"/><polygon class="cls-1" points="125.17 51.58 124.36 52.38 124.36 52.19 124.97 51.58 125.17 51.58"/><polygon class="cls-1" points="125.37 51.58 124.36 52.59 124.36 52.38 125.17 51.58 125.37 51.58"/><polygon class="cls-1" points="125.57 51.58 124.36 52.79 124.36 52.59 125.37 51.58 125.57 51.58"/><polygon class="cls-1" points="124.36 52.99 125.77 51.58 125.57 51.58 124.36 52.79 124.36 52.99"/><polygon class="cls-1" points="125.97 51.58 124.36 53.19 124.36 52.99 125.77 51.58 125.97 51.58"/><polygon class="cls-1" points="126.17 51.58 124.36 53.39 124.36 53.19 125.97 51.58 126.17 51.58"/><polygon class="cls-1" points="126.38 51.58 124.36 53.59 124.36 53.39 126.17 51.58 126.38 51.58"/><polygon class="cls-1" points="126.58 51.58 124.36 53.79 124.36 53.59 126.38 51.58 126.58 51.58"/><polygon class="cls-1" points="126.77 51.58 124.36 53.99 124.36 53.79 126.58 51.58 126.77 51.58"/><polygon class="cls-1" points="124.36 54.2 126.98 51.58 126.77 51.58 124.36 53.99 124.36 54.2"/><polygon class="cls-1" points="127.18 51.58 124.36 54.4 124.36 54.2 126.98 51.58 127.18 51.58"/><polygon class="cls-1" points="127.38 51.58 124.36 54.6 124.36 54.4 127.18 51.58 127.38 51.58"/><polygon class="cls-1" points="127.58 51.58 124.36 54.8 124.36 54.6 127.38 51.58 127.58 51.58"/><polygon class="cls-1" points="127.78 51.58 124.36 55 124.36 54.8 127.58 51.58 127.78 51.58"/><polygon class="cls-1" points="127.98 51.58 124.36 55.2 124.36 55 127.78 51.58 127.98 51.58"/><polygon class="cls-1" points="128.18 51.58 124.36 55.4 124.36 55.2 127.98 51.58 128.18 51.58"/><polygon class="cls-1" points="128.39 51.58 124.36 55.6 124.36 55.4 128.18 51.58 128.39 51.58"/><polygon class="cls-1" points="128.59 51.58 124.36 55.8 124.36 55.6 128.39 51.58 128.59 51.58"/><polygon class="cls-1" points="128.78 51.58 124.36 56 124.36 55.8 128.59 51.58 128.78 51.58"/><polygon class="cls-1" points="128.99 51.58 124.36 56.21 124.36 56 128.78 51.58 128.99 51.58"/><polygon class="cls-1" points="124.36 56.41 129.19 51.58 128.99 51.58 124.36 56.21 124.36 56.41"/><polygon class="cls-1" points="129.39 51.58 124.36 56.61 124.36 56.41 129.19 51.58 129.39 51.58"/><polygon class="cls-1" points="129.59 51.58 124.42 56.76 124.36 56.71 124.36 56.61 129.39 51.58 129.59 51.58"/><polygon class="cls-1" points="124.42 56.76 124.51 56.86 129.79 51.58 129.59 51.58 124.42 56.76"/><polygon class="cls-1" points="129.99 51.58 124.61 56.96 124.51 56.86 129.79 51.58 129.99 51.58"/><polygon class="cls-1" points="130.19 51.58 124.72 57.06 124.61 56.96 129.99 51.58 130.19 51.58"/><polygon class="cls-1" points="130.4 51.58 124.82 57.16 124.72 57.06 130.19 51.58 130.4 51.58"/><polygon class="cls-1" points="130.5 51.58 130.54 51.63 124.92 57.26 124.82 57.16 130.4 51.58 130.5 51.58"/><rect class="cls-1" x="123.8" y="54.43" width="7.96" height="0.14" transform="translate(-1.11 106.32) rotate(-45)"/><rect class="cls-1" x="123.9" y="54.53" width="7.96" height="0.14" transform="translate(-1.15 106.42) rotate(-45)"/><polygon class="cls-1" points="130.74 51.83 130.85 51.94 125.22 57.56 125.11 57.46 130.74 51.83"/><polygon class="cls-1" points="130.85 51.94 130.95 52.04 125.32 57.66 125.22 57.56 130.85 51.94"/><rect class="cls-1" x="124.21" y="54.83" width="7.96" height="0.14" transform="translate(-1.3 106.65) rotate(-44.97)"/><rect class="cls-1" x="124.3" y="54.93" width="7.96" height="0.14" transform="translate(-1.29 106.89) rotate(-45.03)"/><rect class="cls-1" x="124.4" y="55.03" width="7.96" height="0.14" transform="translate(-1.66 106.16) rotate(-44.67)"/><polygon class="cls-1" points="131.25 52.34 131.35 52.43 125.72 58.06 125.62 57.96 131.25 52.34"/><rect class="cls-1" x="124.61" y="55.23" width="7.96" height="0.14" transform="translate(-1.47 107.05) rotate(-44.97)"/><polygon class="cls-1" points="131.44 52.53 131.55 52.64 125.92 58.27 125.82 58.17 131.44 52.53"/><polygon class="cls-1" points="131.55 52.64 131.65 52.74 126.07 58.32 125.97 58.32 125.92 58.27 131.55 52.64"/><polygon class="cls-1" points="131.65 52.74 131.75 52.84 126.28 58.32 126.07 58.32 131.65 52.74"/><polygon class="cls-1" points="131.75 52.84 131.85 52.94 126.47 58.32 126.28 58.32 131.75 52.84"/><polygon class="cls-1" points="131.85 52.94 131.95 53.04 126.67 58.32 126.47 58.32 131.85 52.94"/><polygon class="cls-1" points="131.95 53.04 132.05 53.14 126.88 58.32 126.67 58.32 131.95 53.04"/><polygon class="cls-1" points="132.05 53.14 132.1 53.18 132.1 53.3 127.08 58.32 126.88 58.32 132.05 53.14"/><polygon class="cls-1" points="132.1 53.5 127.28 58.32 127.08 58.32 132.1 53.3 132.1 53.5"/><polygon class="cls-1" points="127.48 58.32 132.1 53.69 132.1 53.5 127.28 58.32 127.48 58.32"/><polygon class="cls-1" points="132.1 53.89 127.68 58.32 127.48 58.32 132.1 53.69 132.1 53.89"/><polygon class="cls-1" points="132.1 54.1 127.88 58.32 127.68 58.32 132.1 53.89 132.1 54.1"/><polygon class="cls-1" points="128.08 58.32 132.1 54.3 132.1 54.1 127.88 58.32 128.08 58.32"/><polygon class="cls-1" points="132.1 54.5 128.29 58.32 128.08 58.32 132.1 54.3 132.1 54.5"/><polygon class="cls-1" points="132.1 54.7 128.49 58.32 128.29 58.32 132.1 54.5 132.1 54.7"/><polygon class="cls-1" points="128.68 58.32 132.1 54.9 132.1 54.7 128.49 58.32 128.68 58.32"/><polygon class="cls-1" points="132.1 55.1 128.89 58.32 128.68 58.32 132.1 54.9 132.1 55.1"/><polygon class="cls-1" points="132.1 55.31 129.09 58.32 128.89 58.32 132.1 55.1 132.1 55.31"/><polygon class="cls-1" points="132.1 55.51 129.29 58.32 129.09 58.32 132.1 55.31 132.1 55.51"/><polygon class="cls-1" points="132.1 55.7 129.49 58.32 129.29 58.32 132.1 55.51 132.1 55.7"/><polygon class="cls-1" points="132.1 55.9 129.69 58.32 129.49 58.32 132.1 55.7 132.1 55.9"/><polygon class="cls-1" points="132.1 56.11 129.89 58.32 129.69 58.32 132.1 55.9 132.1 56.11"/><polygon class="cls-1" points="132.1 56.31 130.09 58.32 129.89 58.32 132.1 56.11 132.1 56.31"/><polygon class="cls-1" points="132.1 56.51 130.3 58.32 130.09 58.32 132.1 56.31 132.1 56.51"/><polygon class="cls-1" points="130.5 58.32 132.1 56.71 132.1 56.51 130.3 58.32 130.5 58.32"/><polygon class="cls-1" points="132.1 56.91 130.69 58.32 130.5 58.32 132.1 56.71 132.1 56.91"/><polygon class="cls-1" points="132.1 57.11 130.9 58.32 130.69 58.32 132.1 56.91 132.1 57.11"/><polygon class="cls-1" points="132.1 57.32 131.1 58.32 130.9 58.32 132.1 57.11 132.1 57.32"/><polygon class="cls-1" points="132.1 57.52 131.3 58.32 131.1 58.32 132.1 57.32 132.1 57.52"/><polygon class="cls-1" points="132.1 57.72 131.5 58.32 131.3 58.32 132.1 57.52 132.1 57.72"/><polygon class="cls-1" points="132.1 57.91 131.7 58.32 131.5 58.32 132.1 57.72 132.1 57.91"/><polygon class="cls-1" points="131.91 58.32 132.1 58.12 132.1 57.91 131.7 58.32 131.91 58.32"/><polygon class="cls-1" points="131.91 58.32 132.1 58.12 132.1 58.32 131.91 58.32"/></g><polygon class="cls-8" points="69.62 30.38 78.68 32.97 66.75 79.12 57.11 76.41 69.62 30.38"/><polygon class="cls-8" points="158.38 30.38 149.33 33.1 161.25 81.43 170.9 78.6 158.38 30.38"/><path class="cls-9" d="M68.49,72.4l12.18,8.15,34.67,14.73c3.27,1.38,7,3.29,10.61,3,1.41-.13,5.09-2.32,3.85-4.23.63,1,5.11.13,5.94-.26,1.91-.89,2.7-2.92,3.13-5.06-.13.68,4.76,0,5.22-.2,1.94-1,2.65-2.78,3-5a15.77,15.77,0,0,0,3.88.24,4.42,4.42,0,0,0,3.62-3.9c.25-2.28-1.38-4.19-2.87-5.47L124.26,50.46S118.58,44.23,99.34,41L78,36Z"/><path class="cls-10" d="M116.73,95.87a7.73,7.73,0,0,1-2.42-2.09c-.58-.54-1.12-1.07-1.55-1.54.86-2.16,2.33-5,1-7.31a3.53,3.53,0,0,0-5.08-1,8.72,8.72,0,0,0-2.08,2c-.13.16-1.38,2.14-1.43,2.12-.76-.24-1.58-.54-2.45-.86,2.77-9-4-8.83-4-8.83-2.22-.32-3.9,3.34-4.63,5.29-.85-.4-1.69-.81-2.56-1.24A11.18,11.18,0,0,0,90,78.87a4.45,4.45,0,0,0-3.46-2,4.9,4.9,0,0,0-1.57.14A4,4,0,0,0,83.1,78s-.38.78-.39.62a14.51,14.51,0,0,0-1-4.22,2.53,2.53,0,0,0-2.69-.9,3.27,3.27,0,0,0-2.5,2.62,15.17,15.17,0,0,0,0,3.3A6.69,6.69,0,0,0,77,81.75a.3.3,0,0,0,0,.1.07.07,0,0,1,0,.05v0c1.09,3.34,7.1,4.29,7.1,4.29,1.69,7.29,9.86,3.4,9.86,3.4,1.63,7.46,11.41,5.63,11.41,5.63,4.22,5.6,10.18,3.09,12.55,1.58l.41-.22Z"/><polygon class="cls-10" points="77.84 36.47 77.84 36.47 77.47 37.99 77.84 36.47"/><path class="cls-11" d="M76.78,77h0Z"/><path class="cls-10" d="M149.33,33.1l.75,3.11c-.8,0-19.68-.22-27.75-5.73-3.27-2.24-7.21-.84-10.75-.53a21.52,21.52,0,0,1-6.18-.64c-1.85-.38-4-1.46-5.9-1.47,0,0-4.2,0-8.51,5.14,0,0-8.32,1.74-9.56,3.58a6.21,6.21,0,0,0,.44,3.49c1.16,2.39,4.51,4.87,13.95,2.42L99.34,41c9.5,1.68,19.92,4.79,26.14,10.53l10.11,8.81,16.58,14.44A8.89,8.89,0,0,1,154,77.14l.54-.3c.75-.57,3.91-2.61,4.87-2.77,0,0,1.81,7.32,1.82,7.32Z"/><path class="cls-12" d="M118.85,84.67l-.72,1.2L130,94.93a1.47,1.47,0,0,0-.21-.92c.23.35,1,.46,1.88.44Z"/><path class="cls-12" d="M124.6,76.76l-.71,1.2,14.85,11.23c0-.17.1-.33.13-.5-.05.3.84.33,1.89.27Z"/><path class="cls-13" d="M130.53,55.91s10.78-1.29,15.2-6.31c0,0-3,6.31-12.21,8.92Z"/><path class="cls-14" d="M89.17,33.4c-2.52.63-6.87,1.87-7.74,3.16a6,6,0,0,0,.27,3A14.09,14.09,0,0,0,92.05,39,5.29,5.29,0,0,0,89.17,33.4Z"/><path class="cls-14" d="M77.19,79.06a8.89,8.89,0,0,1,0-2c.14-1.24.67-2.71,2-2.77a2.23,2.23,0,0,1,2.42,1.86l.35,2S80.54,79.4,77.19,79.06Z"/><path class="cls-14" d="M84.83,77.83s2.94-1.13,4.25,3.91c0,0-2.79,2-4.8.91-.32-.17-.59-1-.71-1.38a4.52,4.52,0,0,1-.18-2.19C83.56,78.21,84.16,78.1,84.83,77.83Z"/><path class="cls-14" d="M95.85,83.61s1.19-4,3.94-3.45c0,0,3.18.77,1.67,5.36C101.46,85.52,98.37,87.3,95.85,83.61Z"/><path class="cls-14" d="M107.51,86.81s1.89-3.06,4.1-1.84c0,0,2.53,1.55.25,5C111.86,90,108.84,90.64,107.51,86.81Z"/><path class="cls-12" d="M130.91,69.17l-.73,1.19L147,83.62c0-.05,0-.11,0-.17.74.07,1.54.2,2.32.27Z"/></g></g></svg>