<svg xmlns="http://www.w3.org/2000/svg" viewBox="0 0 230 120"><defs><style>.cls-1{isolation:isolate;}.cls-2{fill:#44bb92;}.cls-3{fill:#035968;mix-blend-mode:color-burn;}.cls-4{fill:#c4c4c3;}.cls-5{fill:#d8d8d8;}.cls-6{fill:#f7ca94;}.cls-7{fill:#f9d19b;}.cls-8{fill:#fff;}.cls-9{fill:#eaba86;}.cls-10{fill:#ffe1ab;}.cls-11{fill:#4a494a;}.cls-12{fill:#353535;}.cls-13{fill:#aa2223;}.cls-14{fill:#1b1b1b;}.cls-15{fill:#ed5e52;}.cls-16{fill:#efb678;}</style></defs><title>CarsandJobs-Icons</title><g class="cls-1"><g id="Layer_1" data-name="Layer 1"><rect class="cls-2" x="0.06" y="0.12" width="229.94" height="119.88"/><path class="cls-3" d="M156.73,94.44l-1.49-4.94-14.82-5.79h0l-8.66-6.06v0h-1.58V73.41s0,0,0,0V69.8s0,0,0,0v-.1a39.49,39.49,0,0,0,6-12l.16.06c1.66.35,3.66-2.45,4.48-6.25s.14-7.12-1.49-7.53c.1-.45.2-.92.29-1.4l0-.09h0c.8-4.29,1.34-10-.27-14a20,20,0,0,0,1.94-1.83C121,0,99.16,18.7,96.3,21.32h-.19c-2-1.09-2.4-5.91-2.4-5.91-3.19,5.11.33,8.73.33,8.73-1.41-.2-3.15-3.69-3.15-3.69a7.1,7.1,0,0,0,1.71,6.44c-2.53,4.15-1.93,10.89-1,15.77h0v0q.13.69.27,1.32c-1.58.49-2.21,3.78-1.41,7.51s2.82,6.6,4.47,6.25l.18-.06a39.37,39.37,0,0,0,5.91,12V77.6H99.53L90.8,83.7,76,89.5l-1.48,4.93a52.21,52.21,0,0,0,18.66,13.94v0c1.36.6,2.76,1.15,4.18,1.64h0a55.46,55.46,0,0,0,9,2.3c1.67.27,3.37.47,5.09.61h.06c1.35.1,2.72.16,4.1.16s2.69-.06,4-.15h.16c1.72-.13,3.42-.33,5.09-.61h0q2.56-.42,5-1.08h0q1-.27,2-.57h0c.64-.19,1.28-.4,1.91-.62l.08,0c1.42-.5,2.81-1,4.16-1.64l0,0A52.15,52.15,0,0,0,156.73,94.44ZM138.85,28.85l0,0Zm-.55.43.06,0Z"/><rect class="cls-4" x="98.09" y="76.16" width="32.23" height="8.72"/><path class="cls-5" d="M102.57,99l2.34,11.94a56.44,56.44,0,0,0,9.26.78,55.57,55.57,0,0,0,9.27-.79l2.35-12L114.2,88.06Z"/><rect class="cls-6" x="99.6" y="62.51" width="29.14" height="31.32"/><path class="cls-7" d="M95,48.78c.81,3.81.13,7.19-1.53,7.54S89.85,53.88,89,50.07s-.13-7.18,1.52-7.54S94.22,45,95,48.78Z"/><path class="cls-7" d="M133.35,48.78c-.81,3.81-.13,7.19,1.53,7.54s3.65-2.44,4.47-6.25.13-7.18-1.52-7.54S134.17,45,133.35,48.78Z"/><polygon class="cls-8" points="98.09 76.16 114.2 88.06 102.47 99.05 98.09 76.16"/><polygon class="cls-8" points="130.32 76.16 114.2 88.06 125.94 99.05 130.32 76.16"/><path class="cls-9" d="M128.74,62.51H99.6v9.33C106.23,80.76,114.2,82,114.2,82s7.92-1.23,14.54-10.07Z"/><path class="cls-10" d="M114.2,13.35C86.92,13.35,91,39.53,91,39.53,92.6,75.06,114.2,78.36,114.2,78.36s21.61-3.3,23.26-38.83C137.46,39.53,141.49,13.35,114.2,13.35Z"/><path class="cls-11" d="M132.63,30.55c1.36,2.27,2.78,7.2.3,17.13l3.72-.48S140.83,34.48,137.9,27A30.23,30.23,0,0,1,132.63,30.55Z"/><path class="cls-12" d="M73,93a52.74,52.74,0,0,0,26.82,16.81L89.36,82.26l-14.84,5.8Z"/><path class="cls-13" d="M110,111.51c1.38.1,2.76.17,4.17.17s2.79-.07,4.17-.17l-.76-18.78h-6.82Z"/><path class="cls-12" d="M128.46,109.81A52.81,52.81,0,0,0,155.29,93l-1.49-4.94L139,82.26Z"/><path class="cls-14" d="M98.09,76.16l-8.73,6.1V99.05l6-.67-5.28,6L91.72,107a54.47,54.47,0,0,0,13.19,4Z"/><path class="cls-14" d="M123.44,110.89a54.51,54.51,0,0,0,13.2-4l1.61-2.58-5.28-6,6,.67V82.26l-8.72-6.1Z"/><polygon class="cls-15" points="106.83 94.97 114.17 102.32 121.58 94.97 114.2 88.06 106.83 94.97"/><path class="cls-12" d="M94.86,19.88h-.19c-2-1.09-2.4-5.9-2.4-5.9-3.19,5.1.33,8.72.33,8.72C91.2,22.5,89.46,19,89.46,19a7.06,7.06,0,0,0,1.7,6.44c-4.32,7.08.51,21.75.51,21.75l3.71.48C91.5,32.12,97.2,28.81,97.2,28.81c27.3,14.08,42.64-3.63,42.64-3.63C119.58-1.4,97.72,17.26,94.86,19.88Z"/><path class="cls-14" d="M135.34,40.84c-10.11-1.63-14.18-.6-14.18-.6-5.08,1.48-7,1.16-7,1.16s-1.87.32-6.95-1.16c0,0-4-1-14,.57h0l-3,.41.42,2,2.48.57s1.17.24,1.29,1.12c0,2.31.32,5.43,1.86,7.27,2.55,3.07,8.43,2.74,11.58,1.09,0,0,3.41-1.79,4.7-7,0,0,.29-1.75,1.71-1.75s1.7,1.75,1.7,1.75c1.29,5.24,4.7,7,4.7,7,3.16,1.65,9,2,11.59-1.09,1.53-1.84,1.9-5,1.85-7.27.13-.88,1.29-1.12,1.29-1.12l2.33-.35.5-2.36Zm-26.42,9.91s-1.39,2.14-5.29,2.66c0,0-4.69.79-6.47-2.34a10.76,10.76,0,0,1-.4-8.23s.36-1.71,6.87-1.79c0,0,6.6.12,7.12,3A9.48,9.48,0,0,1,108.92,50.75Zm22.34.32c-1.79,3.13-6.48,2.34-6.48,2.34-3.89-.52-5.28-2.66-5.28-2.66A9.42,9.42,0,0,1,117.67,44c.52-2.86,7.11-3,7.11-3,6.52.08,6.88,1.79,6.88,1.79A10.76,10.76,0,0,1,131.26,51.07Z"/><path class="cls-16" d="M118.26,66.78h-8.19a1.16,1.16,0,0,1,0-2.32h8.19a1.16,1.16,0,0,1,0,2.32Z"/><path class="cls-9" d="M114.24,78.42s-8-1.23-14.6-10.15v3.57c6.62,8.92,14.6,10.16,14.6,10.16s7.92-1.23,14.54-10.07V68.36C122.16,77.2,114.24,78.42,114.24,78.42Z"/></g></g></svg>