<svg id="Layer_1" data-name="Layer 1" xmlns="http://www.w3.org/2000/svg" viewBox="0 0 230 120"><defs><style>.cls-1{fill:#ed5e52;}.cls-2{fill:#891820;}.cls-3{fill:#fdd327;}.cls-4{fill:#f7f7f7;}.cls-5{fill:#ccc;}.cls-6{fill:#727373;}</style></defs><title>CarsandJobs-Icons</title><rect class="cls-1" width="230" height="120"/><path class="cls-2" d="M117.37,13.47a47.78,47.78,0,1,0,47.78,47.77A47.78,47.78,0,0,0,117.37,13.47Z"/><path class="cls-3" d="M163.61,59.71a47.78,47.78,0,1,1-47.78-47.78A47.78,47.78,0,0,1,163.61,59.71Z"/><circle class="cls-4" cx="115.83" cy="59.71" r="37.51"/><path class="cls-5" d="M115.86,89a3.07,3.07,0,0,1-3.06-3.06h0a3.05,3.05,0,0,1,3.06-3h0a3.06,3.06,0,0,1,3,3h0a3.05,3.05,0,0,1-3,3.06ZM86.59,59.77a3.05,3.05,0,0,1,3.06-3.06h0a3,3,0,0,1,3,3h0a3.07,3.07,0,0,1-3,3.07h0A3.06,3.06,0,0,1,86.59,59.77ZM139,59.71v-.05h0v0h0a3.07,3.07,0,0,1,3-3.07h0a3.06,3.06,0,0,1,3.06,3h0v.19h0A3.06,3.06,0,0,1,142,62.77h0A3.06,3.06,0,0,1,139,59.71ZM112.7,33.54a3,3,0,0,1,3-3.07h0a3.06,3.06,0,0,1,3.06,3.05h0a3.06,3.06,0,0,1-3,3.06h0A3.05,3.05,0,0,1,112.7,33.54Z"/><path class="cls-6" d="M115.83,61.89a2.18,2.18,0,0,1-1.54-3.72L133.36,39.1a2.18,2.18,0,1,1,3.08,3.09L117.38,61.25A2.18,2.18,0,0,1,115.83,61.89Z"/><path class="cls-6" d="M129.05,75.11a2.14,2.14,0,0,1-1.54-.64L114.29,61.25a2.18,2.18,0,0,1,3.09-3.08l13.21,13.21a2.17,2.17,0,0,1,0,3.09A2.14,2.14,0,0,1,129.05,75.11Z"/><path class="cls-3" d="M123,59.71a7.18,7.18,0,1,1-7.17-7.18A7.18,7.18,0,0,1,123,59.71Z"/></svg>