<svg id="Layer_1" data-name="Layer 1" xmlns="http://www.w3.org/2000/svg" viewBox="0 0 230 120"><defs><style>.cls-1{fill:#59b0e1;}.cls-2{fill:#353535;}.cls-3{fill:#f9f9fa;}.cls-4{fill:#ccc;}.cls-5{opacity:0.1;}.cls-6{fill:#fff;}</style></defs><title>CarsandJobs-Icons</title><rect class="cls-1" width="230" height="120"/><path class="cls-2" d="M156.36,19.17H75.64a5,5,0,0,0-5,5V82a5,5,0,0,0,5,5h80.72a5,5,0,0,0,5-5V24.21A5,5,0,0,0,156.36,19.17Z"/><path class="cls-3" d="M161.4,82V75.62H70.6V82a5,5,0,0,0,5,5h80.72A5,5,0,0,0,161.4,82Z"/><path class="cls-3" d="M135.55,99.26a17,17,0,0,0-2.12-.46,5.89,5.89,0,0,1-2.86-1.38,5.32,5.32,0,0,1-1.45-2.77c-.28-1.48-.33-3.05-.46-4.56-.07-.78-.14-2.07-.22-3.1H103.56c-.08,1-.15,2.32-.22,3.1-.14,1.51-.18,3.08-.46,4.56a5.25,5.25,0,0,1-1.45,2.77,5.89,5.89,0,0,1-2.86,1.38,17,17,0,0,0-2.12.46c-.63.24-1,.76-.33,1.22a4.48,4.48,0,0,0,2.4.43h35a4.48,4.48,0,0,0,2.4-.43C136.58,100,136.19,99.5,135.55,99.26Z"/><path class="cls-4" d="M128.66,90.09c-.07-.78-.14-2.07-.22-3.1H103.56c-.08,1-.15,2.32-.22,3.1-.14,1.51-.18,3.08-.46,4.56a4.24,4.24,0,0,1-.17.61h26.57a6.06,6.06,0,0,1-.16-.61C128.84,93.17,128.79,91.6,128.66,90.09Z"/><g class="cls-5"><path class="cls-6" d="M161.4,75.62V24.21a5,5,0,0,0-5-5H89.65l24.82,56.45Z"/></g></svg>