<svg id="Layer_1" data-name="Layer 1" xmlns="http://www.w3.org/2000/svg" viewBox="0 0 230 120"><defs><style>.cls-1{fill:#f8961d;}.cls-2{fill:#891820;}.cls-3{fill:#dcdbdb;}.cls-4{fill:#f4f4f4;}</style></defs><title>CarsandJobs-Icons</title><rect class="cls-1" width="230" height="120"/><path class="cls-2" d="M150.65,60.11c0-1.18-.06-2.34-.17-3.48l7-4.84A42.23,42.23,0,0,0,154.35,42l-8.54.24a36,36,0,0,0-4.07-5.63l2.85-8.06a42.38,42.38,0,0,0-8.3-6.06l-6.76,5.22a35.88,35.88,0,0,0-6.6-2.15l-2.42-8.21a42.6,42.6,0,0,0-10.26,0l-2.41,8.21a36.23,36.23,0,0,0-6.61,2.15L94.46,22.5a43,43,0,0,0-8.29,6.05L89,36.62A35.44,35.44,0,0,0,85,42.25L76.41,42a43.73,43.73,0,0,0-3.18,9.78l7.06,4.84a35.7,35.7,0,0,0,0,7l-7.06,4.85a43.23,43.23,0,0,0,3.18,9.78L85,78A34.91,34.91,0,0,0,89,83.6l-2.86,8.08a43.84,43.84,0,0,0,8.29,6l6.77-5.22a35.45,35.45,0,0,0,6.61,2.14l2.41,8.21a41.28,41.28,0,0,0,10.26,0l2.42-8.21a35.11,35.11,0,0,0,6.6-2.14l6.76,5.22a43.59,43.59,0,0,0,8.3-6l-2.85-8.08A35.47,35.47,0,0,0,145.81,78l8.54.24a42.23,42.23,0,0,0,3.17-9.78l-7-4.85C150.59,62.45,150.65,61.29,150.65,60.11ZM115.38,73.18a13.07,13.07,0,1,1,13-13.07A13.06,13.06,0,0,1,115.38,73.18Z"/><path class="cls-3" d="M114.09,33.35A25.48,25.48,0,1,0,139.5,58.82,25.44,25.44,0,0,0,114.09,33.35Zm0,38.54a13.07,13.07,0,1,1,13-13.07A13,13,0,0,1,114.09,71.89Z"/><path class="cls-4" d="M149.36,58.82c0-1.18-.06-2.34-.17-3.48l7-4.84a42.69,42.69,0,0,0-3.16-9.78l-8.55.23a35.76,35.76,0,0,0-4.07-5.62l2.86-8.07a43.36,43.36,0,0,0-8.3-6.05l-6.77,5.22a35.14,35.14,0,0,0-6.6-2.15l-2.41-8.21a42.68,42.68,0,0,0-10.27,0l-2.41,8.21a35.14,35.14,0,0,0-6.6,2.15l-6.78-5.22a43.29,43.29,0,0,0-8.29,6.05l2.86,8.07A35.76,35.76,0,0,0,83.67,41l-8.55-.23A43.21,43.21,0,0,0,72,50.5l7,4.84a35.7,35.7,0,0,0,0,7l-7,4.84a42.79,42.79,0,0,0,3.17,9.79l8.55-.24a34.85,34.85,0,0,0,4.07,5.62l-2.86,8.07a43.77,43.77,0,0,0,8.29,6.06L100,91.21a35.14,35.14,0,0,0,6.6,2.15l2.41,8.21a41.36,41.36,0,0,0,10.27,0l2.41-8.21a35.14,35.14,0,0,0,6.6-2.15L135,96.44a43.84,43.84,0,0,0,8.3-6.06l-2.86-8.07a34.85,34.85,0,0,0,4.07-5.62l8.55.24a42.77,42.77,0,0,0,3.16-9.79l-7-4.84C149.3,61.16,149.36,60,149.36,58.82ZM114.09,84.3A25.48,25.48,0,1,1,139.5,58.82,25.44,25.44,0,0,1,114.09,84.3Z"/></svg>