<svg id="Layer_1" data-name="Layer 1" xmlns="http://www.w3.org/2000/svg" viewBox="0 0 230 120"><defs><style>.cls-1{fill:#ffd835;}.cls-2{fill:#f7f7f7;}.cls-3{fill:#4c4c4d;}.cls-4{fill:#895d5c;}.cls-5{fill:#ed5e52;}.cls-6{fill:#e5e5e5;}.cls-7{fill:#6d4645;}</style></defs><title>CarsandJobs-Icons</title><rect class="cls-1" width="230" height="120"/><rect class="cls-2" x="81.1" y="21.68" width="67.81" height="53.78"/><path class="cls-3" d="M149.85,81.3H80.15a2.92,2.92,0,0,1,0-5.84h69.7a2.92,2.92,0,1,1,0,5.84Z"/><path class="cls-4" d="M99.64,81.3,88.35,98.38a3.8,3.8,0,0,0,6.34,4.2L108.77,81.3Z"/><path class="cls-4" d="M130.36,81.3h-9.13l14.08,21.28a3.8,3.8,0,0,0,3.17,1.7,3.87,3.87,0,0,0,2.1-.63,3.8,3.8,0,0,0,1.07-5.27Z"/><polygon class="cls-5" points="142.83 35.4 126.79 39.7 130.98 43.89 116.29 58.58 101.82 44.11 86.35 59.58 89.71 62.95 101.82 50.83 116.29 65.3 134.34 47.25 138.53 51.44 142.83 35.4"/><path class="cls-3" d="M149.85,21.68H80.15a2.92,2.92,0,0,1,0-5.84h69.7a2.92,2.92,0,1,1,0,5.84Z"/><rect class="cls-6" x="81.1" y="21.68" width="67.81" height="4.96"/><polygon class="cls-7" points="104.8 87.3 108.94 81.04 99.82 81.04 95.67 87.3 104.8 87.3"/><polygon class="cls-7" points="125.2 87.3 134.32 87.3 130.18 81.04 121.05 81.04 125.2 87.3"/></svg>