<svg id="Layer_1" data-name="Layer 1" xmlns="http://www.w3.org/2000/svg" viewBox="0 0 230 120"><defs><style>.cls-1{fill:#ffd835;}.cls-2{fill:#f04949;}.cls-3{fill:#fff;}</style></defs><title>CarsandJobs-Icons</title><rect class="cls-1" width="230" height="120"/><path class="cls-2" d="M154.26,46.58v1.53c0,21.91-39.67,50.36-39.67,50.36S71.86,70,71.86,48.11V46.58c0-11.79,10.14-21.36,21.93-21.36,9,0,17.28,5.59,20.41,13.46a20.87,20.87,0,0,1,19.46-13.46C145.45,25.22,154.26,34.79,154.26,46.58Z"/><path class="cls-3" d="M81,50.4a2.29,2.29,0,0,1-2.29-2.29,16,16,0,0,1,16-16,2.29,2.29,0,1,1,0,4.58A11.46,11.46,0,0,0,83.3,48.11,2.28,2.28,0,0,1,81,50.4Z"/></svg>