<svg id="Layer_1" data-name="Layer 1" xmlns="http://www.w3.org/2000/svg" viewBox="0 0 230 120"><defs><style>.cls-1{fill:#1e3d6b;}.cls-2{fill:#b8cad2;}.cls-3{fill:#8599a2;}</style></defs><title>CarsandJobs-Icons</title><rect class="cls-1" width="230" height="120"/><path class="cls-2" d="M150.85,29.13a18.11,18.11,0,0,1-3.41,20A16.83,16.83,0,0,1,128.8,53l-2.56,2.56-3.36-3.33v0a2.63,2.63,0,0,0,0-3.68,2.63,2.63,0,0,0-3.69,0L101.12,66.65,98,63.56l21-21a18.09,18.09,0,0,1,4-18.42,16.9,16.9,0,0,1,19.26-3.61l-8.95,8.94A6.06,6.06,0,0,0,142,38Z"/><path class="cls-2" d="M126.24,55.6l-21,21a18.18,18.18,0,0,1-4.2,18,16.91,16.91,0,0,1-19.25,3.62L92,87.91a6.06,6.06,0,0,0-8.56-8.58L73.31,89.5a18.11,18.11,0,0,1,3.41-20A16.78,16.78,0,0,1,95.79,65.8L98,63.56l3.09,3.09a2.59,2.59,0,0,0-.75,1.85,2.55,2.55,0,0,0,.75,1.84,2.6,2.6,0,0,0,3.67,0l18.09-18.07Z"/><path class="cls-3" d="M122.88,48.57a2.63,2.63,0,0,1,0,3.68v0L104.79,70.34a2.6,2.6,0,0,1-3.67,0,2.55,2.55,0,0,1-.75-1.84,2.59,2.59,0,0,1,.75-1.85l18.07-18.08A2.63,2.63,0,0,1,122.88,48.57Z"/></svg>