<svg xmlns="http://www.w3.org/2000/svg" viewBox="0 0 320 160"><defs><style>.cls-1{isolation:isolate;}.cls-2{fill:#ffd835;}.cls-3{fill:#035968;mix-blend-mode:color-burn;}.cls-4{fill:#f7f7f7;}.cls-5{fill:#f2c91d;}.cls-6{fill:#fcd949;}.cls-7{fill:#e6ac23;}.cls-8{fill:#fdd327;}.cls-9{fill:#d3d3d3;}.cls-10{opacity:0.7;}.cls-11{fill:#434343;}</style></defs><title>Artboard 5 copy</title><g class="cls-1"><g id="Layer_1" data-name="Layer 1"><rect class="cls-2" x="0.16" y="0.25" width="319.67" height="159.5"/><polygon class="cls-3" points="192.02 44.69 192.02 34.03 189.86 34.03 189.86 44.69 134.72 44.69 97.71 44.69 97.71 130.62 230.45 130.62 230.45 44.69 192.02 44.69"/><rect class="cls-4" x="95.55" y="42.52" width="132.74" height="85.93"/><path class="cls-5" d="M157.55,107.64a2.6,2.6,0,0,0-1-1.34c-1.29-.87-3.11-1.25-4.54-1.86a46.4,46.4,0,0,1-6.44-3.18c-1.61-1-3.51-2.16-3.68-4.28,0-.5-.22-2.12.08-2.52A22.32,22.32,0,0,0,143.57,92h-20.7a22.32,22.32,0,0,0,1.56,2.44c.3.4.11,2,.08,2.52-.17,2.12-2.07,3.28-3.68,4.28a47,47,0,0,1-6.44,3.18c-1.43.61-3.26,1-4.54,1.86a2.6,2.6,0,0,0-1,1.34c-.08.22-.62,1.62-.49,1.78a31.69,31.69,0,0,0,11.27,8.42l.2.08.16.06c.64.29,1.3.54,2,.78l.59.19c.53.18,1.07.35,1.62.5a2.93,2.93,0,0,0,.37.1,30.81,30.81,0,0,0,3.06.67,33.36,33.36,0,0,0,11.16,0,30.81,30.81,0,0,0,3.06-.67,2.93,2.93,0,0,0,.37-.1c.55-.15,1.09-.32,1.62-.5l.58-.19c.68-.24,1.34-.49,2-.78l.16-.06.2-.08A31.69,31.69,0,0,0,158,109.42C158.17,109.26,157.63,107.86,157.55,107.64Z"/><path class="cls-6" d="M156.59,106.3c-1.29-.87-3.11-1.25-4.54-1.86a46.4,46.4,0,0,1-6.44-3.18c-1.61-1-3.51-2.16-3.68-4.28,0-.5-.22-2.12.08-2.52A22.32,22.32,0,0,0,143.57,92H133.21v28.67h0a33,33,0,0,0,5.58-.47,30.81,30.81,0,0,0,3.06-.67,2.93,2.93,0,0,0,.37-.1c.55-.15,1.09-.32,1.62-.5l.58-.19c.68-.24,1.34-.49,2-.78l.16-.06.2-.08A31.69,31.69,0,0,0,158,109.42c.13-.16-.41-1.56-.49-1.78A2.6,2.6,0,0,0,156.59,106.3Z"/><path class="cls-7" d="M141.94,97h0c0-.5-.22-2.12.08-2.52A22.32,22.32,0,0,0,143.57,92h-20.7a22.32,22.32,0,0,0,1.56,2.44c.3.4.11,2,.08,2.52h0a3.49,3.49,0,0,1-.22.94c4.39,4.67,8.93,5.37,8.93,5.37a17.2,17.2,0,0,0,8.95-5.37,3.49,3.49,0,0,1-.22-.94Z"/><path class="cls-6" d="M147.62,79.05c.12-1.08.23-2.18.28-3.36,0,0,2.55-16.54-14.69-16.54v41s8.49-1.34,12.58-12.9c1,.08,2.12-1.56,2.59-3.77S148.5,79.44,147.62,79.05Z"/><path class="cls-8" d="M118.53,75.69c.06,1.18.17,2.28.29,3.36-.88.39-1.23,2.3-.76,4.47s1.61,3.84,2.59,3.77c4.09,11.56,12.56,12.9,12.56,12.9v-41C116,59.15,118.53,75.69,118.53,75.69Z"/><rect class="cls-9" x="171.69" y="66.98" width="41.39" height="7.03"/><rect class="cls-9" x="171.69" y="83.45" width="41.39" height="7.03"/><rect class="cls-9" x="171.69" y="99.92" width="41.39" height="7.03"/><g class="cls-10"><path class="cls-11" d="M171.69,31.87a10.49,10.49,0,1,0-21,0H132.55V50.65h57.31V31.87Z"/></g></g></g></svg>