<svg id="Layer_1" data-name="Layer 1" xmlns="http://www.w3.org/2000/svg" viewBox="0 0 320 160"><defs><style>.cls-1{fill:#44bb92;}.cls-2{fill:#155b31;}.cls-3{fill:#fff;}.cls-4{fill:#59b0e1;}.cls-5{fill:#ed5e52;}.cls-6{fill:#fdd327;}.cls-7{fill:#e6ac23;}.cls-8{opacity:0.3;}.cls-9{fill:#353535;}</style></defs><title>Artboard 5</title><rect class="cls-1" x="-0.3" width="320.59" height="160"/><path class="cls-1" d="M230,80a70,70,0,1,1-70-70A70,70,0,0,1,230,80Z"/><path class="cls-2" d="M212.89,60.2l7.5-4.5-8.31-1.82.86-.5A1.87,1.87,0,1,0,211,50.17l-.87.51,2.31-8.17L205,47a55.5,55.5,0,1,0,7,58.06c0-.05,0-.11.08-.17.26-.57.51-1.13.75-1.7h0a55.62,55.62,0,0,0,0-43Z"/><path class="cls-3" d="M215.52,80A55.52,55.52,0,1,1,160,24.49,55.52,55.52,0,0,1,215.52,80Z"/><path class="cls-4" d="M203.54,80A43.54,43.54,0,1,1,160,36.46,43.54,43.54,0,0,1,203.54,80Z"/><path class="cls-5" d="M189.66,80A29.66,29.66,0,1,1,160,50.34,29.65,29.65,0,0,1,189.66,80Z"/><path class="cls-6" d="M174.49,80A14.49,14.49,0,1,1,160,65.52,14.48,14.48,0,0,1,174.49,80Z"/><path class="cls-7" d="M164.4,80a4.4,4.4,0,1,1-4.4-4.39A4.4,4.4,0,0,1,164.4,80Z"/><g class="cls-8"><path class="cls-9" d="M211.21,101.48,199,94.16,190.56,96,161,78.4a1.87,1.87,0,1,0-1.91,3.21l29.78,17.71,2.26,8,12.23,7.35A55.51,55.51,0,0,0,211.21,101.48Z"/></g><polygon class="cls-5" points="210.79 40.83 191.09 52.66 188.05 63.46 207.75 51.63 210.79 40.83"/><polygon class="cls-5" points="188.04 63.45 207.75 51.63 218.71 54.02 199.01 65.84 188.04 63.45"/><path class="cls-3" d="M160,81.87a1.87,1.87,0,0,1-1-3.48l50.3-29.9a1.87,1.87,0,1,1,1.91,3.21L161,81.6A1.85,1.85,0,0,1,160,81.87Z"/></svg>